<?xml version="1.0" standalone="yes"?>

<svg width="727" height="400" style="overflow: hidden;" version="1.1" viewBox="0.0 0.0 582 320" fill="none" stroke="none" stroke-linecap="square" stroke-miterlimit="10" xmlns="http://www.w3.org/2000/svg" xmlns:xlink="http://www.w3.org/1999/xlink"><defs id="defs"><clipPath id="_ABSTRACT_RENDERER_ID_152"><rect x="103" y="61" width="376" height="198"></rect></clipPath></defs><g><rect x="491" y="61" width="79" height="50" stroke="none" stroke-width="0" fill-opacity="0" fill="#ffffff"></rect><g><rect x="491" y="61" width="79" height="12" stroke="none" stroke-width="0" fill-opacity="0" fill="#ffffff"></rect><g><text text-anchor="start" x="508" y="71.2" font-family="Arial" font-size="12" stroke="none" stroke-width="0" fill="#222222">p = 5%</text></g><rect x="491" y="61" width="12" height="12" stroke="none" stroke-width="0" fill="#3366cc"></rect></g><g><rect x="491" y="80" width="79" height="12" stroke="none" stroke-width="0" fill-opacity="0" fill="#ffffff"></rect><g><text text-anchor="start" x="508" y="90.2" font-family="Arial" font-size="12" stroke="none" stroke-width="0" fill="#222222">p = 1%</text></g><rect x="491" y="80" width="12" height="12" stroke="none" stroke-width="0" fill="#dc3912"></rect></g><g><rect x="491" y="99" width="79" height="12" stroke="none" stroke-width="0" fill-opacity="0" fill="#ffffff"></rect><g><text text-anchor="start" x="508" y="109.2" font-family="Arial" font-size="12" stroke="none" stroke-width="0" fill="#222222">p = 0.1%</text></g><rect x="491" y="99" width="12" height="12" stroke="none" stroke-width="0" fill="#ff9900"></rect></g></g><g><rect x="103" y="61" width="376" height="198" stroke="none" stroke-width="0" fill-opacity="0" fill="#ffffff"></rect><g clip-path="url(#_ABSTRACT_RENDERER_ID_152)"><g><rect x="103" y="61" width="1" height="198" stroke="none" stroke-width="0" fill="#cccccc"></rect><rect x="179" y="61" width="1" height="198" stroke="none" stroke-width="0" fill="#cccccc"></rect><rect x="255" y="61" width="1" height="198" stroke="none" stroke-width="0" fill="#cccccc"></rect><rect x="330" y="61" width="1" height="198" stroke="none" stroke-width="0" fill="#cccccc"></rect><rect x="406" y="61" width="1" height="198" stroke="none" stroke-width="0" fill="#cccccc"></rect><rect x="103" y="258" width="376" height="1" stroke="none" stroke-width="0" fill="#cccccc"></rect><rect x="103" y="209" width="376" height="1" stroke="none" stroke-width="0" fill="#cccccc"></rect><rect x="103" y="160" width="376" height="1" stroke="none" stroke-width="0" fill="#cccccc"></rect><rect x="103" y="110" width="376" height="1" stroke="none" stroke-width="0" fill="#cccccc"></rect><rect x="103" y="61" width="376" height="1" stroke="none" stroke-width="0" fill="#cccccc"></rect></g><g><g><path d="M103.5,258.5L103.5,258.5L107.28787878787878,257.7502812663417L111.07575757575758,257.0005625326833L114.86363636363636,256.250843799025L118.65151515151516,255.50112506536667L122.43939393939394,254.75140633170832L126.22727272727272,254.00168759804998L130.0151515151515,253.25196886439164L133.8030303030303,252.5022501307333L137.5909090909091,251.75253139707496L141.37878787878788,251.00281266341665L145.16666666666666,250.2530939297583L148.95454545454544,249.50337519609997L152.74242424242425,248.75365646244163L156.53030303030303,248.00393772878328L160.3181818181818,247.25421899512494L164.10606060606062,246.5045002614666L167.89393939393938,245.7547815278083L171.6818181818182,245.00506279414995L175.46969696969697,244.2553440604916L179.25757575757575,243.50562532683327L183.04545454545456,242.75590659317493L186.83333333333331,242.0061878595166L190.62121212121212,241.25646912585825L194.4090909090909,240.50675039219993L198.1969696969697,239.7570316585416L201.9848484848485,239.00731292488325L205.77272727272728,238.2575941912249L209.56060606060606,237.50787545756657L213.34848484848487,236.75815672390823L217.13636363636363,236.0084379902499L220.92424242424244,235.25871925659158L224.71212121212122,234.50900052293323L228.5,233.7592817892749L232.28787878787878,233.00956305561655L236.0757575757576,232.2598443219582L239.86363636363637,231.5101255882999L243.65151515151516,230.76040685464156L247.43939393939394,230.01068812098322L251.22727272727272,229.26096938732488L255.01515151515153,228.51125065366654L258.8030303030303,227.7615319200082L262.5909090909091,227.01181318634985L266.3787878787879,226.26209445269154L270.16666666666663,225.5123757190332L273.9545454545455,224.76265698537486L277.74242424242425,224.01293825171652L281.530303030303,223.26321951805818L285.3181818181818,222.51350078439984L289.1060606060606,221.7637820507415L292.8939393939394,221.01406331708318L296.6818181818182,220.26434458342484L300.469696969697,219.5146258497665L304.25757575757575,218.76490711610816L308.04545454545456,218.01518838244982L311.83333333333337,217.2654696487915L315.6212121212121,216.51575091513314L319.4090909090909,215.76603218147483L323.19696969696975,215.0163134478165L326.9848484848485,214.26659471415815L330.77272727272725,213.5168759804998L334.56060606060606,212.76715724684146L338.3484848484849,212.01743851318312L342.1363636363636,211.26771977952478L345.92424242424244,210.51800104586647L349.71212121212125,209.76828231220813L353.5,209.0185635785498L357.28787878787875,208.26884484489145L361.07575757575756,207.5191261112331L364.8636363636364,206.7694073775748L368.6515151515152,206.01968864391645L372.43939393939394,205.2699699102581L376.22727272727275,204.52025117659977L380.0151515151515,203.77053244294143L383.8030303030303,203.0208137092831L387.5909090909091,202.27109497562475L391.3787878787879,201.52137624196644L395.1666666666667,200.7716575083081L398.95454545454544,200.02193877464975L402.74242424242425,199.2722200409914L406.53030303030306,198.52250130733307L410.3181818181818,197.77278257367476L414.1060606060606,197.0230638400164L417.8939393939394,196.27334510635808L421.6818181818182,195.52362637269974L425.469696969697,194.7739076390414L429.25757575757575,194.02418890538306L433.04545454545456,193.27447017172472L436.8333333333333,192.5247514380664L440.6212121212121,191.77503270440806L444.40909090909093,191.02531397074972L448.1969696969697,190.27559523709138L451.9848484848485,189.52587650343304L455.7727272727273,188.77615776977473L459.56060606060606,188.02643903611636L463.3484848484849,187.27672030245805L467.1363636363636,186.52700156879968L470.92424242424244,185.77728283514136L474.71212121212125,185.027564101483L478.5,184.27784536782468L478.5,258.5Z" stroke="none" stroke-width="0" fill-opacity="0.3" fill="#3366cc"></path></g><g><path d="M103.5,258.5L103.5,258.5L107.28787878787878,257.34749969461586L111.07575757575758,256.1949993892317L114.86363636363636,255.04249908384756L118.65151515151516,253.88999877846342L122.43939393939394,252.73749847307926L126.22727272727272,251.58499816769512L130.0151515151515,250.43249786231098L133.8030303030303,249.27999755692684L137.5909090909091,248.12749725154268L141.37878787878788,246.97499694615854L145.16666666666666,245.82249664077438L148.95454545454544,244.66999633539024L152.74242424242425,243.5174960300061L156.53030303030303,242.36499572462196L160.3181818181818,241.2124954192378L164.10606060606062,240.05999511385366L167.89393939393938,238.90749480846952L171.6818181818182,237.75499450308536L175.46969696969697,236.60249419770122L179.25757575757575,235.44999389231708L183.04545454545456,234.29749358693292L186.83333333333331,233.14499328154878L190.62121212121212,231.99249297616464L194.4090909090909,230.83999267078048L198.1969696969697,229.68749236539634L201.9848484848485,228.5349920600122L205.77272727272728,227.38249175462806L209.56060606060606,226.2299914492439L213.34848484848487,225.07749114385976L217.13636363636363,223.9249908384756L220.92424242424244,222.77249053309146L224.71212121212122,221.61999022770732L228.5,220.46748992232318L232.28787878787878,219.31498961693902L236.0757575757576,218.16248931155488L239.86363636363637,217.00998900617074L243.65151515151516,215.85748870078658L247.43939393939394,214.70498839540244L251.22727272727272,213.5524880900183L255.01515151515153,212.39998778463416L258.8030303030303,211.24748747925L262.5909090909091,210.09498717386583L266.3787878787879,208.9424868684817L270.16666666666663,207.78998656309756L273.9545454545455,206.63748625771342L277.74242424242425,205.48498595232928L281.530303030303,204.33248564694512L285.3181818181818,203.17998534156098L289.1060606060606,202.0274850361768L292.8939393939394,200.87498473079268L296.6818181818182,199.72248442540854L300.469696969697,198.56998412002437L304.25757575757575,197.41748381464024L308.04545454545456,196.2649835092561L311.83333333333337,195.11248320387193L315.6212121212121,193.9599828984878L319.4090909090909,192.80748259310366L323.19696969696975,191.65498228771952L326.9848484848485,190.50248198233538L330.77272727272725,189.34998167695122L334.56060606060606,188.19748137156708L338.3484848484849,187.0449810661829L342.1363636363636,185.89248076079878L345.92424242424244,184.73998045541464L349.71212121212125,183.5874801500305L353.5,182.43497984464634L357.28787878787875,181.28247953926217L361.07575757575756,180.12997923387803L364.8636363636364,178.9774789284939L368.6515151515152,177.82497862310976L372.43939393939394,176.67247831772562L376.22727272727275,175.51997801234148L380.0151515151515,174.3674777069573L383.8030303030303,173.21497740157318L387.5909090909091,172.062477096189L391.3787878787879,170.90997679080488L395.1666666666667,169.75747648542074L398.95454545454544,168.6049761800366L402.74242424242425,167.4524758746524L406.53030303030306,166.2999755692683L410.3181818181818,165.14747526388413L414.1060606060606,163.9949749585L417.8939393939394,162.84247465311586L421.6818181818182,161.6899743477317L425.469696969697,160.53747404234755L429.25757575757575,159.38497373696342L433.04545454545456,158.23247343157925L436.8333333333333,157.0799731261951L440.6212121212121,155.92747282081098L444.40909090909093,154.77497251542684L448.1969696969697,153.62247221004267L451.9848484848485,152.46997190465854L455.7727272727273,151.31747159927437L459.56060606060606,150.16497129389023L463.3484848484849,149.0124709885061L467.1363636363636,147.85997068312196L470.92424242424244,146.70747037773782L474.71212121212125,145.55497007235365L478.5,144.4024697669695L478.5,258.5Z" stroke="none" stroke-width="0" fill-opacity="0.3" fill="#dc3912"></path></g><g><path d="M103.5,258.5L103.5,258.5L107.28787878787878,256.7712495419238L111.07575757575758,255.04249908384756L114.86363636363636,253.31374862577135L118.65151515151516,251.58499816769512L122.43939393939394,249.8562477096189L126.22727272727272,248.12749725154268L130.0151515151515,246.39874679346647L133.8030303030303,244.66999633539024L137.5909090909091,242.94124587731403L141.37878787878788,241.2124954192378L145.16666666666666,239.4837449611616L148.95454545454544,237.75499450308536L152.74242424242425,236.02624404500915L156.53030303030303,234.29749358693292L160.3181818181818,232.5687431288567L164.10606060606062,230.83999267078048L167.89393939393938,229.11124221270427L171.6818181818182,227.38249175462803L175.46969696969697,225.65374129655183L179.25757575757575,223.9249908384756L183.04545454545456,222.1962403803994L186.83333333333331,220.46748992232315L190.62121212121212,218.73873946424695L194.4090909090909,217.0099890061707L198.1969696969697,215.2812385480945L201.9848484848485,213.5524880900183L205.77272727272728,211.82373763194207L209.56060606060606,210.09498717386583L213.34848484848487,208.36623671578963L217.13636363636363,206.63748625771342L220.92424242424244,204.90873579963718L224.71212121212122,203.17998534156098L228.5,201.45123488348474L232.28787878787878,199.72248442540854L236.0757575757576,197.99373396733233L239.86363636363637,196.2649835092561L243.65151515151516,194.53623305117986L247.43939393939394,192.80748259310366L251.22727272727272,191.07873213502742L255.01515151515153,189.34998167695122L258.8030303030303,187.62123121887498L262.5909090909091,185.89248076079878L266.3787878787879,184.16373030272257L270.16666666666663,182.4349798446463L273.9545454545455,180.7062293865701L277.74242424242425,178.9774789284939L281.530303030303,177.2487284704177L285.3181818181818,175.51997801234145L289.1060606060606,173.79122755426522L292.8939393939394,172.062477096189L296.6818181818182,170.3337266381128L300.469696969697,168.60497618003657L304.25757575757575,166.87622572196037L308.04545454545456,165.14747526388413L311.83333333333337,163.41872480580793L315.6212121212121,161.6899743477317L319.4090909090909,159.96122388965546L323.19696969696975,158.23247343157925L326.9848484848485,156.50372297350305L330.77272727272725,154.77497251542684L334.56060606060606,153.04622205735058L338.3484848484849,151.31747159927437L342.1363636363636,149.58872114119816L345.92424242424244,147.85997068312196L349.71212121212125,146.13122022504572L353.5,144.4024697669695L357.28787878787875,142.67371930889328L361.07575757575756,140.94496885081708L364.8636363636364,139.21621839274084L368.6515151515152,137.48746793466464L372.43939393939394,135.7587174765884L376.22727272727275,134.0299670185122L380.0151515151515,132.30121656043596L383.8030303030303,130.57246610235973L387.5909090909091,128.84371564428352L391.3787878787879,127.11496518620731L395.1666666666667,125.38621472813108L398.95454545454544,123.65746427005485L402.74242424242425,121.92871381197867L406.53030303030306,120.19996335390243L410.3181818181818,118.4712128958262L414.1060606060606,116.74246243774999L417.8939393939394,115.01371197967379L421.6818181818182,113.28496152159755L425.469696969697,111.55621106352132L429.25757575757575,109.82746060544511L433.04545454545456,108.0987101473689L436.8333333333333,106.36995968929264L440.6212121212121,104.64120923121646L444.40909090909093,102.91245877314023L448.1969696969697,101.18370831506402L451.9848484848485,99.45495785698776L455.7727272727273,97.72620739891158L459.56060606060606,95.99745694083535L463.3484848484849,94.26870648275914L467.1363636363636,92.53995602468291L470.92424242424244,90.8112055666067L474.71212121212125,89.08245510853047L478.5,87.35370465045429L478.5,258.5Z" stroke="none" stroke-width="0" fill-opacity="0.3" fill="#ff9900"></path></g></g><g><rect x="103" y="61" width="1" height="198" stroke="none" stroke-width="0" fill="#333333"></rect><rect x="103" y="258" width="376" height="1" stroke="none" stroke-width="0" fill="#333333"></rect></g><g><path d="M103.5,258.5L107.28787878787878,257.7502812663417L111.07575757575758,257.0005625326833L114.86363636363636,256.250843799025L118.65151515151516,255.50112506536667L122.43939393939394,254.75140633170832L126.22727272727272,254.00168759804998L130.0151515151515,253.25196886439164L133.8030303030303,252.5022501307333L137.5909090909091,251.75253139707496L141.37878787878788,251.00281266341665L145.16666666666666,250.2530939297583L148.95454545454544,249.50337519609997L152.74242424242425,248.75365646244163L156.53030303030303,248.00393772878328L160.3181818181818,247.25421899512494L164.10606060606062,246.5045002614666L167.89393939393938,245.7547815278083L171.6818181818182,245.00506279414995L175.46969696969697,244.2553440604916L179.25757575757575,243.50562532683327L183.04545454545456,242.75590659317493L186.83333333333331,242.0061878595166L190.62121212121212,241.25646912585825L194.4090909090909,240.50675039219993L198.1969696969697,239.7570316585416L201.9848484848485,239.00731292488325L205.77272727272728,238.2575941912249L209.56060606060606,237.50787545756657L213.34848484848487,236.75815672390823L217.13636363636363,236.0084379902499L220.92424242424244,235.25871925659158L224.71212121212122,234.50900052293323L228.5,233.7592817892749L232.28787878787878,233.00956305561655L236.0757575757576,232.2598443219582L239.86363636363637,231.5101255882999L243.65151515151516,230.76040685464156L247.43939393939394,230.01068812098322L251.22727272727272,229.26096938732488L255.01515151515153,228.51125065366654L258.8030303030303,227.7615319200082L262.5909090909091,227.01181318634985L266.3787878787879,226.26209445269154L270.16666666666663,225.5123757190332L273.9545454545455,224.76265698537486L277.74242424242425,224.01293825171652L281.530303030303,223.26321951805818L285.3181818181818,222.51350078439984L289.1060606060606,221.7637820507415L292.8939393939394,221.01406331708318L296.6818181818182,220.26434458342484L300.469696969697,219.5146258497665L304.25757575757575,218.76490711610816L308.04545454545456,218.01518838244982L311.83333333333337,217.2654696487915L315.6212121212121,216.51575091513314L319.4090909090909,215.76603218147483L323.19696969696975,215.0163134478165L326.9848484848485,214.26659471415815L330.77272727272725,213.5168759804998L334.56060606060606,212.76715724684146L338.3484848484849,212.01743851318312L342.1363636363636,211.26771977952478L345.92424242424244,210.51800104586647L349.71212121212125,209.76828231220813L353.5,209.0185635785498L357.28787878787875,208.26884484489145L361.07575757575756,207.5191261112331L364.8636363636364,206.7694073775748L368.6515151515152,206.01968864391645L372.43939393939394,205.2699699102581L376.22727272727275,204.52025117659977L380.0151515151515,203.77053244294143L383.8030303030303,203.0208137092831L387.5909090909091,202.27109497562475L391.3787878787879,201.52137624196644L395.1666666666667,200.7716575083081L398.95454545454544,200.02193877464975L402.74242424242425,199.2722200409914L406.53030303030306,198.52250130733307L410.3181818181818,197.77278257367476L414.1060606060606,197.0230638400164L417.8939393939394,196.27334510635808L421.6818181818182,195.52362637269974L425.469696969697,194.7739076390414L429.25757575757575,194.02418890538306L433.04545454545456,193.27447017172472L436.8333333333333,192.5247514380664L440.6212121212121,191.77503270440806L444.40909090909093,191.02531397074972L448.1969696969697,190.27559523709138L451.9848484848485,189.52587650343304L455.7727272727273,188.77615776977473L459.56060606060606,188.02643903611636L463.3484848484849,187.27672030245805L467.1363636363636,186.52700156879968L470.92424242424244,185.77728283514136L474.71212121212125,185.027564101483L478.5,184.27784536782468" stroke="#3366cc" stroke-width="2" fill-opacity="1" fill="none"></path><path d="M103.5,258.5L107.28787878787878,257.34749969461586L111.07575757575758,256.1949993892317L114.86363636363636,255.04249908384756L118.65151515151516,253.88999877846342L122.43939393939394,252.73749847307926L126.22727272727272,251.58499816769512L130.0151515151515,250.43249786231098L133.8030303030303,249.27999755692684L137.5909090909091,248.12749725154268L141.37878787878788,246.97499694615854L145.16666666666666,245.82249664077438L148.95454545454544,244.66999633539024L152.74242424242425,243.5174960300061L156.53030303030303,242.36499572462196L160.3181818181818,241.2124954192378L164.10606060606062,240.05999511385366L167.89393939393938,238.90749480846952L171.6818181818182,237.75499450308536L175.46969696969697,236.60249419770122L179.25757575757575,235.44999389231708L183.04545454545456,234.29749358693292L186.83333333333331,233.14499328154878L190.62121212121212,231.99249297616464L194.4090909090909,230.83999267078048L198.1969696969697,229.68749236539634L201.9848484848485,228.5349920600122L205.77272727272728,227.38249175462806L209.56060606060606,226.2299914492439L213.34848484848487,225.07749114385976L217.13636363636363,223.9249908384756L220.92424242424244,222.77249053309146L224.71212121212122,221.61999022770732L228.5,220.46748992232318L232.28787878787878,219.31498961693902L236.0757575757576,218.16248931155488L239.86363636363637,217.00998900617074L243.65151515151516,215.85748870078658L247.43939393939394,214.70498839540244L251.22727272727272,213.5524880900183L255.01515151515153,212.39998778463416L258.8030303030303,211.24748747925L262.5909090909091,210.09498717386583L266.3787878787879,208.9424868684817L270.16666666666663,207.78998656309756L273.9545454545455,206.63748625771342L277.74242424242425,205.48498595232928L281.530303030303,204.33248564694512L285.3181818181818,203.17998534156098L289.1060606060606,202.0274850361768L292.8939393939394,200.87498473079268L296.6818181818182,199.72248442540854L300.469696969697,198.56998412002437L304.25757575757575,197.41748381464024L308.04545454545456,196.2649835092561L311.83333333333337,195.11248320387193L315.6212121212121,193.9599828984878L319.4090909090909,192.80748259310366L323.19696969696975,191.65498228771952L326.9848484848485,190.50248198233538L330.77272727272725,189.34998167695122L334.56060606060606,188.19748137156708L338.3484848484849,187.0449810661829L342.1363636363636,185.89248076079878L345.92424242424244,184.73998045541464L349.71212121212125,183.5874801500305L353.5,182.43497984464634L357.28787878787875,181.28247953926217L361.07575757575756,180.12997923387803L364.8636363636364,178.9774789284939L368.6515151515152,177.82497862310976L372.43939393939394,176.67247831772562L376.22727272727275,175.51997801234148L380.0151515151515,174.3674777069573L383.8030303030303,173.21497740157318L387.5909090909091,172.062477096189L391.3787878787879,170.90997679080488L395.1666666666667,169.75747648542074L398.95454545454544,168.6049761800366L402.74242424242425,167.4524758746524L406.53030303030306,166.2999755692683L410.3181818181818,165.14747526388413L414.1060606060606,163.9949749585L417.8939393939394,162.84247465311586L421.6818181818182,161.6899743477317L425.469696969697,160.53747404234755L429.25757575757575,159.38497373696342L433.04545454545456,158.23247343157925L436.8333333333333,157.0799731261951L440.6212121212121,155.92747282081098L444.40909090909093,154.77497251542684L448.1969696969697,153.62247221004267L451.9848484848485,152.46997190465854L455.7727272727273,151.31747159927437L459.56060606060606,150.16497129389023L463.3484848484849,149.0124709885061L467.1363636363636,147.85997068312196L470.92424242424244,146.70747037773782L474.71212121212125,145.55497007235365L478.5,144.4024697669695" stroke="#dc3912" stroke-width="2" fill-opacity="1" fill="none"></path><path d="M103.5,258.5L107.28787878787878,256.7712495419238L111.07575757575758,255.04249908384756L114.86363636363636,253.31374862577135L118.65151515151516,251.58499816769512L122.43939393939394,249.8562477096189L126.22727272727272,248.12749725154268L130.0151515151515,246.39874679346647L133.8030303030303,244.66999633539024L137.5909090909091,242.94124587731403L141.37878787878788,241.2124954192378L145.16666666666666,239.4837449611616L148.95454545454544,237.75499450308536L152.74242424242425,236.02624404500915L156.53030303030303,234.29749358693292L160.3181818181818,232.5687431288567L164.10606060606062,230.83999267078048L167.89393939393938,229.11124221270427L171.6818181818182,227.38249175462803L175.46969696969697,225.65374129655183L179.25757575757575,223.9249908384756L183.04545454545456,222.1962403803994L186.83333333333331,220.46748992232315L190.62121212121212,218.73873946424695L194.4090909090909,217.0099890061707L198.1969696969697,215.2812385480945L201.9848484848485,213.5524880900183L205.77272727272728,211.82373763194207L209.56060606060606,210.09498717386583L213.34848484848487,208.36623671578963L217.13636363636363,206.63748625771342L220.92424242424244,204.90873579963718L224.71212121212122,203.17998534156098L228.5,201.45123488348474L232.28787878787878,199.72248442540854L236.0757575757576,197.99373396733233L239.86363636363637,196.2649835092561L243.65151515151516,194.53623305117986L247.43939393939394,192.80748259310366L251.22727272727272,191.07873213502742L255.01515151515153,189.34998167695122L258.8030303030303,187.62123121887498L262.5909090909091,185.89248076079878L266.3787878787879,184.16373030272257L270.16666666666663,182.4349798446463L273.9545454545455,180.7062293865701L277.74242424242425,178.9774789284939L281.530303030303,177.2487284704177L285.3181818181818,175.51997801234145L289.1060606060606,173.79122755426522L292.8939393939394,172.062477096189L296.6818181818182,170.3337266381128L300.469696969697,168.60497618003657L304.25757575757575,166.87622572196037L308.04545454545456,165.14747526388413L311.83333333333337,163.41872480580793L315.6212121212121,161.6899743477317L319.4090909090909,159.96122388965546L323.19696969696975,158.23247343157925L326.9848484848485,156.50372297350305L330.77272727272725,154.77497251542684L334.56060606060606,153.04622205735058L338.3484848484849,151.31747159927437L342.1363636363636,149.58872114119816L345.92424242424244,147.85997068312196L349.71212121212125,146.13122022504572L353.5,144.4024697669695L357.28787878787875,142.67371930889328L361.07575757575756,140.94496885081708L364.8636363636364,139.21621839274084L368.6515151515152,137.48746793466464L372.43939393939394,135.7587174765884L376.22727272727275,134.0299670185122L380.0151515151515,132.30121656043596L383.8030303030303,130.57246610235973L387.5909090909091,128.84371564428352L391.3787878787879,127.11496518620731L395.1666666666667,125.38621472813108L398.95454545454544,123.65746427005485L402.74242424242425,121.92871381197867L406.53030303030306,120.19996335390243L410.3181818181818,118.4712128958262L414.1060606060606,116.74246243774999L417.8939393939394,115.01371197967379L421.6818181818182,113.28496152159755L425.469696969697,111.55621106352132L429.25757575757575,109.82746060544511L433.04545454545456,108.0987101473689L436.8333333333333,106.36995968929264L440.6212121212121,104.64120923121646L444.40909090909093,102.91245877314023L448.1969696969697,101.18370831506402L451.9848484848485,99.45495785698776L455.7727272727273,97.72620739891158L459.56060606060606,95.99745694083535L463.3484848484849,94.26870648275914L467.1363636363636,92.53995602468291L470.92424242424244,90.8112055666067L474.71212121212125,89.08245510853047L478.5,87.35370465045429" stroke="#ff9900" stroke-width="2" fill-opacity="1" fill="none"></path></g></g><g></g><g><g><text text-anchor="middle" x="103.5" y="276.2" font-family="Arial" font-size="12" stroke="none" stroke-width="0" fill="#444444">0</text></g><g><text text-anchor="middle" x="179.25757575757575" y="276.2" font-family="Arial" font-size="12" stroke="none" stroke-width="0" fill="#444444">20000</text></g><g><text text-anchor="middle" x="255.01515151515153" y="276.2" font-family="Arial" font-size="12" stroke="none" stroke-width="0" fill="#444444">40000</text></g><g><text text-anchor="middle" x="330.77272727272725" y="276.2" font-family="Arial" font-size="12" stroke="none" stroke-width="0" fill="#444444">60000</text></g><g><text text-anchor="middle" x="406.53030303030306" y="276.2" font-family="Arial" font-size="12" stroke="none" stroke-width="0" fill="#444444">80000</text></g><g><text text-anchor="end" x="91" y="262.7" font-family="Arial" font-size="12" stroke="none" stroke-width="0" fill="#444444">0</text></g><g><text text-anchor="end" x="91" y="213.45" font-family="Arial" font-size="12" stroke="none" stroke-width="0" fill="#444444">50</text></g><g><text text-anchor="end" x="91" y="164.2" font-family="Arial" font-size="12" stroke="none" stroke-width="0" fill="#444444">100</text></g><g><text text-anchor="end" x="91" y="114.95" font-family="Arial" font-size="12" stroke="none" stroke-width="0" fill="#444444">150</text></g><g><text text-anchor="end" x="91" y="65.7" font-family="Arial" font-size="12" stroke="none" stroke-width="0" fill="#444444">200</text></g></g></g><g><g><text text-anchor="middle" x="291" y="303.2" font-family="Arial" font-size="12" font-style="italic" stroke="none" stroke-width="0" fill="#222222">n</text></g><g><text text-anchor="middle" x="39.2" y="160" font-family="Arial" font-size="12" font-style="italic" transform="rotate(-90 39.2 160)" stroke="none" stroke-width="0" fill="#222222">m (kilobytes)</text></g></g><g></g></svg>
