<?xml version="1.0" standalone="yes"?>

<svg version="1.1" viewBox="0.0 0.0 1152.0 864.0" fill="none" stroke="none" stroke-linecap="square" stroke-miterlimit="10" xmlns="http://www.w3.org/2000/svg" xmlns:xlink="http://www.w3.org/1999/xlink"><clipPath id="p.0"><path d="m0 0l1152.0 0l0 864.0l-1152.0 0l0 -864.0z" clip-rule="nonzero"></path></clipPath><g clip-path="url(#p.0)"><path fill="#000000" fill-opacity="0.0" d="m0 0l1152.0 0l0 864.0l-1152.0 0z" fill-rule="nonzero"></path><path fill="#000000" fill-opacity="0.0" d="m550.3753 16.874016l434.11023 0l0 516.3779l-434.11023 0z" fill-rule="nonzero"></path><path stroke="#515151" stroke-width="2.0" stroke-linejoin="round" stroke-linecap="butt" stroke-dasharray="8.0,6.0" d="m550.3753 16.874016l434.11023 0l0 516.3779l-434.11023 0z" fill-rule="nonzero"></path><path fill="#515151" d="m740.28784 516.5488q1.578125 1.09375 2.921875 1.59375l-0.671875 1.59375q-1.859375 -0.671875 -3.6875 -2.125q-1.921875 1.078125 -4.21875 1.078125q-2.34375 0 -4.25 -1.125q-1.890625 -1.125 -2.921875 -3.15625q-1.015625 -2.046875 -1.015625 -4.6093445q0 -2.546875 1.03125 -4.625q1.03125 -2.09375 2.9375 -3.171875q1.90625 -1.09375 4.265625 -1.09375q2.375 0 4.28125 1.140625q1.90625 1.125 2.90625 3.15625q1.015625 2.03125 1.015625 4.578125q0 2.125 -0.65625 3.8280945q-0.640625 1.6875 -1.9375 2.9375zm-5.0 -2.90625q1.96875 0.546875 3.234375 1.640625q2.015625 -1.828125 2.015625 -5.4999695q0 -2.078125 -0.71875 -3.640625q-0.703125 -1.5625 -2.078125 -2.421875q-1.359375 -0.859375 -3.0625 -0.859375q-2.53125 0 -4.21875 1.75q-1.671875 1.734375 -1.671875 5.1875q0 3.3593445 1.65625 5.1562195q1.65625 1.78125 4.234375 1.78125q1.21875 0 2.296875 -0.453125q-1.0625 -0.6875 -2.25 -0.984375l0.5625 -1.65625zm18.527344 4.75l0 -1.828125q-1.453125 2.109375 -3.9375 2.109375q-1.109375 0 -2.0625 -0.421875q-0.953125 -0.421875 -1.421875 -1.0625q-0.453125 -0.640625 -0.640625 -1.5625q-0.140625 -0.625 -0.140625 -1.96875l0 -7.7187195l2.109375 0l0 6.9062195q0 1.65625 0.140625 2.234375q0.1875 0.828125 0.828125 1.3125q0.65625 0.46875 1.609375 0.46875q0.9375 0 1.765625 -0.484375q0.84375 -0.5 1.1875 -1.328125q0.34375 -0.84375 0.34375 -2.4375l0 -6.6718445l2.109375 0l0 12.4530945l-1.890625 0zm13.722656 -4.015625l2.171875 0.28125q-0.515625 1.90625 -1.90625 2.96875q-1.390625 1.046875 -3.5625 1.046875q-2.734375 0 -4.34375 -1.671875q-1.59375 -1.6875 -1.59375 -4.734375q0 -3.1405945 1.609375 -4.8749695q1.625 -1.734375 4.203125 -1.734375q2.5 0 4.078125 1.703125q1.59375 1.703125 1.59375 4.7812195q0 0.1875 -0.015625 0.5625l-9.28125 0q0.109375 2.046875 1.15625 3.140625q1.046875 1.09375 2.609375 1.09375q1.15625 0 1.96875 -0.609375q0.828125 -0.609375 1.3125 -1.953125zm-6.9375 -3.4062195l6.953125 0q-0.140625 -1.5625 -0.796875 -2.359375q-1.0 -1.21875 -2.609375 -1.21875q-1.453125 0 -2.453125 0.984375q-0.984375 0.96875 -1.09375 2.59375zm11.738281 7.4218445l0 -12.4530945l1.890625 0l0 1.890625q0.734375 -1.328125 1.34375 -1.75q0.625 -0.421875 1.359375 -0.421875q1.0625 0 2.171875 0.6875l-0.734375 1.953125q-0.765625 -0.453125 -1.546875 -0.453125q-0.6875 0 -1.25 0.421875q-0.546875 0.40625 -0.78125 1.140625q-0.34375 1.125 -0.34375 2.46875l0 6.5155945l-2.109375 0zm8.0234375 -14.7499695l0 -2.4375l2.109375 0l0 2.4375l-2.109375 0zm0 14.7499695l0 -12.4530945l2.109375 0l0 12.4530945l-2.109375 0zm13.847656 -4.015625l2.171875 0.28125q-0.515625 1.90625 -1.90625 2.96875q-1.390625 1.046875 -3.5625 1.046875q-2.734375 0 -4.34375 -1.671875q-1.59375 -1.6875 -1.59375 -4.734375q0 -3.1405945 1.609375 -4.8749695q1.625 -1.734375 4.203125 -1.734375q2.5 0 4.078125 1.703125q1.59375 1.703125 1.59375 4.7812195q0 0.1875 -0.015625 0.5625l-9.28125 0q0.109375 2.046875 1.15625 3.140625q1.046875 1.09375 2.609375 1.09375q1.15625 0 1.96875 -0.609375q0.828125 -0.609375 1.3125 -1.953125zm-6.9375 -3.4062195l6.953125 0q-0.140625 -1.5625 -0.796875 -2.359375q-1.0 -1.21875 -2.609375 -1.21875q-1.453125 0 -2.453125 0.984375q-0.984375 0.96875 -1.09375 2.59375zm10.910156 3.7030945l2.09375 -0.328125q0.171875 1.25 0.96875 1.921875q0.8125 0.671875 2.25 0.671875q1.453125 0 2.15625 -0.59375q0.703125 -0.59375 0.703125 -1.390625q0 -0.71875 -0.625 -1.125q-0.421875 -0.28125 -2.15625 -0.71875q-2.3125 -0.578125 -3.21875 -1.0q-0.890625 -0.43746948 -1.359375 -1.1874695q-0.453125 -0.765625 -0.453125 -1.671875q0 -0.828125 0.375 -1.53125q0.390625 -0.71875 1.046875 -1.1875q0.484375 -0.359375 1.328125 -0.609375q0.859375 -0.265625 1.828125 -0.265625q1.46875 0 2.578125 0.421875q1.109375 0.421875 1.625 1.15625q0.53125 0.71875 0.734375 1.921875l-2.0625 0.28125q-0.140625 -0.96875 -0.8125 -1.5q-0.671875 -0.546875 -1.90625 -0.546875q-1.453125 0 -2.078125 0.484375q-0.625 0.484375 -0.625 1.125q0 0.40625 0.265625 0.734375q0.25 0.34375 0.8125 0.5625q0.3125 0.125 1.859375 0.546875q2.234375 0.59375 3.109375 0.984375q0.890625 0.37496948 1.390625 1.1093445q0.515625 0.71875 0.515625 1.796875q0 1.046875 -0.625 1.984375q-0.609375 0.9375 -1.765625 1.453125q-1.15625 0.5 -2.625 0.5q-2.421875 0 -3.703125 -1.0q-1.265625 -1.015625 -1.625 -3.0z" fill-rule="nonzero"></path><path fill="#000000" fill-opacity="0.0" d="m128.24934 16.874016l382.6142 0l0 516.3779l-382.6142 0z" fill-rule="nonzero"></path><path stroke="#515151" stroke-width="2.0" stroke-linejoin="round" stroke-linecap="butt" stroke-dasharray="8.0,6.0" d="m128.24934 16.874016l382.6142 0l0 516.3779l-382.6142 0z" fill-rule="nonzero"></path><path fill="#515151" d="m287.9861 501.2051l2.28125 0l0 9.9375q0 2.5780945 -0.59375 4.1093445q-0.578125 1.515625 -2.109375 2.484375q-1.53125 0.953125 -4.015625 0.953125q-2.421875 0 -3.953125 -0.828125q-1.53125 -0.84375 -2.1875 -2.421875q-0.65625 -1.578125 -0.65625 -4.2968445l0 -9.9375l2.265625 0l0 9.921875q0 2.2343445 0.421875 3.2968445q0.421875 1.0625 1.421875 1.640625q1.015625 0.5625 2.484375 0.5625q2.515625 0 3.578125 -1.125q1.0625 -1.140625 1.0625 -4.3749695l0 -9.921875zm5.7851562 21.953094l0 -17.21872l1.921875 0l0 1.625q0.6875 -0.953125 1.53125 -1.421875q0.859375 -0.484375 2.078125 -0.484375q1.59375 0 2.8125 0.828125q1.21875 0.8125 1.84375 2.3125q0.625 1.5 0.625 3.2812195q0 1.90625 -0.6875 3.4375q-0.6875 1.53125 -2.0 2.34375q-1.296875 0.8125 -2.734375 0.8125q-1.0625 0 -1.90625 -0.4375q-0.828125 -0.453125 -1.375 -1.140625l0 6.0625l-2.109375 0zm1.921875 -10.921875q0 2.40625 0.96875 3.5625q0.96875 1.140625 2.359375 1.140625q1.40625 0 2.40625 -1.1875q1.0 -1.1875 1.0 -3.6875q0 -2.3749695 -0.984375 -3.5624695q-0.96875 -1.1875 -2.328125 -1.1875q-1.359375 0 -2.390625 1.265625q-1.03125 1.25 -1.03125 3.6562195zm19.503906 6.15625l0 -1.578125q-1.1875 1.859375 -3.484375 1.859375q-1.484375 0 -2.734375 -0.8125q-1.25 -0.828125 -1.9375 -2.296875q-0.671875 -1.46875 -0.671875 -3.390625q0 -1.8593445 0.609375 -3.3749695q0.625 -1.515625 1.859375 -2.328125q1.25 -0.8125 2.78125 -0.8125q1.125 0 2.0 0.484375q0.890625 0.46875 1.4375 1.234375l0 -6.171875l2.09375 0l0 17.18747l-1.953125 0zm-6.671875 -6.21875q0 2.390625 1.0 3.578125q1.015625 1.1875 2.390625 1.1875q1.390625 0 2.34375 -1.125q0.96875 -1.140625 0.96875 -3.453125q0 -2.5624695 -0.984375 -3.7499695q-0.984375 -1.203125 -2.421875 -1.203125q-1.40625 0 -2.359375 1.15625q-0.9375 1.140625 -0.9375 3.6093445zm20.066406 4.6875q-1.171875 0.984375 -2.265625 1.40625q-1.078125 0.40625 -2.3125 0.40625q-2.046875 0 -3.15625 -1.0q-1.09375 -1.0 -1.09375 -2.5625q0 -0.921875 0.40625 -1.671875q0.421875 -0.75 1.09375 -1.203125q0.671875 -0.46871948 1.515625 -0.7030945q0.625 -0.15625 1.875 -0.3125q2.5625 -0.3125 3.765625 -0.734375q0.015625 -0.421875 0.015625 -0.546875q0 -1.28125 -0.609375 -1.8125q-0.796875 -0.71875 -2.390625 -0.71875q-1.5 0 -2.203125 0.53125q-0.703125 0.515625 -1.046875 1.84375l-2.0625 -0.28125q0.28125 -1.328125 0.921875 -2.140625q0.640625 -0.8125 1.859375 -1.25q1.21875 -0.453125 2.828125 -0.453125q1.59375 0 2.59375 0.375q1.0 0.375 1.46875 0.953125q0.46875 0.5625 0.65625 1.4375q0.09375 0.53125 0.09375 1.9375l0 2.8124695q0 2.9375 0.140625 3.71875q0.140625 0.78125 0.53125 1.5l-2.203125 0q-0.328125 -0.65625 -0.421875 -1.53125zm-0.171875 -4.71875q-1.15625 0.46875 -3.453125 0.796875q-1.296875 0.1875 -1.84375 0.421875q-0.53125 0.234375 -0.828125 0.6875q-0.28125 0.453125 -0.28125 1.0q0 0.84375 0.625 1.40625q0.640625 0.5625 1.875 0.5625q1.21875 0 2.171875 -0.53125q0.953125 -0.53125 1.390625 -1.453125q0.34375 -0.71875 0.34375 -2.109375l0 -0.78125zm10.003906 4.359375l0.3125 1.859375q-0.890625 0.203125 -1.59375 0.203125q-1.15625 0 -1.796875 -0.359375q-0.625 -0.375 -0.890625 -0.96875q-0.25 -0.59375 -0.25 -2.484375l0 -7.1718445l-1.546875 0l0 -1.640625l1.546875 0l0 -3.078125l2.09375 -1.265625l0 4.34375l2.125 0l0 1.640625l-2.125 0l0 7.2812195q0 0.90625 0.109375 1.171875q0.125 0.25 0.375 0.40625q0.25 0.140625 0.71875 0.140625q0.34375 0 0.921875 -0.078125zm10.589844 -2.125l2.171875 0.28125q-0.515625 1.90625 -1.90625 2.96875q-1.390625 1.046875 -3.5625 1.046875q-2.734375 0 -4.34375 -1.671875q-1.59375 -1.6875 -1.59375 -4.734375q0 -3.1405945 1.609375 -4.8749695q1.625 -1.734375 4.203125 -1.734375q2.5 0 4.078125 1.703125q1.59375 1.703125 1.59375 4.7812195q0 0.1875 -0.015625 0.5625l-9.28125 0q0.109375 2.046875 1.15625 3.140625q1.046875 1.09375 2.609375 1.09375q1.15625 0 1.96875 -0.609375q0.828125 -0.609375 1.3125 -1.953125zm-6.9375 -3.4062195l6.953125 0q-0.140625 -1.5625 -0.796875 -2.359375q-1.0 -1.21875 -2.609375 -1.21875q-1.453125 0 -2.453125 0.984375q-0.984375 0.96875 -1.09375 2.59375zm10.910156 3.7030945l2.09375 -0.328125q0.171875 1.25 0.96875 1.921875q0.8125 0.671875 2.25 0.671875q1.453125 0 2.15625 -0.59375q0.703125 -0.59375 0.703125 -1.390625q0 -0.71875 -0.625 -1.125q-0.421875 -0.28125 -2.15625 -0.71875q-2.3125 -0.578125 -3.21875 -1.0q-0.890625 -0.43746948 -1.359375 -1.1874695q-0.453125 -0.765625 -0.453125 -1.671875q0 -0.828125 0.375 -1.53125q0.390625 -0.71875 1.046875 -1.1875q0.484375 -0.359375 1.328125 -0.609375q0.859375 -0.265625 1.828125 -0.265625q1.46875 0 2.578125 0.421875q1.109375 0.421875 1.625 1.15625q0.53125 0.71875 0.734375 1.921875l-2.0625 0.28125q-0.140625 -0.96875 -0.8125 -1.5q-0.671875 -0.546875 -1.90625 -0.546875q-1.453125 0 -2.078125 0.484375q-0.625 0.484375 -0.625 1.125q0 0.40625 0.265625 0.734375q0.25 0.34375 0.8125 0.5625q0.3125 0.125 1.859375 0.546875q2.234375 0.59375 3.109375 0.984375q0.890625 0.37496948 1.390625 1.1093445q0.515625 0.71875 0.515625 1.796875q0 1.046875 -0.625 1.984375q-0.609375 0.9375 -1.765625 1.453125q-1.15625 0.5 -2.625 0.5q-2.421875 0 -3.703125 -1.0q-1.265625 -1.015625 -1.625 -3.0z" fill-rule="nonzero"></path><path fill="#ffffff" d="m499.68765 80.35696l57.385834 0l0 52.062996l-57.385834 0z" fill-rule="nonzero"></path><path stroke="#515151" stroke-width="1.0" stroke-linejoin="round" stroke-linecap="butt" d="m499.68765 80.35696l57.385834 0l0 52.062996l-57.385834 0z" fill-rule="nonzero"></path><path fill="#515151" d="m530.2709 112.55251l-1.671875 0l0 -10.640625q-0.59375 0.578125 -1.578125 1.15625q-0.984375 0.5625 -1.765625 0.859375l0 -1.625q1.40625 -0.65625 2.453125 -1.59375q1.046875 -0.9375 1.484375 -1.8125l1.078125 0l0 13.65625z" fill-rule="nonzero"></path><path fill="#ffffff" d="m137.69554 261.47507l0 0c0 -87.76544 29.097961 -158.91339 64.99213 -158.91339l0 0c17.236984 0 33.767975 16.742615 45.956375 46.544662c12.188385 29.802032 19.035736 70.222275 19.035736 112.36873l0 0c0 87.76544 -29.097961 158.91339 -64.99211 158.91339l0 0c-35.894165 0 -64.99213 -71.14795 -64.99213 -158.91339z" fill-rule="nonzero"></path><path stroke="#515151" stroke-width="2.0" stroke-linejoin="round" stroke-linecap="butt" d="m137.69554 261.47507l0 0c0 -87.76544 29.097961 -158.91339 64.99213 -158.91339l0 0c17.236984 0 33.767975 16.742615 45.956375 46.544662c12.188385 29.802032 19.035736 70.222275 19.035736 112.36873l0 0c0 87.76544 -29.097961 158.91339 -64.99211 158.91339l0 0c-35.894165 0 -64.99213 -71.14795 -64.99213 -158.91339z" fill-rule="nonzero"></path><path fill="#515151" d="m176.65617 194.15224l10.157471 -40.62993l41.905518 0l-10.157486 40.62993z" fill-rule="nonzero"></path><path stroke="#ffffff" stroke-width="2.0" stroke-linejoin="round" stroke-linecap="butt" d="m176.65617 194.15224l10.157471 -40.62993l41.905518 0l-10.157486 40.62993z" fill-rule="nonzero"></path><path fill="#515151" d="m221.18166 280.57797l0 0c-9.698639 6.8928223 -23.615189 7.5987244 -34.224197 1.7359924c-10.609024 -5.862732 -15.392441 -16.902588 -11.763611 -27.149673c3.62883 -10.247086 14.808609 -17.269272 27.49382 -17.269272z" fill-rule="nonzero"></path><path stroke="#ffffff" stroke-width="2.0" stroke-linejoin="round" stroke-linecap="butt" d="m221.18166 280.57797l0 0c-9.698639 6.8928223 -23.615189 7.5987244 -34.224197 1.7359924c-10.609024 -5.862732 -15.392441 -16.902588 -11.763611 -27.149673c3.62883 -10.247086 14.808609 -17.269272 27.49382 -17.269272z" fill-rule="nonzero"></path><path fill="#515151" d="m176.65617 356.04724l0 0c0 -14.376801 11.654694 -26.031494 26.031494 -26.031494c14.376801 0 26.031494 11.654694 26.031494 26.031494c0 14.376801 -11.654694 26.031494 -26.031494 26.031494c-14.376801 0 -26.031494 -11.654694 -26.031494 -26.031494z" fill-rule="nonzero"></path><path fill="#404040" d="m191.63634 348.2619c0 -1.4975891 1.2140198 -2.711609 2.711609 -2.711609c1.4975739 0 2.711609 1.2140198 2.711609 2.711609c0 1.4975891 -1.214035 2.711609 -2.711609 2.711609c-1.4975891 0 -2.711609 -1.2140198 -2.711609 -2.711609m16.679428 0c0 -1.4975891 1.214035 -2.711609 2.7116241 -2.711609c1.4975739 0 2.711609 1.2140198 2.711609 2.711609c0 1.4975891 -1.214035 2.711609 -2.711609 2.711609c-1.4975891 0 -2.7116241 -1.2140198 -2.7116241 -2.711609" fill-rule="nonzero"></path><path stroke="#ffffff" stroke-width="2.0" stroke-linejoin="round" stroke-linecap="butt" d="m191.63634 348.2619c0 -1.4975891 1.2140198 -2.711609 2.711609 -2.711609c1.4975739 0 2.711609 1.2140198 2.711609 2.711609c0 1.4975891 -1.214035 2.711609 -2.711609 2.711609c-1.4975891 0 -2.711609 -1.2140198 -2.711609 -2.711609m16.679428 0c0 -1.4975891 1.214035 -2.711609 2.7116241 -2.711609c1.4975739 0 2.711609 1.2140198 2.711609 2.711609c0 1.4975891 -1.214035 2.711609 -2.711609 2.711609c-1.4975891 0 -2.7116241 -1.2140198 -2.7116241 -2.711609" fill-rule="nonzero"></path><path fill="#000000" fill-opacity="0.0" d="m188.57843 367.39975q14.109238 9.689972 28.185532 0" fill-rule="nonzero"></path><path stroke="#ffffff" stroke-width="2.0" stroke-linejoin="round" stroke-linecap="butt" d="m188.57843 367.39975q14.109238 9.689972 28.185532 0" fill-rule="nonzero"></path><path fill="#000000" fill-opacity="0.0" d="m176.65617 356.04724l0 0c0 -14.376801 11.654694 -26.031494 26.031494 -26.031494c14.376801 0 26.031494 11.654694 26.031494 26.031494c0 14.376801 -11.654694 26.031494 -26.031494 26.031494c-14.376801 0 -26.031494 -11.654694 -26.031494 -26.031494z" fill-rule="nonzero"></path><path stroke="#ffffff" stroke-width="2.0" stroke-linejoin="round" stroke-linecap="butt" d="m176.65617 356.04724l0 0c0 -14.376801 11.654694 -26.031494 26.031494 -26.031494c14.376801 0 26.031494 11.654694 26.031494 26.031494c0 14.376801 -11.654694 26.031494 -26.031494 26.031494c-14.376801 0 -26.031494 -11.654694 -26.031494 -26.031494z" fill-rule="nonzero"></path><path fill="#ffffff" d="m499.68765 132.41995l57.385834 0l0 52.06299l-57.385834 0z" fill-rule="nonzero"></path><path stroke="#515151" stroke-width="1.0" stroke-linejoin="round" stroke-linecap="butt" d="m499.68765 132.41995l57.385834 0l0 52.06299l-57.385834 0z" fill-rule="nonzero"></path><path fill="#515151" d="m530.2709 164.61551l-1.671875 0l0 -10.640625q-0.59375 0.578125 -1.578125 1.15625q-0.984375 0.5625 -1.765625 0.859375l0 -1.625q1.40625 -0.65625 2.453125 -1.59375q1.046875 -0.9375 1.484375 -1.8125l1.078125 0l0 13.65625z" fill-rule="nonzero"></path><path fill="#ea9999" d="m499.68765 183.38058l57.385834 0l0 52.06299l-57.385834 0z" fill-rule="nonzero"></path><path stroke="#515151" stroke-width="1.0" stroke-linejoin="round" stroke-linecap="butt" d="m499.68765 183.38058l57.385834 0l0 52.06299l-57.385834 0z" fill-rule="nonzero"></path><path fill="#515151" d="m530.2709 215.57614l-1.671875 0l0 -10.640625q-0.59375 0.578125 -1.578125 1.15625q-0.984375 0.5625 -1.765625 0.859375l0 -1.625q1.40625 -0.65625 2.453125 -1.59375q1.046875 -0.9375 1.484375 -1.8125l1.078125 0l0 13.65625z" fill-rule="nonzero"></path><path fill="#ffffff" d="m499.68765 235.44357l57.385834 0l0 52.06299l-57.385834 0z" fill-rule="nonzero"></path><path stroke="#515151" stroke-width="1.0" stroke-linejoin="round" stroke-linecap="butt" d="m499.68765 235.44357l57.385834 0l0 52.06299l-57.385834 0z" fill-rule="nonzero"></path><path fill="#515151" d="m523.974 260.936q0 -2.421875 0.5 -3.890625q0.5 -1.46875 1.46875 -2.265625q0.984375 -0.796875 2.46875 -0.796875q1.09375 0 1.921875 0.4375q0.828125 0.4375 1.359375 1.28125q0.546875 0.828125 0.84375 2.015625q0.3125 1.1875 0.3125 3.21875q0 2.390625 -0.5 3.859375q-0.484375 1.46875 -1.46875 2.28125q-0.96875 0.796875 -2.46875 0.796875q-1.96875 0 -3.078125 -1.40625q-1.359375 -1.703125 -1.359375 -5.53125zm1.71875 0q0 3.34375 0.78125 4.453125q0.796875 1.109375 1.9375 1.109375q1.15625 0 1.9375 -1.109375q0.78125 -1.125 0.78125 -4.453125q0 -3.359375 -0.78125 -4.46875q-0.78125 -1.109375 -1.953125 -1.109375q-1.15625 0 -1.828125 0.984375q-0.875 1.234375 -0.875 4.59375z" fill-rule="nonzero"></path><path fill="#ffffff" d="m499.68765 286.4042l57.385834 0l0 52.06299l-57.385834 0z" fill-rule="nonzero"></path><path stroke="#515151" stroke-width="1.0" stroke-linejoin="round" stroke-linecap="butt" d="m499.68765 286.4042l57.385834 0l0 52.06299l-57.385834 0z" fill-rule="nonzero"></path><path fill="#515151" d="m523.974 311.89664q0 -2.421875 0.5 -3.890625q0.5 -1.46875 1.46875 -2.265625q0.984375 -0.796875 2.46875 -0.796875q1.09375 0 1.921875 0.4375q0.828125 0.4375 1.359375 1.28125q0.546875 0.828125 0.84375 2.015625q0.3125 1.1875 0.3125 3.21875q0 2.390625 -0.5 3.859375q-0.484375 1.46875 -1.46875 2.28125q-0.96875 0.796875 -2.46875 0.796875q-1.96875 0 -3.078125 -1.40625q-1.359375 -1.703125 -1.359375 -5.53125zm1.71875 0q0 3.34375 0.78125 4.453125q0.796875 1.109375 1.9375 1.109375q1.15625 0 1.9375 -1.109375q0.78125 -1.125 0.78125 -4.453125q0 -3.359375 -0.78125 -4.46875q-0.78125 -1.109375 -1.953125 -1.109375q-1.15625 0 -1.828125 0.984375q-0.875 1.234375 -0.875 4.59375z" fill-rule="nonzero"></path><path fill="#ffffff" d="m499.68765 338.4672l57.385834 0l0 52.06299l-57.385834 0z" fill-rule="nonzero"></path><path stroke="#515151" stroke-width="1.0" stroke-linejoin="round" stroke-linecap="butt" d="m499.68765 338.4672l57.385834 0l0 52.06299l-57.385834 0z" fill-rule="nonzero"></path><path fill="#515151" d="m523.974 363.95963q0 -2.421875 0.5 -3.890625q0.5 -1.46875 1.46875 -2.265625q0.984375 -0.796875 2.46875 -0.796875q1.09375 0 1.921875 0.4375q0.828125 0.4375 1.359375 1.28125q0.546875 0.828125 0.84375 2.015625q0.3125 1.1875 0.3125 3.21875q0 2.390625 -0.5 3.859375q-0.484375 1.46875 -1.46875 2.28125q-0.96875 0.796875 -2.46875 0.796875q-1.96875 0 -3.078125 -1.40625q-1.359375 -1.703125 -1.359375 -5.53125zm1.71875 0q0 3.34375 0.78125 4.453125q0.796875 1.109375 1.9375 1.109375q1.15625 0 1.9375 -1.109375q0.78125 -1.125 0.78125 -4.453125q0 -3.359375 -0.78125 -4.46875q-0.78125 -1.109375 -1.953125 -1.109375q-1.15625 0 -1.828125 0.984375q-0.875 1.234375 -0.875 4.59375z" fill-rule="nonzero"></path><path fill="#ffffff" d="m499.68765 389.42783l57.385834 0l0 52.06299l-57.385834 0z" fill-rule="nonzero"></path><path stroke="#515151" stroke-width="1.0" stroke-linejoin="round" stroke-linecap="butt" d="m499.68765 389.42783l57.385834 0l0 52.06299l-57.385834 0z" fill-rule="nonzero"></path><path fill="#515151" d="m530.2709 421.62338l-1.671875 0l0 -10.640625q-0.59375 0.578125 -1.578125 1.15625q-0.984375 0.5625 -1.765625 0.859375l0 -1.625q1.40625 -0.65625 2.453125 -1.59375q1.046875 -0.9375 1.484375 -1.8125l1.078125 0l0 13.65625z" fill-rule="nonzero"></path><path fill="#ffffff" d="m499.68765 441.4908l57.385834 0l0 52.06299l-57.385834 0z" fill-rule="nonzero"></path><path stroke="#515151" stroke-width="1.0" stroke-linejoin="round" stroke-linecap="butt" d="m499.68765 441.4908l57.385834 0l0 52.06299l-57.385834 0z" fill-rule="nonzero"></path><path fill="#515151" d="m530.2709 473.68637l-1.671875 0l0 -10.640625q-0.59375 0.578125 -1.578125 1.15625q-0.984375 0.5625 -1.765625 0.859375l0 -1.625q1.40625 -0.65625 2.453125 -1.59375q1.046875 -0.9375 1.484375 -1.8125l1.078125 0l0 13.65625z" fill-rule="nonzero"></path><path fill="#000000" fill-opacity="0.0" d="m223.64043 173.83727l276.04724 -67.448814" fill-rule="nonzero"></path><path stroke="#009f5d" stroke-width="2.0" stroke-linejoin="round" stroke-linecap="butt" d="m223.64043 173.83727l264.39014 -64.600555" fill-rule="evenodd"></path><path fill="#009f5d" stroke="#009f5d" stroke-width="2.0" stroke-linecap="butt" d="m488.8147 112.44578l8.032715 -5.3633423l-9.600922 -1.054779z" fill-rule="evenodd"></path><path fill="#000000" fill-opacity="0.0" d="m223.64043 173.83727l276.04724 241.62206" fill-rule="nonzero"></path><path stroke="#0066cc" stroke-width="2.0" stroke-linejoin="round" stroke-linecap="butt" d="m223.64043 173.83727l267.01764 233.71852" fill-rule="evenodd"></path><path fill="#0066cc" stroke="#0066cc" stroke-width="2.0" stroke-linecap="butt" d="m488.4823 410.0415l9.00531 3.492096l-4.6538086 -8.463593z" fill-rule="evenodd"></path><path fill="#000000" fill-opacity="0.0" d="m211.93466 259.2365l287.753 -49.824432" fill-rule="nonzero"></path><path stroke="#009f5d" stroke-width="2.0" stroke-linejoin="round" stroke-linecap="butt" d="m211.93468 259.2365l275.9289 -47.777115" fill-rule="evenodd"></path><path fill="#009f5d" stroke="#009f5d" stroke-width="2.0" stroke-linecap="butt" d="m488.42722 214.71445l8.379517 -4.803543l-9.506744 -1.7065277z" fill-rule="evenodd"></path><path fill="#000000" fill-opacity="0.0" d="m211.93466 259.2365l287.753 -100.785065" fill-rule="nonzero"></path><path stroke="#0066cc" stroke-width="2.0" stroke-linejoin="round" stroke-linecap="butt" d="m211.93468 259.2365l276.42755 -96.81836" fill-rule="evenodd"></path><path fill="#0066cc" stroke="#0066cc" stroke-width="2.0" stroke-linecap="butt" d="m489.45422 165.53592l7.473999 -6.117981l-9.657959 -0.11753845z" fill-rule="evenodd"></path><path fill="#000000" fill-opacity="0.0" d="m228.71916 356.04724l266.45667 -143.43307" fill-rule="nonzero"></path><path stroke="#0066cc" stroke-width="2.0" stroke-linejoin="round" stroke-linecap="butt" d="m228.71916 356.04724l255.89034 -137.74522" fill-rule="evenodd"></path><path fill="#0066cc" stroke="#0066cc" stroke-width="2.0" stroke-linecap="butt" d="m486.1753 221.21083l6.426056 -7.2108154l-9.557678 1.3932037z" fill-rule="evenodd"></path><path fill="#000000" fill-opacity="0.0" d="m228.71916 356.04724l270.9685 111.47507" fill-rule="nonzero"></path><path stroke="#009f5d" stroke-width="2.0" stroke-linejoin="round" stroke-linecap="butt" d="m228.71916 356.04724l259.8709 106.90958" fill-rule="evenodd"></path><path fill="#009f5d" stroke="#009f5d" stroke-width="2.0" stroke-linecap="butt" d="m487.33325 466.01187l9.650482 0.39804077l-7.1368103 -6.5081177z" fill-rule="evenodd"></path><path fill="#000000" fill-opacity="0.0" d="m256.22046 29.170603l199.18112 0l0 68.062996l-199.18112 0z" fill-rule="nonzero"></path><path fill="#0066cc" d="m309.95557 69.18647l0 -8.312496q0 -1.5625 -0.71875 -2.328125q-0.71875 -0.78125 -2.234375 -0.78125q-2.03125 0 -2.96875 1.109375q-0.921875 1.09375 -0.921875 3.59375l0 6.718746l-1.953125 0l0 -18.234371l1.953125 0l0 5.515625q0 1.0 -0.09375 1.65625l0.109375 0q0.578125 -0.921875 1.640625 -1.453125q1.0625 -0.546875 2.421875 -0.546875q2.34375 0 3.515625 1.125q1.1875 1.125 1.1875 3.5625l0 8.374996l-1.9375 0z" fill-rule="nonzero"></path><path fill="#0066cc" d="m319.4204 78.18647l-1.265625 0l0 -8.140625q0 -1.015625 0.0625 -1.921875q-0.171875 0.15625 -0.375 0.34375q-0.203125 0.171875 -1.859375 1.515625l-0.6875 -0.890625l3.03125 -2.328125l1.09375 0l0 11.421875z" fill-rule="nonzero"></path><path fill="#0066cc" d="m323.94385 62.60835q0 -3.109375 0.90625 -5.8125q0.90625 -2.703125 2.609375 -4.75l1.90625 0q-1.6875 2.265625 -2.546875 4.984375q-0.84375 2.703125 -0.84375 5.5625q0 2.8124962 0.859375 5.499996q0.875 2.671875 2.5 4.890625l-1.875 0q-1.71875 -1.984375 -2.625 -4.640625q-0.890625 -2.671875 -0.890625 -5.734371zm11.2890625 0l-4.46875 -6.265625l2.21875 0l3.390625 4.921875l3.375 -4.921875l2.1875 0l-4.46875 6.265625l4.703125 6.578121l-2.203125 0l-3.59375 -5.203121l-3.640625 5.203121l-2.203125 0l4.703125 -6.578121zm13.558594 0q0 3.0781212 -0.90625 5.749996q-0.90625 2.65625 -2.625 4.625l-1.875 0q1.640625 -2.203125 2.5 -4.890625q0.875 -2.6875 0.875 -5.499996q0 -2.859375 -0.859375 -5.5625q-0.84375 -2.71875 -2.53125 -4.984375l1.890625 0q1.734375 2.0625 2.625 4.78125q0.90625 2.703125 0.90625 5.78125z" fill-rule="nonzero"></path><path fill="#000000" d="m353.86182 66.389595l0.171875 0.28125q-0.3125 1.171875 -0.890625 2.71875q-0.5625 1.5625 -1.1875 2.890625l-1.46875 0q0.328125 -1.21875 0.703125 -3.015625q0.375 -1.796875 0.53125 -2.875l2.140625 0z" fill-rule="nonzero"></path><path fill="#009f5d" d="m372.729 69.18647l0 -8.312496q0 -1.5625 -0.71875 -2.328125q-0.71875 -0.78125 -2.234375 -0.78125q-2.03125 0 -2.96875 1.109375q-0.921875 1.09375 -0.921875 3.59375l0 6.718746l-1.953125 0l0 -18.234371l1.953125 0l0 5.515625q0 1.0 -0.09375 1.65625l0.109375 0q0.578125 -0.921875 1.640625 -1.453125q1.0625 -0.546875 2.421875 -0.546875q2.34375 0 3.515625 1.125q1.1875 1.125 1.1875 3.5625l0 8.374996l-1.9375 0z" fill-rule="nonzero"></path><path fill="#009f5d" d="m384.89694 78.18647l-7.5155945 0l0 -1.125l3.015625 -3.015625q1.375 -1.390625 1.8125 -1.984375q0.4375 -0.59375 0.65625 -1.15625q0.21875 -0.5625 0.21875 -1.21875q0 -0.90625 -0.5625 -1.4375q-0.546875 -0.546875 -1.53125 -0.546875q-0.71875 0 -1.359375 0.234375q-0.625 0.234375 -1.40625 0.859375l-0.6875 -0.890625q1.578125 -1.3125 3.4375 -1.3125q1.609375 0 2.515625 0.828125q0.9218445 0.828125 0.9218445 2.21875q0 1.078125 -0.6093445 2.140625q-0.609375 1.0625 -2.28125 2.6875l-2.5 2.453125l0 0.0625l5.8749695 0l0 1.203125z" fill-rule="nonzero"></path><path fill="#009f5d" d="m386.71725 62.60835q0 -3.109375 0.90625 -5.8125q0.90625 -2.703125 2.609375 -4.75l1.90625 0q-1.6875 2.265625 -2.546875 4.984375q-0.84375 2.703125 -0.84375 5.5625q0 2.8124962 0.859375 5.499996q0.875 2.671875 2.5 4.890625l-1.875 0q-1.71875 -1.984375 -2.625 -4.640625q-0.890625 -2.671875 -0.890625 -5.734371zm11.2890625 0l-4.46875 -6.265625l2.21875 0l3.390625 4.921875l3.375 -4.921875l2.1875 0l-4.46875 6.265625l4.703125 6.578121l-2.203125 0l-3.59375 -5.203121l-3.640625 5.203121l-2.203125 0l4.703125 -6.578121zm13.558594 0q0 3.0781212 -0.90625 5.749996q-0.90625 2.65625 -2.625 4.625l-1.875 0q1.640625 -2.203125 2.5 -4.890625q0.875 -2.6875 0.875 -5.499996q0 -2.859375 -0.859375 -5.5625q-0.84375 -2.71875 -2.53125 -4.984375l1.890625 0q1.734375 2.0625 2.625 4.78125q0.90625 2.703125 0.90625 5.78125z" fill-rule="nonzero"></path><path fill="#515151" d="m718.0184 356.04724l0 0c0 -14.376801 -11.654724 -26.031494 -26.031494 -26.031494c-14.37677 0 -26.031494 11.654694 -26.031494 26.031494c0 14.376801 11.654724 26.031494 26.031494 26.031494c14.37677 0 26.031494 -11.654694 26.031494 -26.031494z" fill-rule="nonzero"></path><path fill="#404040" d="m703.0382 348.2619c0 -1.4975891 -1.2140503 -2.711609 -2.711609 -2.711609c-1.4975586 0 -2.711609 1.2140198 -2.711609 2.711609c0 1.4975891 1.2140503 2.711609 2.711609 2.711609c1.4975586 0 2.711609 -1.2140198 2.711609 -2.711609m-16.679443 0c0 -1.4975891 -1.2140503 -2.711609 -2.711609 -2.711609c-1.4975586 0 -2.711609 1.2140198 -2.711609 2.711609c0 1.4975891 1.2140503 2.711609 2.711609 2.711609c1.4975586 0 2.711609 -1.2140198 2.711609 -2.711609" fill-rule="nonzero"></path><path stroke="#ffffff" stroke-width="2.0" stroke-linejoin="round" stroke-linecap="butt" d="m703.0382 348.2619c0 -1.4975891 -1.2140503 -2.711609 -2.711609 -2.711609c-1.4975586 0 -2.711609 1.2140198 -2.711609 2.711609c0 1.4975891 1.2140503 2.711609 2.711609 2.711609c1.4975586 0 2.711609 -1.2140198 2.711609 -2.711609m-16.679443 0c0 -1.4975891 -1.2140503 -2.711609 -2.711609 -2.711609c-1.4975586 0 -2.711609 1.2140198 -2.711609 2.711609c0 1.4975891 1.2140503 2.711609 2.711609 2.711609c1.4975586 0 2.711609 -1.2140198 2.711609 -2.711609" fill-rule="nonzero"></path><path fill="#000000" fill-opacity="0.0" d="m706.0961 367.39975q-14.109253 9.689972 -28.185547 0" fill-rule="nonzero"></path><path stroke="#ffffff" stroke-width="2.0" stroke-linejoin="round" stroke-linecap="butt" d="m706.0961 367.39975q-14.109253 9.689972 -28.185547 0" fill-rule="nonzero"></path><path fill="#000000" fill-opacity="0.0" d="m718.0184 356.04724l0 0c0 -14.376801 -11.654724 -26.031494 -26.031494 -26.031494c-14.37677 0 -26.031494 11.654694 -26.031494 26.031494c0 14.376801 11.654724 26.031494 26.031494 26.031494c14.37677 0 26.031494 -11.654694 26.031494 -26.031494z" fill-rule="nonzero"></path><path stroke="#ffffff" stroke-width="2.0" stroke-linejoin="round" stroke-linecap="butt" d="m718.0184 356.04724l0 0c0 -14.376801 -11.654724 -26.031494 -26.031494 -26.031494c-14.37677 0 -26.031494 11.654694 -26.031494 26.031494c0 14.376801 11.654724 26.031494 26.031494 26.031494c14.37677 0 26.031494 -11.654694 26.031494 -26.031494z" fill-rule="nonzero"></path><path fill="#000000" fill-opacity="0.0" d="m667.0685 352.84604l-110.77167 -143.59055" fill-rule="nonzero"></path><path stroke="#0066cc" stroke-width="2.0" stroke-linejoin="round" stroke-linecap="butt" d="m667.0685 352.84604l-103.441895 -134.08922" fill-rule="evenodd"></path><path fill="#0066cc" stroke="#0066cc" stroke-width="2.0" stroke-linecap="butt" d="m566.2422 216.73903l-8.159485 -5.1685333l2.9282227 9.204117z" fill-rule="evenodd"></path><path fill="#000000" fill-opacity="0.0" d="m667.0685 352.84604l-110.33069 111.46457" fill-rule="nonzero"></path><path stroke="#009f5d" stroke-width="2.0" stroke-linejoin="round" stroke-linecap="butt" d="m667.0685 352.84604l-101.888916 102.936035" fill-rule="evenodd"></path><path fill="#009f5d" stroke="#009f5d" stroke-width="2.0" stroke-linecap="butt" d="m562.8318 453.45813l-4.0371704 8.774506l8.732788 -4.126648z" fill-rule="evenodd"></path><path fill="#000000" fill-opacity="0.0" d="m712.50134 322.01575l266.45667 0l0 68.06299l-266.45667 0z" fill-rule="nonzero"></path><path fill="#515151" d="m724.89197 360.641l0 -0.640625q0 -1.375 0.421875 -2.25q0.421875 -0.890625 1.5625 -1.875q1.59375 -1.34375 2.015625 -2.015625q0.421875 -0.6875 0.421875 -1.65625q0 -1.1875 -0.78125 -1.828125q-0.765625 -0.65625 -2.203125 -0.65625q-0.921875 0 -1.8125 0.21875q-0.875 0.203125 -2.0 0.78125l-0.703125 -1.578125q2.21875 -1.15625 4.640625 -1.15625q2.234375 0 3.46875 1.109375q1.25 1.09375 1.25 3.09375q0 0.859375 -0.234375 1.515625q-0.21875 0.640625 -0.671875 1.21875q-0.4375 0.578125 -1.921875 1.875q-1.1875 1.0 -1.5625 1.671875q-0.375 0.671875 -0.375 1.78125l0 0.390625l-1.515625 0zm-0.578125 3.46875q0 -1.59375 1.40625 -1.59375q0.6875 0 1.046875 0.421875q0.375 0.40625 0.375 1.171875q0 0.75 -0.375 1.171875q-0.375 0.421875 -1.046875 0.421875q-0.609375 0 -1.015625 -0.375q-0.390625 -0.375 -0.390625 -1.21875zm26.941406 -10.890625q0 2.59375 -1.78125 4.0q-1.765625 1.40625 -5.078125 1.40625l-2.015625 0l0 6.734375l-1.984375 0l0 -17.140625l4.4375 0q6.421875 0 6.421875 5.0zm-8.875 3.6875l1.796875 0q2.65625 0 3.828125 -0.84375q1.1875 -0.859375 1.1875 -2.75q0 -1.703125 -1.109375 -2.53125q-1.109375 -0.828125 -3.46875 -0.828125l-2.234375 0l0 6.953125zm18.027344 -4.625q0.859375 0 1.53125 0.140625l-0.265625 1.796875q-0.796875 -0.171875 -1.40625 -0.171875q-1.5625 0 -2.671875 1.265625q-1.09375 1.265625 -1.09375 3.15625l0 6.890625l-1.953125 0l0 -12.84375l1.609375 0l0.21875 2.375l0.09375 0q0.71875 -1.25 1.71875 -1.921875q1.015625 -0.6875 2.21875 -0.6875zm15.03125 6.640625q0 3.140625 -1.59375 4.90625q-1.578125 1.765625 -4.359375 1.765625q-1.734375 0 -3.078125 -0.8125q-1.328125 -0.8125 -2.0625 -2.3125q-0.71875 -1.515625 -0.71875 -3.546875q0 -3.140625 1.5625 -4.890625q1.578125 -1.75 4.375 -1.75q2.6875 0 4.28125 1.796875q1.59375 1.78125 1.59375 4.84375zm-9.796875 0q0 2.46875 0.984375 3.765625q0.984375 1.28125 2.90625 1.28125q1.90625 0 2.890625 -1.28125q1.0 -1.296875 1.0 -3.765625q0 -2.453125 -1.0 -3.71875q-0.984375 -1.265625 -2.921875 -1.265625q-1.90625 0 -2.890625 1.25q-0.96875 1.25 -0.96875 3.734375zm16.011719 6.4375l-4.875 -12.84375l2.09375 0l2.765625 7.609375q0.9375 2.671875 1.09375 3.46875l0.09375 0q0.125 -0.609375 0.8125 -2.5625q0.6875 -1.953125 3.078125 -8.515625l2.09375 0l-4.875 12.84375l-2.28125 0zm17.117188 0l-0.390625 -1.828125l-0.09375 0q-0.96875 1.203125 -1.921875 1.640625q-0.953125 0.421875 -2.375 0.421875q-1.921875 0 -3.0 -0.984375q-1.078125 -0.984375 -1.078125 -2.796875q0 -3.890625 6.21875 -4.078125l2.171875 -0.078125l0 -0.796875q0 -1.515625 -0.65625 -2.234375q-0.640625 -0.71875 -2.0625 -0.71875q-1.609375 0 -3.640625 0.984375l-0.59375 -1.484375q0.953125 -0.515625 2.078125 -0.8125q1.125 -0.296875 2.265625 -0.296875q2.296875 0 3.40625 1.03125q1.109375 1.015625 1.109375 3.265625l0 8.765625l-1.4375 0zm-4.40625 -1.375q1.828125 0 2.859375 -0.984375q1.03125 -1.0 1.03125 -2.796875l0 -1.15625l-1.9375 0.078125q-2.328125 0.078125 -3.359375 0.71875q-1.015625 0.640625 -1.015625 1.984375q0 1.0625 0.640625 1.609375q0.640625 0.546875 1.78125 0.546875zm12.660156 1.375l-4.875 -12.84375l2.09375 0l2.765625 7.609375q0.9375 2.671875 1.09375 3.46875l0.09375 0q0.125 -0.609375 0.8125 -2.5625q0.6875 -1.953125 3.078125 -8.515625l2.09375 0l-4.875 12.84375l-2.28125 0zm14.6328125 0.234375q-2.84375 0 -4.5 -1.734375q-1.640625 -1.734375 -1.640625 -4.8125q0 -3.109375 1.53125 -4.9375q1.53125 -1.828125 4.109375 -1.828125q2.421875 0 3.828125 1.59375q1.40625 1.578125 1.40625 4.1875l0 1.21875l-8.859375 0q0.0625 2.265625 1.140625 3.4375q1.09375 1.171875 3.0625 1.171875q2.078125 0 4.09375 -0.859375l0 1.734375q-1.03125 0.4375 -1.953125 0.625q-0.90625 0.203125 -2.21875 0.203125zm-0.515625 -11.6875q-1.546875 0 -2.46875 1.015625q-0.921875 1.0 -1.09375 2.78125l6.71875 0q0 -1.84375 -0.828125 -2.8125q-0.8125 -0.984375 -2.328125 -0.984375zm10.511719 11.453125l-1.953125 0l0 -18.234375l1.953125 0l0 18.234375zm20.492188 0l0 -8.359375q0 -1.53125 -0.65625 -2.296875q-0.65625 -0.765625 -2.046875 -0.765625q-1.8125 0 -2.6875 1.046875q-0.859375 1.03125 -0.859375 3.203125l0 7.171875l-1.9375 0l0 -8.359375q0 -1.53125 -0.65625 -2.296875q-0.65625 -0.765625 -2.0625 -0.765625q-1.828125 0 -2.671875 1.09375q-0.84375 1.09375 -0.84375 3.59375l0 6.734375l-1.953125 0l0 -12.84375l1.578125 0l0.328125 1.75l0.09375 0q0.546875 -0.9375 1.546875 -1.453125q1.0 -0.53125 2.25 -0.53125q3.0 0 3.9375 2.171875l0.09375 0q0.5625 -1.0 1.65625 -1.578125q1.09375 -0.59375 2.484375 -0.59375q2.1875 0 3.265625 1.125q1.078125 1.109375 1.078125 3.578125l0 8.375l-1.9375 0zm11.371094 0.234375q-2.84375 0 -4.5 -1.734375q-1.640625 -1.734375 -1.640625 -4.8125q0 -3.109375 1.53125 -4.9375q1.53125 -1.828125 4.109375 -1.828125q2.421875 0 3.828125 1.59375q1.40625 1.578125 1.40625 4.1875l0 1.21875l-8.859375 0q0.0625 2.265625 1.140625 3.4375q1.09375 1.171875 3.0625 1.171875q2.078125 0 4.09375 -0.859375l0 1.734375q-1.03125 0.4375 -1.953125 0.625q-0.90625 0.203125 -2.21875 0.203125zm-0.515625 -11.6875q-1.546875 0 -2.46875 1.015625q-0.921875 1.0 -1.09375 2.78125l6.71875 0q0 -1.84375 -0.828125 -2.8125q-0.8125 -0.984375 -2.328125 -0.984375zm17.355469 11.453125l0 -8.3125q0 -1.5625 -0.71875 -2.328125q-0.71875 -0.78125 -2.234375 -0.78125q-2.015625 0 -2.953125 1.09375q-0.9375 1.078125 -0.9375 3.59375l0 6.734375l-1.953125 0l0 -12.84375l1.578125 0l0.328125 1.75l0.09375 0q0.59375 -0.9375 1.671875 -1.453125q1.078125 -0.53125 2.40625 -0.53125q2.3125 0 3.484375 1.125q1.171875 1.109375 1.171875 3.578125l0 8.375l-1.9375 0zm10.089844 -1.375q0.515625 0 0.984375 -0.078125q0.484375 -0.078125 0.765625 -0.15625l0 1.484375q-0.3125 0.15625 -0.9375 0.25q-0.609375 0.109375 -1.09375 0.109375q-3.734375 0 -3.734375 -3.921875l0 -7.640625l-1.84375 0l0 -0.9375l1.84375 -0.8125l0.828125 -2.75l1.125 0l0 2.984375l3.71875 0l0 1.515625l-3.71875 0l0 7.546875q0 1.171875 0.546875 1.796875q0.546875 0.609375 1.515625 0.609375zm9.738281 1.609375q-2.84375 0 -4.5 -1.734375q-1.640625 -1.734375 -1.640625 -4.8125q0 -3.109375 1.53125 -4.9375q1.53125 -1.828125 4.109375 -1.828125q2.421875 0 3.828125 1.59375q1.40625 1.578125 1.40625 4.1875l0 1.21875l-8.859375 0q0.0625 2.265625 1.140625 3.4375q1.09375 1.171875 3.0625 1.171875q2.078125 0 4.09375 -0.859375l0 1.734375q-1.03125 0.4375 -1.953125 0.625q-0.90625 0.203125 -2.21875 0.203125zm-0.515625 -11.6875q-1.546875 0 -2.46875 1.015625q-0.921875 1.0 -1.09375 2.78125l6.71875 0q0 -1.84375 -0.828125 -2.8125q-0.8125 -0.984375 -2.328125 -0.984375zm23.074219 7.953125q0 1.78125 -1.34375 2.765625q-1.328125 0.96875 -3.734375 0.96875q-2.5625 0 -3.984375 -0.8125l0 -1.796875q0.921875 0.46875 1.984375 0.734375q1.0625 0.265625 2.046875 0.265625q1.515625 0 2.328125 -0.484375q0.828125 -0.484375 0.828125 -1.484375q0 -0.75 -0.65625 -1.28125q-0.640625 -0.53125 -2.53125 -1.265625q-1.78125 -0.65625 -2.546875 -1.15625q-0.75 -0.5 -1.125 -1.125q-0.359375 -0.640625 -0.359375 -1.515625q0 -1.578125 1.265625 -2.484375q1.28125 -0.90625 3.515625 -0.90625q2.0625 0 4.046875 0.84375l-0.6875 1.578125q-1.9375 -0.796875 -3.5 -0.796875q-1.390625 0 -2.09375 0.4375q-0.703125 0.4375 -0.703125 1.1875q0 0.515625 0.265625 0.890625q0.265625 0.359375 0.84375 0.6875q0.59375 0.328125 2.25 0.953125q2.296875 0.828125 3.09375 1.671875q0.796875 0.84375 0.796875 2.125zm5.1210938 3.5l-1.953125 0l0 -12.84375l1.953125 0l0 12.84375zm-2.109375 -16.328125q0 -0.671875 0.328125 -0.96875q0.328125 -0.3125 0.8125 -0.3125q0.46875 0 0.8125 0.3125q0.34375 0.3125 0.34375 0.96875q0 0.65625 -0.34375 0.984375q-0.34375 0.3125 -0.8125 0.3125q-0.484375 0 -0.8125 -0.3125q-0.328125 -0.328125 -0.328125 -0.984375zm22.601562 16.328125l0 -8.359375q0 -1.53125 -0.65625 -2.296875q-0.65625 -0.765625 -2.046875 -0.765625q-1.8125 0 -2.6875 1.046875q-0.859375 1.03125 -0.859375 3.203125l0 7.171875l-1.9375 0l0 -8.359375q0 -1.53125 -0.65625 -2.296875q-0.65625 -0.765625 -2.0625 -0.765625q-1.828125 0 -2.671875 1.09375q-0.84375 1.09375 -0.84375 3.59375l0 6.734375l-1.953125 0l0 -12.84375l1.578125 0l0.328125 1.75l0.09375 0q0.546875 -0.9375 1.546875 -1.453125q1.0 -0.53125 2.25 -0.53125q3.0 0 3.9375 2.171875l0.09375 0q0.5625 -1.0 1.65625 -1.578125q1.09375 -0.59375 2.484375 -0.59375q2.1875 0 3.265625 1.125q1.078125 1.109375 1.078125 3.578125l0 8.375l-1.9375 0zm5.6679688 -1.25q0 -0.78125 0.359375 -1.1875q0.359375 -0.40625 1.03125 -0.40625q0.671875 0 1.046875 0.40625q0.390625 0.40625 0.390625 1.1875q0 0.765625 -0.390625 1.1875q-0.390625 0.40625 -1.046875 0.40625q-0.609375 0 -1.0 -0.375q-0.390625 -0.375 -0.390625 -1.21875z" fill-rule="nonzero"></path><path fill="#515151" d="m671.81366 120.717064l0 0c0 2.6718369 5.414856 4.8377914 12.094482 4.8377914c6.6795654 0 12.094482 -2.1659546 12.094482 -4.8377914l0 0c0 -2.6718445 5.414917 -4.837799 12.094482 -4.837799c6.6796265 0 12.094482 2.1659546 12.094482 4.837799l0 38.702354c0 -2.6718292 -5.414856 -4.837784 -12.094482 -4.837784c-6.6795654 0 -12.094482 2.1659546 -12.094482 4.837784c0 2.6718445 -5.414917 4.837799 -12.094482 4.837799c-6.6796265 0 -12.094482 -2.1659546 -12.094482 -4.837799z" fill-rule="nonzero"></path><path stroke="#ffffff" stroke-width="2.0" stroke-linejoin="round" stroke-linecap="butt" d="m671.81366 120.717064l0 0c0 2.6718369 5.414856 4.8377914 12.094482 4.8377914c6.6795654 0 12.094482 -2.1659546 12.094482 -4.8377914l0 0c0 -2.6718445 5.414917 -4.837799 12.094482 -4.837799c6.6796265 0 12.094482 2.1659546 12.094482 4.837799l0 38.702354c0 -2.6718292 -5.414856 -4.837784 -12.094482 -4.837784c-6.6795654 0 -12.094482 2.1659546 -12.094482 4.837784c0 2.6718445 -5.414917 4.837799 -12.094482 4.837799c-6.6796265 0 -12.094482 -2.1659546 -12.094482 -4.837799z" fill-rule="nonzero"></path><path fill="#000000" fill-opacity="0.0" d="m718.0236 106.08137l296.28345 0l0 68.062996l-296.28345 0z" fill-rule="nonzero"></path><path fill="#515151" d="m730.41425 144.7066l0 -0.640625q0 -1.375 0.421875 -2.25q0.421875 -0.890625 1.5625 -1.875q1.59375 -1.34375 2.015625 -2.015625q0.421875 -0.6875 0.421875 -1.65625q0 -1.1875 -0.78125 -1.828125q-0.765625 -0.65625 -2.203125 -0.65625q-0.921875 0 -1.8125 0.21875q-0.875 0.203125 -2.0 0.78125l-0.703125 -1.578125q2.21875 -1.15625 4.640625 -1.15625q2.234375 0 3.46875 1.109375q1.25 1.09375 1.25 3.09375q0 0.859375 -0.234375 1.515625q-0.21875 0.640625 -0.671875 1.21875q-0.4375 0.578125 -1.921875 1.875q-1.1875 1.0 -1.5625 1.671875q-0.375 0.671875 -0.375 1.78125l0 0.390625l-1.515625 0zm-0.578125 3.46875q0 -1.59375 1.40625 -1.59375q0.6875 0 1.046875 0.421875q0.375 0.40625 0.375 1.171875q0 0.75 -0.375 1.171875q-0.375 0.421875 -1.046875 0.421875q-0.609375 0 -1.015625 -0.375q-0.390625 -0.375 -0.390625 -1.21875zm29.753906 -7.484375q0 4.25 -2.3125 6.5q-2.296875 2.234375 -6.609375 2.234375l-4.75 0l0 -17.140625l5.25 0q4.0 0 6.203125 2.21875q2.21875 2.21875 2.21875 6.1875zm-2.109375 0.078125q0 -3.359375 -1.6875 -5.046875q-1.671875 -1.703125 -4.984375 -1.703125l-2.90625 0l0 13.6875l2.4375 0q3.5625 0 5.34375 -1.75q1.796875 -1.765625 1.796875 -5.1875zm11.058594 8.890625q-2.84375 0 -4.5 -1.734375q-1.640625 -1.734375 -1.640625 -4.8125q0 -3.109375 1.53125 -4.9375q1.53125 -1.828125 4.109375 -1.828125q2.421875 0 3.828125 1.59375q1.40625 1.578125 1.40625 4.1875l0 1.21875l-8.859375 0q0.0625 2.265625 1.140625 3.4375q1.09375 1.171875 3.0625 1.171875q2.078125 0 4.09375 -0.859375l0 1.734375q-1.03125 0.4375 -1.953125 0.625q-0.90625 0.203125 -2.21875 0.203125zm-0.515625 -11.6875q-1.546875 0 -2.46875 1.015625q-0.921875 1.0 -1.09375 2.78125l6.71875 0q0 -1.84375 -0.828125 -2.8125q-0.8125 -0.984375 -2.328125 -0.984375zm14.355469 0.125l-3.28125 0l0 11.328125l-1.9375 0l0 -11.328125l-2.296875 0l0 -0.890625l2.296875 -0.703125l0 -0.703125q0 -4.734375 4.140625 -4.734375q1.015625 0 2.390625 0.40625l-0.515625 1.5625q-1.125 -0.375 -1.921875 -0.375q-1.09375 0 -1.625 0.734375q-0.53125 0.734375 -0.53125 2.359375l0 0.828125l3.28125 0l0 1.515625zm4.2890625 11.328125l-1.953125 0l0 -12.84375l1.953125 0l0 12.84375zm-2.109375 -16.328125q0 -0.671875 0.328125 -0.96875q0.328125 -0.3125 0.8125 -0.3125q0.46875 0 0.8125 0.3125q0.34375 0.3125 0.34375 0.96875q0 0.65625 -0.34375 0.984375q-0.34375 0.3125 -0.8125 0.3125q-0.484375 0 -0.8125 -0.3125q-0.328125 -0.328125 -0.328125 -0.984375zm15.0234375 16.328125l0 -8.3125q0 -1.5625 -0.71875 -2.328125q-0.71875 -0.78125 -2.234375 -0.78125q-2.015625 0 -2.953125 1.09375q-0.9375 1.078125 -0.9375 3.59375l0 6.734375l-1.953125 0l0 -12.84375l1.578125 0l0.328125 1.75l0.09375 0q0.59375 -0.9375 1.671875 -1.453125q1.078125 -0.53125 2.40625 -0.53125q2.3125 0 3.484375 1.125q1.171875 1.109375 1.171875 3.578125l0 8.375l-1.9375 0zm7.8867188 0l-1.953125 0l0 -12.84375l1.953125 0l0 12.84375zm-2.109375 -16.328125q0 -0.671875 0.328125 -0.96875q0.328125 -0.3125 0.8125 -0.3125q0.46875 0 0.8125 0.3125q0.34375 0.3125 0.34375 0.96875q0 0.65625 -0.34375 0.984375q-0.34375 0.3125 -0.8125 0.3125q-0.484375 0 -0.8125 -0.3125q-0.328125 -0.328125 -0.328125 -0.984375zm10.3828125 14.953125q0.515625 0 0.984375 -0.078125q0.484375 -0.078125 0.765625 -0.15625l0 1.484375q-0.3125 0.15625 -0.9375 0.25q-0.609375 0.109375 -1.09375 0.109375q-3.734375 0 -3.734375 -3.921875l0 -7.640625l-1.84375 0l0 -0.9375l1.84375 -0.8125l0.828125 -2.75l1.125 0l0 2.984375l3.71875 0l0 1.515625l-3.71875 0l0 7.546875q0 1.171875 0.546875 1.796875q0.546875 0.609375 1.515625 0.609375zm6.2695312 1.375l-1.953125 0l0 -12.84375l1.953125 0l0 12.84375zm-2.109375 -16.328125q0 -0.671875 0.328125 -0.96875q0.328125 -0.3125 0.8125 -0.3125q0.46875 0 0.8125 0.3125q0.34375 0.3125 0.34375 0.96875q0 0.65625 -0.34375 0.984375q-0.34375 0.3125 -0.8125 0.3125q-0.484375 0 -0.8125 -0.3125q-0.328125 -0.328125 -0.328125 -0.984375zm9.0390625 16.328125l-4.875 -12.84375l2.09375 0l2.765625 7.609375q0.9375 2.671875 1.09375 3.46875l0.09375 0q0.125 -0.609375 0.8125 -2.5625q0.6875 -1.953125 3.078125 -8.515625l2.09375 0l-4.875 12.84375l-2.28125 0zm17.117188 0l-0.390625 -1.828125l-0.09375 0q-0.96875 1.203125 -1.921875 1.640625q-0.953125 0.421875 -2.375 0.421875q-1.921875 0 -3.0 -0.984375q-1.078125 -0.984375 -1.078125 -2.796875q0 -3.890625 6.21875 -4.078125l2.171875 -0.078125l0 -0.796875q0 -1.515625 -0.65625 -2.234375q-0.640625 -0.71875 -2.0625 -0.71875q-1.609375 0 -3.640625 0.984375l-0.59375 -1.484375q0.953125 -0.515625 2.078125 -0.8125q1.125 -0.296875 2.265625 -0.296875q2.296875 0 3.40625 1.03125q1.109375 1.015625 1.109375 3.265625l0 8.765625l-1.4375 0zm-4.40625 -1.375q1.828125 0 2.859375 -0.984375q1.03125 -1.0 1.03125 -2.796875l0 -1.15625l-1.9375 0.078125q-2.328125 0.078125 -3.359375 0.71875q-1.015625 0.640625 -1.015625 1.984375q0 1.0625 0.640625 1.609375q0.640625 0.546875 1.78125 0.546875zm26.222656 1.375l0 -8.359375q0 -1.53125 -0.65625 -2.296875q-0.65625 -0.765625 -2.046875 -0.765625q-1.8125 0 -2.6875 1.046875q-0.859375 1.03125 -0.859375 3.203125l0 7.171875l-1.9375 0l0 -8.359375q0 -1.53125 -0.65625 -2.296875q-0.65625 -0.765625 -2.0625 -0.765625q-1.828125 0 -2.671875 1.09375q-0.84375 1.09375 -0.84375 3.59375l0 6.734375l-1.953125 0l0 -12.84375l1.578125 0l0.328125 1.75l0.09375 0q0.546875 -0.9375 1.546875 -1.453125q1.0 -0.53125 2.25 -0.53125q3.0 0 3.9375 2.171875l0.09375 0q0.5625 -1.0 1.65625 -1.578125q1.09375 -0.59375 2.484375 -0.59375q2.1875 0 3.265625 1.125q1.078125 1.109375 1.078125 3.578125l0 8.375l-1.9375 0zm11.371094 0.234375q-2.84375 0 -4.5 -1.734375q-1.640625 -1.734375 -1.640625 -4.8125q0 -3.109375 1.53125 -4.9375q1.53125 -1.828125 4.109375 -1.828125q2.421875 0 3.828125 1.59375q1.40625 1.578125 1.40625 4.1875l0 1.21875l-8.859375 0q0.0625 2.265625 1.140625 3.4375q1.09375 1.171875 3.0625 1.171875q2.078125 0 4.09375 -0.859375l0 1.734375q-1.03125 0.4375 -1.953125 0.625q-0.90625 0.203125 -2.21875 0.203125zm-0.515625 -11.6875q-1.546875 0 -2.46875 1.015625q-0.921875 1.0 -1.09375 2.78125l6.71875 0q0 -1.84375 -0.828125 -2.8125q-0.8125 -0.984375 -2.328125 -0.984375zm17.355469 11.453125l0 -8.3125q0 -1.5625 -0.71875 -2.328125q-0.71875 -0.78125 -2.234375 -0.78125q-2.015625 0 -2.953125 1.09375q-0.9375 1.078125 -0.9375 3.59375l0 6.734375l-1.953125 0l0 -12.84375l1.578125 0l0.328125 1.75l0.09375 0q0.59375 -0.9375 1.671875 -1.453125q1.078125 -0.53125 2.40625 -0.53125q2.3125 0 3.484375 1.125q1.171875 1.109375 1.171875 3.578125l0 8.375l-1.9375 0zm10.089844 -1.375q0.515625 0 0.984375 -0.078125q0.484375 -0.078125 0.765625 -0.15625l0 1.484375q-0.3125 0.15625 -0.9375 0.25q-0.609375 0.109375 -1.09375 0.109375q-3.734375 0 -3.734375 -3.921875l0 -7.640625l-1.84375 0l0 -0.9375l1.84375 -0.8125l0.828125 -2.75l1.125 0l0 2.984375l3.71875 0l0 1.515625l-3.71875 0l0 7.546875q0 1.171875 0.546875 1.796875q0.546875 0.609375 1.515625 0.609375zm9.738281 1.609375q-2.84375 0 -4.5 -1.734375q-1.640625 -1.734375 -1.640625 -4.8125q0 -3.109375 1.53125 -4.9375q1.53125 -1.828125 4.109375 -1.828125q2.421875 0 3.828125 1.59375q1.40625 1.578125 1.40625 4.1875l0 1.21875l-8.859375 0q0.0625 2.265625 1.140625 3.4375q1.09375 1.171875 3.0625 1.171875q2.078125 0 4.09375 -0.859375l0 1.734375q-1.03125 0.4375 -1.953125 0.625q-0.90625 0.203125 -2.21875 0.203125zm-0.515625 -11.6875q-1.546875 0 -2.46875 1.015625q-0.921875 1.0 -1.09375 2.78125l6.71875 0q0 -1.84375 -0.828125 -2.8125q-0.8125 -0.984375 -2.328125 -0.984375zm23.589844 11.453125l0 -8.3125q0 -1.5625 -0.71875 -2.328125q-0.71875 -0.78125 -2.234375 -0.78125q-2.015625 0 -2.953125 1.09375q-0.9375 1.078125 -0.9375 3.59375l0 6.734375l-1.953125 0l0 -12.84375l1.578125 0l0.328125 1.75l0.09375 0q0.59375 -0.9375 1.671875 -1.453125q1.078125 -0.53125 2.40625 -0.53125q2.3125 0 3.484375 1.125q1.171875 1.109375 1.171875 3.578125l0 8.375l-1.9375 0zm13.839844 0l-0.390625 -1.828125l-0.09375 0q-0.96875 1.203125 -1.921875 1.640625q-0.953125 0.421875 -2.375 0.421875q-1.921875 0 -3.0 -0.984375q-1.078125 -0.984375 -1.078125 -2.796875q0 -3.890625 6.21875 -4.078125l2.171875 -0.078125l0 -0.796875q0 -1.515625 -0.65625 -2.234375q-0.640625 -0.71875 -2.0625 -0.71875q-1.609375 0 -3.640625 0.984375l-0.59375 -1.484375q0.953125 -0.515625 2.078125 -0.8125q1.125 -0.296875 2.265625 -0.296875q2.296875 0 3.40625 1.03125q1.109375 1.015625 1.109375 3.265625l0 8.765625l-1.4375 0zm-4.40625 -1.375q1.828125 0 2.859375 -0.984375q1.03125 -1.0 1.03125 -2.796875l0 -1.15625l-1.9375 0.078125q-2.328125 0.078125 -3.359375 0.71875q-1.015625 0.640625 -1.015625 1.984375q0 1.0625 0.640625 1.609375q0.640625 0.546875 1.78125 0.546875zm2.671875 -13.1875q-0.5 0 -0.984375 -0.21875q-0.484375 -0.21875 -0.953125 -0.484375q-0.453125 -0.265625 -0.890625 -0.484375q-0.421875 -0.21875 -0.8125 -0.21875q-0.59375 0 -0.890625 0.359375q-0.296875 0.34375 -0.453125 1.0625l-1.15625 0q0.15625 -1.421875 0.828125 -2.21875q0.671875 -0.796875 1.734375 -0.796875q0.546875 0 1.046875 0.21875q0.5 0.203125 0.953125 0.46875q0.46875 0.265625 0.890625 0.484375q0.421875 0.21875 0.796875 0.21875q0.578125 0 0.859375 -0.34375q0.28125 -0.34375 0.453125 -1.078125l1.15625 0q-0.15625 1.421875 -0.8125 2.234375q-0.65625 0.796875 -1.765625 0.796875zm18.269531 8.125q0 3.140625 -1.59375 4.90625q-1.578125 1.765625 -4.359375 1.765625q-1.734375 0 -3.078125 -0.8125q-1.328125 -0.8125 -2.0625 -2.3125q-0.71875 -1.515625 -0.71875 -3.546875q0 -3.140625 1.5625 -4.890625q1.578125 -1.75 4.375 -1.75q2.6875 0 4.28125 1.796875q1.59375 1.78125 1.59375 4.84375zm-9.796875 0q0 2.46875 0.984375 3.765625q0.984375 1.28125 2.90625 1.28125q1.90625 0 2.890625 -1.28125q1.0 -1.296875 1.0 -3.765625q0 -2.453125 -1.0 -3.71875q-0.984375 -1.265625 -2.921875 -1.265625q-1.90625 0 -2.890625 1.25q-0.96875 1.25 -0.96875 3.734375zm12.917969 5.1875q0 -0.78125 0.359375 -1.1875q0.359375 -0.40625 1.03125 -0.40625q0.671875 0 1.046875 0.40625q0.390625 0.40625 0.390625 1.1875q0 0.765625 -0.390625 1.1875q-0.390625 0.40625 -1.046875 0.40625q-0.609375 0 -1.0 -0.375q-0.390625 -0.375 -0.390625 -1.21875z" fill-rule="nonzero"></path><path fill="#000000" fill-opacity="0.0" d="m671.81366 140.06824l-114.74017 224.43045" fill-rule="nonzero"></path><path stroke="#0066cc" stroke-width="2.0" stroke-linejoin="round" stroke-linecap="butt" d="m671.81366 140.06824l-109.27765 213.74582" fill-rule="evenodd"></path><path fill="#0066cc" stroke="#0066cc" stroke-width="2.0" stroke-linecap="butt" d="m559.59467 352.3103l-1.1902466 9.585083l7.072937 -6.577545z" fill-rule="evenodd"></path><path fill="#000000" fill-opacity="0.0" d="m671.81366 140.06824l-114.74017 -33.679787" fill-rule="nonzero"></path><path stroke="#009f5d" stroke-width="2.0" stroke-linejoin="round" stroke-linecap="butt" d="m671.81366 140.06824l-103.22595 -30.30001" fill-rule="evenodd"></path><path fill="#009f5d" stroke="#009f5d" stroke-width="2.0" stroke-linecap="butt" d="m569.5181 106.598495l-9.639221 0.61344147l7.7783813 5.7260284z" fill-rule="evenodd"></path></g></svg>

