<?xml version="1.0" standalone="yes"?>

<svg version="1.1" viewBox="0.0 0.0 1152.0 864.0" fill="none" stroke="none" stroke-linecap="square" stroke-miterlimit="10" xmlns="http://www.w3.org/2000/svg" xmlns:xlink="http://www.w3.org/1999/xlink"><clipPath id="p.0"><path d="m0 0l1152.0 0l0 864.0l-1152.0 0l0 -864.0z" clip-rule="nonzero"></path></clipPath><g clip-path="url(#p.0)"><path fill="#000000" fill-opacity="0.0" d="m0 0l1152.0 0l0 864.0l-1152.0 0z" fill-rule="nonzero"></path><path fill="#000000" fill-opacity="0.0" d="m115.826775 20.249344l366.92914 0l0 516.378l-366.92914 0z" fill-rule="nonzero"></path><path stroke="#515151" stroke-width="2.0" stroke-linejoin="round" stroke-linecap="butt" stroke-dasharray="8.0,6.0" d="m115.826775 20.249344l366.92914 0l0 516.378l-366.92914 0z" fill-rule="nonzero"></path><path fill="#515151" d="m267.72104 504.5804l2.28125 0l0 9.9375305q0 2.578125 -0.59375 4.109375q-0.578125 1.515625 -2.109375 2.484375q-1.53125 0.953125 -4.015625 0.953125q-2.421875 0 -3.953125 -0.828125q-1.53125 -0.84375 -2.1875 -2.421875q-0.65625 -1.578125 -0.65625 -4.296875l0 -9.9375305l2.265625 0l0 9.9219055q0 2.234375 0.421875 3.296875q0.421875 1.0625 1.421875 1.640625q1.015625 0.5625 2.484375 0.5625q2.515625 0 3.578125 -1.125q1.0625 -1.140625 1.0625 -4.375l0 -9.9219055zm5.7851562 21.953156l0 -17.21878l1.921875 0l0 1.625q0.6875 -0.953125 1.53125 -1.421875q0.859375 -0.484375 2.078125 -0.484375q1.59375 0 2.8125 0.828125q1.21875 0.8125 1.84375 2.3125305q0.625 1.5 0.625 3.28125q0 1.90625 -0.6875 3.4375q-0.6875 1.53125 -2.0 2.34375q-1.296875 0.8125 -2.734375 0.8125q-1.0625 0 -1.90625 -0.4375q-0.828125 -0.453125 -1.375 -1.140625l0 6.0625l-2.109375 0zm1.921875 -10.921875q0 2.40625 0.96875 3.5625q0.96875 1.140625 2.359375 1.140625q1.40625 0 2.40625 -1.1875q1.0 -1.1875 1.0 -3.6875q0 -2.375 -0.984375 -3.5625305q-0.96875 -1.1875 -2.328125 -1.1875q-1.359375 0 -2.390625 1.265625q-1.03125 1.2500305 -1.03125 3.6562805zm19.503906 6.15625l0 -1.578125q-1.1875 1.859375 -3.484375 1.859375q-1.484375 0 -2.734375 -0.8125q-1.25 -0.828125 -1.9375 -2.296875q-0.671875 -1.46875 -0.671875 -3.390625q0 -1.859375 0.609375 -3.375q0.625 -1.5156555 1.859375 -2.3281555q1.25 -0.8125 2.78125 -0.8125q1.125 0 2.0 0.484375q0.890625 0.46875 1.4375 1.234375l0 -6.171875l2.09375 0l0 17.18753l-1.953125 0zm-6.671875 -6.21875q0 2.390625 1.0 3.578125q1.015625 1.1875 2.390625 1.1875q1.390625 0 2.34375 -1.125q0.96875 -1.140625 0.96875 -3.453125q0 -2.5625 -0.984375 -3.7500305q-0.984375 -1.203125 -2.421875 -1.203125q-1.40625 0 -2.359375 1.15625q-0.9375 1.1406555 -0.9375 3.6094055zm20.066406 4.6875q-1.171875 0.984375 -2.265625 1.40625q-1.078125 0.40625 -2.3125 0.40625q-2.046875 0 -3.15625 -1.0q-1.09375 -1.0 -1.09375 -2.5625q0 -0.921875 0.40625 -1.671875q0.421875 -0.75 1.09375 -1.203125q0.671875 -0.46875 1.515625 -0.703125q0.625 -0.15625 1.875 -0.3125q2.5625 -0.3125 3.765625 -0.734375q0.015625 -0.421875 0.015625 -0.546875q0 -1.28125 -0.609375 -1.8125305q-0.796875 -0.71875 -2.390625 -0.71875q-1.5 0 -2.203125 0.53125q-0.703125 0.515625 -1.046875 1.8437805l-2.0625 -0.28125q0.28125 -1.3281555 0.921875 -2.1406555q0.640625 -0.8125 1.859375 -1.25q1.21875 -0.453125 2.828125 -0.453125q1.59375 0 2.59375 0.375q1.0 0.375 1.46875 0.953125q0.46875 0.5625 0.65625 1.4375q0.09375 0.5312805 0.09375 1.9375305l0 2.8125q0 2.9375 0.140625 3.71875q0.140625 0.78125 0.53125 1.5l-2.203125 0q-0.328125 -0.65625 -0.421875 -1.53125zm-0.171875 -4.71875q-1.15625 0.46875 -3.453125 0.796875q-1.296875 0.1875 -1.84375 0.421875q-0.53125 0.234375 -0.828125 0.6875q-0.28125 0.453125 -0.28125 1.0q0 0.84375 0.625 1.40625q0.640625 0.5625 1.875 0.5625q1.21875 0 2.171875 -0.53125q0.953125 -0.53125 1.390625 -1.453125q0.34375 -0.71875 0.34375 -2.109375l0 -0.78125zm10.003906 4.359375l0.3125 1.859375q-0.890625 0.203125 -1.59375 0.203125q-1.15625 0 -1.796875 -0.359375q-0.625 -0.375 -0.890625 -0.96875q-0.25 -0.59375 -0.25 -2.484375l0 -7.1719055l-1.546875 0l0 -1.640625l1.546875 0l0 -3.078125l2.09375 -1.265625l0 4.34375l2.125 0l0 1.640625l-2.125 0l0 7.2812805q0 0.90625 0.109375 1.171875q0.125 0.25 0.375 0.40625q0.25 0.140625 0.71875 0.140625q0.34375 0 0.921875 -0.078125zm10.589844 -2.125l2.171875 0.28125q-0.515625 1.90625 -1.90625 2.96875q-1.390625 1.046875 -3.5625 1.046875q-2.734375 0 -4.34375 -1.671875q-1.59375 -1.6875 -1.59375 -4.734375q0 -3.140625 1.609375 -4.8750305q1.625 -1.734375 4.203125 -1.734375q2.5 0 4.078125 1.703125q1.59375 1.7031555 1.59375 4.7812805q0 0.1875 -0.015625 0.5625l-9.28125 0q0.109375 2.046875 1.15625 3.140625q1.046875 1.09375 2.609375 1.09375q1.15625 0 1.96875 -0.609375q0.828125 -0.609375 1.3125 -1.953125zm-6.9375 -3.40625l6.953125 0q-0.140625 -1.5625 -0.796875 -2.3594055q-1.0 -1.21875 -2.609375 -1.21875q-1.453125 0 -2.453125 0.984375q-0.984375 0.9687805 -1.09375 2.5937805zm10.910156 3.703125l2.09375 -0.328125q0.171875 1.25 0.96875 1.921875q0.8125 0.671875 2.25 0.671875q1.453125 0 2.15625 -0.59375q0.703125 -0.59375 0.703125 -1.390625q0 -0.71875 -0.625 -1.125q-0.421875 -0.28125 -2.15625 -0.71875q-2.3125 -0.578125 -3.21875 -1.0q-0.890625 -0.4375 -1.359375 -1.1875q-0.453125 -0.765625 -0.453125 -1.671875q0 -0.8281555 0.375 -1.5312805q0.390625 -0.71875 1.046875 -1.1875q0.484375 -0.359375 1.328125 -0.609375q0.859375 -0.265625 1.828125 -0.265625q1.46875 0 2.578125 0.421875q1.109375 0.421875 1.625 1.15625q0.53125 0.71875 0.734375 1.9219055l-2.0625 0.28125q-0.140625 -0.9687805 -0.8125 -1.5000305q-0.671875 -0.546875 -1.90625 -0.546875q-1.453125 0 -2.078125 0.484375q-0.625 0.484375 -0.625 1.1250305q0 0.40625 0.265625 0.734375q0.25 0.34375 0.8125 0.5625q0.3125 0.125 1.859375 0.546875q2.234375 0.59375 3.109375 0.984375q0.890625 0.375 1.390625 1.109375q0.515625 0.71875 0.515625 1.796875q0 1.046875 -0.625 1.984375q-0.609375 0.9375 -1.765625 1.453125q-1.15625 0.5 -2.625 0.5q-2.421875 0 -3.703125 -1.0q-1.265625 -1.015625 -1.625 -3.0z" fill-rule="nonzero"></path><path fill="#ffffff" d="m137.69554 261.47507l0 0c0 -87.76544 29.097961 -158.91339 64.99213 -158.91339l0 0c17.236984 0 33.767975 16.742615 45.956375 46.544662c12.188385 29.802032 19.035736 70.222275 19.035736 112.36873l0 0c0 87.76544 -29.097961 158.91336 -64.99211 158.91336l0 0c-35.894165 0 -64.99213 -71.14792 -64.99213 -158.91336z" fill-rule="nonzero"></path><path stroke="#515151" stroke-width="2.0" stroke-linejoin="round" stroke-linecap="butt" d="m137.69554 261.47507l0 0c0 -87.76544 29.097961 -158.91339 64.99213 -158.91339l0 0c17.236984 0 33.767975 16.742615 45.956375 46.544662c12.188385 29.802032 19.035736 70.222275 19.035736 112.36873l0 0c0 87.76544 -29.097961 158.91336 -64.99211 158.91336l0 0c-35.894165 0 -64.99213 -71.14792 -64.99213 -158.91336z" fill-rule="nonzero"></path><path fill="#000000" fill-opacity="0.0" d="m607.3228 20.249344l428.8504 0l0 516.378l-428.8504 0z" fill-rule="nonzero"></path><path stroke="#515151" stroke-width="2.0" stroke-linejoin="round" stroke-linecap="butt" stroke-dasharray="8.0,6.0" d="m607.3228 20.249344l428.8504 0l0 516.378l-428.8504 0z" fill-rule="nonzero"></path><path fill="#515151" d="m794.60547 519.9242q1.578125 1.09375 2.921875 1.59375l-0.671875 1.59375q-1.859375 -0.671875 -3.6875 -2.125q-1.921875 1.078125 -4.21875 1.078125q-2.34375 0 -4.25 -1.125q-1.890625 -1.125 -2.921875 -3.15625q-1.015625 -2.046875 -1.015625 -4.609375q0 -2.5469055 1.03125 -4.6250305q1.03125 -2.09375 2.9375 -3.171875q1.90625 -1.09375 4.265625 -1.09375q2.375 0 4.28125 1.140625q1.90625 1.125 2.90625 3.15625q1.015625 2.03125 1.015625 4.5781555q0 2.125 -0.65625 3.828125q-0.640625 1.6875 -1.9375 2.9375zm-5.0 -2.90625q1.96875 0.546875 3.234375 1.640625q2.015625 -1.828125 2.015625 -5.5q0 -2.0781555 -0.71875 -3.6406555q-0.703125 -1.5625 -2.078125 -2.421875q-1.359375 -0.859375 -3.0625 -0.859375q-2.53125 0 -4.21875 1.75q-1.671875 1.734375 -1.671875 5.1875305q0 3.359375 1.65625 5.15625q1.65625 1.78125 4.234375 1.78125q1.21875 0 2.296875 -0.453125q-1.0625 -0.6875 -2.25 -0.984375l0.5625 -1.65625zm18.527344 4.75l0 -1.828125q-1.453125 2.109375 -3.9375 2.109375q-1.109375 0 -2.0625 -0.421875q-0.953125 -0.421875 -1.421875 -1.0625q-0.453125 -0.640625 -0.640625 -1.5625q-0.140625 -0.625 -0.140625 -1.96875l0 -7.7187805l2.109375 0l0 6.9062805q0 1.65625 0.140625 2.234375q0.1875 0.828125 0.828125 1.3125q0.65625 0.46875 1.609375 0.46875q0.9375 0 1.765625 -0.484375q0.84375 -0.5 1.1875 -1.328125q0.34375 -0.84375 0.34375 -2.4375l0 -6.6719055l2.109375 0l0 12.4531555l-1.890625 0zm13.722656 -4.015625l2.171875 0.28125q-0.515625 1.90625 -1.90625 2.96875q-1.390625 1.046875 -3.5625 1.046875q-2.734375 0 -4.34375 -1.671875q-1.59375 -1.6875 -1.59375 -4.734375q0 -3.140625 1.609375 -4.8750305q1.625 -1.734375 4.203125 -1.734375q2.5 0 4.078125 1.703125q1.59375 1.7031555 1.59375 4.7812805q0 0.1875 -0.015625 0.5625l-9.28125 0q0.109375 2.046875 1.15625 3.140625q1.046875 1.09375 2.609375 1.09375q1.15625 0 1.96875 -0.609375q0.828125 -0.609375 1.3125 -1.953125zm-6.9375 -3.40625l6.953125 0q-0.140625 -1.5625 -0.796875 -2.3594055q-1.0 -1.21875 -2.609375 -1.21875q-1.453125 0 -2.453125 0.984375q-0.984375 0.9687805 -1.09375 2.5937805zm11.738281 7.421875l0 -12.4531555l1.890625 0l0 1.890625q0.734375 -1.328125 1.34375 -1.75q0.625 -0.421875 1.359375 -0.421875q1.0625 0 2.171875 0.6875l-0.734375 1.953125q-0.765625 -0.453125 -1.546875 -0.453125q-0.6875 0 -1.25 0.421875q-0.546875 0.40628052 -0.78125 1.1406555q-0.34375 1.125 -0.34375 2.46875l0 6.515625l-2.109375 0zm8.0234375 -14.7500305l0 -2.4375l2.109375 0l0 2.4375l-2.109375 0zm0 14.7500305l0 -12.4531555l2.109375 0l0 12.4531555l-2.109375 0zm13.847656 -4.015625l2.171875 0.28125q-0.515625 1.90625 -1.90625 2.96875q-1.390625 1.046875 -3.5625 1.046875q-2.734375 0 -4.34375 -1.671875q-1.59375 -1.6875 -1.59375 -4.734375q0 -3.140625 1.609375 -4.8750305q1.625 -1.734375 4.203125 -1.734375q2.5 0 4.078125 1.703125q1.59375 1.7031555 1.59375 4.7812805q0 0.1875 -0.015625 0.5625l-9.28125 0q0.109375 2.046875 1.15625 3.140625q1.046875 1.09375 2.609375 1.09375q1.15625 0 1.96875 -0.609375q0.828125 -0.609375 1.3125 -1.953125zm-6.9375 -3.40625l6.953125 0q-0.140625 -1.5625 -0.796875 -2.3594055q-1.0 -1.21875 -2.609375 -1.21875q-1.453125 0 -2.453125 0.984375q-0.984375 0.9687805 -1.09375 2.5937805zm10.910156 3.703125l2.09375 -0.328125q0.171875 1.25 0.96875 1.921875q0.8125 0.671875 2.25 0.671875q1.453125 0 2.15625 -0.59375q0.703125 -0.59375 0.703125 -1.390625q0 -0.71875 -0.625 -1.125q-0.421875 -0.28125 -2.15625 -0.71875q-2.3125 -0.578125 -3.21875 -1.0q-0.890625 -0.4375 -1.359375 -1.1875q-0.453125 -0.765625 -0.453125 -1.671875q0 -0.8281555 0.375 -1.5312805q0.390625 -0.71875 1.046875 -1.1875q0.484375 -0.359375 1.328125 -0.609375q0.859375 -0.265625 1.828125 -0.265625q1.46875 0 2.578125 0.421875q1.109375 0.421875 1.625 1.15625q0.53125 0.71875 0.734375 1.9219055l-2.0625 0.28125q-0.140625 -0.9687805 -0.8125 -1.5000305q-0.671875 -0.546875 -1.90625 -0.546875q-1.453125 0 -2.078125 0.484375q-0.625 0.484375 -0.625 1.1250305q0 0.40625 0.265625 0.734375q0.25 0.34375 0.8125 0.5625q0.3125 0.125 1.859375 0.546875q2.234375 0.59375 3.109375 0.984375q0.890625 0.375 1.390625 1.109375q0.515625 0.71875 0.515625 1.796875q0 1.046875 -0.625 1.984375q-0.609375 0.9375 -1.765625 1.453125q-1.15625 0.5 -2.625 0.5q-2.421875 0 -3.703125 -1.0q-1.265625 -1.015625 -1.625 -3.0z" fill-rule="nonzero"></path><path fill="#ffffff" d="m487.2651 83.732285l57.385834 0l0 52.06299l-57.385834 0z" fill-rule="nonzero"></path><path stroke="#515151" stroke-width="1.0" stroke-linejoin="round" stroke-linecap="butt" d="m487.2651 83.732285l57.385834 0l0 52.06299l-57.385834 0z" fill-rule="nonzero"></path><path fill="#515151" d="m511.5514 109.22472q0 -2.421875 0.5 -3.890625q0.5 -1.46875 1.46875 -2.265625q0.984375 -0.796875 2.46875 -0.796875q1.09375 0 1.921875 0.4375q0.828125 0.4375 1.359375 1.28125q0.546875 0.828125 0.84375 2.015625q0.3125 1.1875 0.3125 3.21875q0 2.390625 -0.5 3.859375q-0.484375 1.46875 -1.46875 2.28125q-0.96875 0.796875 -2.46875 0.796875q-1.96875 0 -3.078125 -1.40625q-1.359375 -1.703125 -1.359375 -5.53125zm1.71875 0q0 3.34375 0.78125 4.453125q0.796875 1.109375 1.9375 1.109375q1.15625 0 1.9375 -1.109375q0.78125 -1.125 0.78125 -4.453125q0 -3.359375 -0.78125 -4.46875q-0.78125 -1.109375 -1.953125 -1.109375q-1.15625 0 -1.828125 0.984375q-0.875 1.234375 -0.875 4.59375z" fill-rule="nonzero"></path><path fill="#ffffff" d="m487.2651 135.79527l57.385834 0l0 52.06299l-57.385834 0z" fill-rule="nonzero"></path><path stroke="#515151" stroke-width="1.0" stroke-linejoin="round" stroke-linecap="butt" d="m487.2651 135.79527l57.385834 0l0 52.06299l-57.385834 0z" fill-rule="nonzero"></path><path fill="#515151" d="m520.33264 166.38145l0 1.609375l-8.984375 0q-0.015625 -0.609375 0.1875 -1.15625q0.34375 -0.921875 1.09375 -1.8125q0.765625 -0.890625 2.1875 -2.0625q2.21875 -1.8125 3.0 -2.875q0.78125 -1.0625 0.78125 -2.015625q0 -0.984375 -0.71875 -1.671875q-0.703125 -0.6875 -1.84375 -0.6875q-1.203125 0 -1.9375 0.734375q-0.71875 0.71875 -0.71875 2.0l-1.71875 -0.171875q0.171875 -1.921875 1.328125 -2.921875q1.15625 -1.015625 3.09375 -1.015625q1.953125 0 3.09375 1.09375q1.140625 1.078125 1.140625 2.6875q0 0.8125 -0.34375 1.609375q-0.328125 0.78125 -1.109375 1.65625q-0.765625 0.859375 -2.5625 2.390625q-1.5 1.265625 -1.9375 1.71875q-0.421875 0.4375 -0.703125 0.890625l6.671875 0z" fill-rule="nonzero"></path><path fill="#ffffff" d="m487.2651 186.7559l57.385834 0l0 52.06299l-57.385834 0z" fill-rule="nonzero"></path><path stroke="#515151" stroke-width="1.0" stroke-linejoin="round" stroke-linecap="butt" d="m487.2651 186.7559l57.385834 0l0 52.06299l-57.385834 0z" fill-rule="nonzero"></path><path fill="#515151" d="m511.5514 212.24834q0 -2.421875 0.5 -3.890625q0.5 -1.46875 1.46875 -2.265625q0.984375 -0.796875 2.46875 -0.796875q1.09375 0 1.921875 0.4375q0.828125 0.4375 1.359375 1.28125q0.546875 0.828125 0.84375 2.015625q0.3125 1.1875 0.3125 3.21875q0 2.390625 -0.5 3.859375q-0.484375 1.46875 -1.46875 2.28125q-0.96875 0.796875 -2.46875 0.796875q-1.96875 0 -3.078125 -1.40625q-1.359375 -1.703125 -1.359375 -5.53125zm1.71875 0q0 3.34375 0.78125 4.453125q0.796875 1.109375 1.9375 1.109375q1.15625 0 1.9375 -1.109375q0.78125 -1.125 0.78125 -4.453125q0 -3.359375 -0.78125 -4.46875q-0.78125 -1.109375 -1.953125 -1.109375q-1.15625 0 -1.828125 0.984375q-0.875 1.234375 -0.875 4.59375z" fill-rule="nonzero"></path><path fill="#ffffff" d="m487.2651 238.8189l57.385834 0l0 52.063004l-57.385834 0z" fill-rule="nonzero"></path><path stroke="#515151" stroke-width="1.0" stroke-linejoin="round" stroke-linecap="butt" d="m487.2651 238.8189l57.385834 0l0 52.063004l-57.385834 0z" fill-rule="nonzero"></path><path fill="#515151" d="m511.5514 264.31134q0 -2.421875 0.5 -3.890625q0.5 -1.46875 1.46875 -2.265625q0.984375 -0.796875 2.46875 -0.796875q1.09375 0 1.921875 0.4375q0.828125 0.4375 1.359375 1.28125q0.546875 0.828125 0.84375 2.015625q0.3125 1.1875 0.3125 3.21875q0 2.390625 -0.5 3.859375q-0.484375 1.46875 -1.46875 2.28125q-0.96875 0.796875 -2.46875 0.796875q-1.96875 0 -3.078125 -1.40625q-1.359375 -1.703125 -1.359375 -5.53125zm1.71875 0q0 3.34375 0.78125 4.453125q0.796875 1.109375 1.9375 1.109375q1.15625 0 1.9375 -1.109375q0.78125 -1.125 0.78125 -4.453125q0 -3.359375 -0.78125 -4.46875q-0.78125 -1.109375 -1.953125 -1.109375q-1.15625 0 -1.828125 0.984375q-0.875 1.234375 -0.875 4.59375z" fill-rule="nonzero"></path><path fill="#ffffff" d="m487.2651 289.77954l57.385834 0l0 52.06299l-57.385834 0z" fill-rule="nonzero"></path><path stroke="#515151" stroke-width="1.0" stroke-linejoin="round" stroke-linecap="butt" d="m487.2651 289.77954l57.385834 0l0 52.06299l-57.385834 0z" fill-rule="nonzero"></path><path fill="#515151" d="m511.5514 315.27197q0 -2.421875 0.5 -3.890625q0.5 -1.46875 1.46875 -2.265625q0.984375 -0.796875 2.46875 -0.796875q1.09375 0 1.921875 0.4375q0.828125 0.4375 1.359375 1.28125q0.546875 0.828125 0.84375 2.015625q0.3125 1.1875 0.3125 3.21875q0 2.390625 -0.5 3.859375q-0.484375 1.46875 -1.46875 2.28125q-0.96875 0.796875 -2.46875 0.796875q-1.96875 0 -3.078125 -1.40625q-1.359375 -1.703125 -1.359375 -5.53125zm1.71875 0q0 3.34375 0.78125 4.453125q0.796875 1.109375 1.9375 1.109375q1.15625 0 1.9375 -1.109375q0.78125 -1.125 0.78125 -4.453125q0 -3.359375 -0.78125 -4.46875q-0.78125 -1.109375 -1.953125 -1.109375q-1.15625 0 -1.828125 0.984375q-0.875 1.234375 -0.875 4.59375z" fill-rule="nonzero"></path><path fill="#ffffff" d="m487.2651 341.84253l57.385834 0l0 52.06299l-57.385834 0z" fill-rule="nonzero"></path><path stroke="#515151" stroke-width="1.0" stroke-linejoin="round" stroke-linecap="butt" d="m487.2651 341.84253l57.385834 0l0 52.06299l-57.385834 0z" fill-rule="nonzero"></path><path fill="#515151" d="m511.5514 367.33496q0 -2.421875 0.5 -3.890625q0.5 -1.46875 1.46875 -2.265625q0.984375 -0.796875 2.46875 -0.796875q1.09375 0 1.921875 0.4375q0.828125 0.4375 1.359375 1.28125q0.546875 0.828125 0.84375 2.015625q0.3125 1.1875 0.3125 3.21875q0 2.390625 -0.5 3.859375q-0.484375 1.46875 -1.46875 2.28125q-0.96875 0.796875 -2.46875 0.796875q-1.96875 0 -3.078125 -1.40625q-1.359375 -1.703125 -1.359375 -5.53125zm1.71875 0q0 3.34375 0.78125 4.453125q0.796875 1.109375 1.9375 1.109375q1.15625 0 1.9375 -1.109375q0.78125 -1.125 0.78125 -4.453125q0 -3.359375 -0.78125 -4.46875q-0.78125 -1.109375 -1.953125 -1.109375q-1.15625 0 -1.828125 0.984375q-0.875 1.234375 -0.875 4.59375z" fill-rule="nonzero"></path><path fill="#ffffff" d="m487.2651 392.80316l57.385834 0l0 52.06299l-57.385834 0z" fill-rule="nonzero"></path><path stroke="#515151" stroke-width="1.0" stroke-linejoin="round" stroke-linecap="butt" d="m487.2651 392.80316l57.385834 0l0 52.06299l-57.385834 0z" fill-rule="nonzero"></path><path fill="#515151" d="m517.84827 424.99872l-1.671875 0l0 -10.640625q-0.59375 0.578125 -1.578125 1.15625q-0.984375 0.5625 -1.765625 0.859375l0 -1.625q1.40625 -0.65625 2.453125 -1.59375q1.046875 -0.9375 1.484375 -1.8125l1.078125 0l0 13.65625z" fill-rule="nonzero"></path><path fill="#ffffff" d="m487.2651 444.86615l57.385834 0l0 52.06299l-57.385834 0z" fill-rule="nonzero"></path><path stroke="#515151" stroke-width="1.0" stroke-linejoin="round" stroke-linecap="butt" d="m487.2651 444.86615l57.385834 0l0 52.06299l-57.385834 0z" fill-rule="nonzero"></path><path fill="#515151" d="m517.84827 477.0617l-1.671875 0l0 -10.640625q-0.59375 0.578125 -1.578125 1.15625q-0.984375 0.5625 -1.765625 0.859375l0 -1.625q1.40625 -0.65625 2.453125 -1.59375q1.046875 -0.9375 1.484375 -1.8125l1.078125 0l0 13.65625z" fill-rule="nonzero"></path><path fill="#ffffff" d="m547.29395 83.732285l57.385864 0l0 52.06299l-57.385864 0z" fill-rule="nonzero"></path><path stroke="#515151" stroke-width="1.0" stroke-linejoin="round" stroke-linecap="butt" d="m547.29395 83.732285l57.385864 0l0 52.06299l-57.385864 0z" fill-rule="nonzero"></path><path fill="#515151" d="m577.87714 115.92784l-1.671875 0l0 -10.640625q-0.59375 0.578125 -1.578125 1.15625q-0.984375 0.5625 -1.765625 0.859375l0 -1.625q1.40625 -0.65625 2.453125 -1.59375q1.046875 -0.9375 1.484375 -1.8125l1.078125 0l0 13.65625z" fill-rule="nonzero"></path><path fill="#ffffff" d="m547.29395 135.79527l57.385864 0l0 52.06299l-57.385864 0z" fill-rule="nonzero"></path><path stroke="#515151" stroke-width="1.0" stroke-linejoin="round" stroke-linecap="butt" d="m547.29395 135.79527l57.385864 0l0 52.06299l-57.385864 0z" fill-rule="nonzero"></path><path fill="#515151" d="m571.58026 161.2877q0 -2.421875 0.5 -3.890625q0.5 -1.46875 1.46875 -2.265625q0.984375 -0.796875 2.46875 -0.796875q1.09375 0 1.921875 0.4375q0.828125 0.4375 1.359375 1.28125q0.546875 0.828125 0.84375 2.015625q0.3125 1.1875 0.3125 3.21875q0 2.390625 -0.5 3.859375q-0.484375 1.46875 -1.46875 2.28125q-0.96875 0.796875 -2.46875 0.796875q-1.96875 0 -3.078125 -1.40625q-1.359375 -1.703125 -1.359375 -5.53125zm1.71875 0q0 3.34375 0.78125 4.453125q0.796875 1.109375 1.9375 1.109375q1.15625 0 1.9375 -1.109375q0.78125 -1.125 0.78125 -4.453125q0 -3.359375 -0.78125 -4.46875q-0.78125 -1.109375 -1.953125 -1.109375q-1.15625 0 -1.828125 0.984375q-0.875 1.234375 -0.875 4.59375z" fill-rule="nonzero"></path><path fill="#ffffff" d="m547.29395 186.7559l57.385864 0l0 52.06299l-57.385864 0z" fill-rule="nonzero"></path><path stroke="#515151" stroke-width="1.0" stroke-linejoin="round" stroke-linecap="butt" d="m547.29395 186.7559l57.385864 0l0 52.06299l-57.385864 0z" fill-rule="nonzero"></path><path fill="#515151" d="m571.5959 215.35771l1.671875 -0.21875q0.28125 1.421875 0.96875 2.046875q0.703125 0.625 1.6875 0.625q1.1875 0 2.0 -0.8125q0.8125 -0.828125 0.8125 -2.03125q0 -1.140625 -0.765625 -1.890625q-0.75 -0.75 -1.90625 -0.75q-0.46875 0 -1.171875 0.1875l0.1875 -1.46875q0.15625 0.015625 0.265625 0.015625q1.0625 0 1.90625 -0.546875q0.859375 -0.5625 0.859375 -1.71875q0 -0.921875 -0.625 -1.515625q-0.609375 -0.609375 -1.59375 -0.609375q-0.96875 0 -1.625 0.609375q-0.640625 0.609375 -0.828125 1.84375l-1.671875 -0.296875q0.296875 -1.6875 1.375 -2.609375q1.09375 -0.921875 2.71875 -0.921875q1.109375 0 2.046875 0.484375q0.9375 0.46875 1.421875 1.296875q0.5 0.828125 0.5 1.75q0 0.890625 -0.46875 1.609375q-0.46875 0.71875 -1.40625 1.15625q1.21875 0.265625 1.875 1.15625q0.671875 0.875 0.671875 2.1875q0 1.78125 -1.296875 3.015625q-1.296875 1.234375 -3.28125 1.234375q-1.796875 0 -2.984375 -1.0625q-1.171875 -1.0625 -1.34375 -2.765625z" fill-rule="nonzero"></path><path fill="#ffffff" d="m547.29395 238.8189l57.385864 0l0 52.063004l-57.385864 0z" fill-rule="nonzero"></path><path stroke="#515151" stroke-width="1.0" stroke-linejoin="round" stroke-linecap="butt" d="m547.29395 238.8189l57.385864 0l0 52.063004l-57.385864 0z" fill-rule="nonzero"></path><path fill="#515151" d="m571.58026 264.31134q0 -2.421875 0.5 -3.890625q0.5 -1.46875 1.46875 -2.265625q0.984375 -0.796875 2.46875 -0.796875q1.09375 0 1.921875 0.4375q0.828125 0.4375 1.359375 1.28125q0.546875 0.828125 0.84375 2.015625q0.3125 1.1875 0.3125 3.21875q0 2.390625 -0.5 3.859375q-0.484375 1.46875 -1.46875 2.28125q-0.96875 0.796875 -2.46875 0.796875q-1.96875 0 -3.078125 -1.40625q-1.359375 -1.703125 -1.359375 -5.53125zm1.71875 0q0 3.34375 0.78125 4.453125q0.796875 1.109375 1.9375 1.109375q1.15625 0 1.9375 -1.109375q0.78125 -1.125 0.78125 -4.453125q0 -3.359375 -0.78125 -4.46875q-0.78125 -1.109375 -1.953125 -1.109375q-1.15625 0 -1.828125 0.984375q-0.875 1.234375 -0.875 4.59375z" fill-rule="nonzero"></path><path fill="#ffffff" d="m547.29395 289.77954l57.385864 0l0 52.06299l-57.385864 0z" fill-rule="nonzero"></path><path stroke="#515151" stroke-width="1.0" stroke-linejoin="round" stroke-linecap="butt" d="m547.29395 289.77954l57.385864 0l0 52.06299l-57.385864 0z" fill-rule="nonzero"></path><path fill="#515151" d="m571.58026 315.27197q0 -2.421875 0.5 -3.890625q0.5 -1.46875 1.46875 -2.265625q0.984375 -0.796875 2.46875 -0.796875q1.09375 0 1.921875 0.4375q0.828125 0.4375 1.359375 1.28125q0.546875 0.828125 0.84375 2.015625q0.3125 1.1875 0.3125 3.21875q0 2.390625 -0.5 3.859375q-0.484375 1.46875 -1.46875 2.28125q-0.96875 0.796875 -2.46875 0.796875q-1.96875 0 -3.078125 -1.40625q-1.359375 -1.703125 -1.359375 -5.53125zm1.71875 0q0 3.34375 0.78125 4.453125q0.796875 1.109375 1.9375 1.109375q1.15625 0 1.9375 -1.109375q0.78125 -1.125 0.78125 -4.453125q0 -3.359375 -0.78125 -4.46875q-0.78125 -1.109375 -1.953125 -1.109375q-1.15625 0 -1.828125 0.984375q-0.875 1.234375 -0.875 4.59375z" fill-rule="nonzero"></path><path fill="#ffffff" d="m547.29395 341.84253l57.385864 0l0 52.06299l-57.385864 0z" fill-rule="nonzero"></path><path stroke="#515151" stroke-width="1.0" stroke-linejoin="round" stroke-linecap="butt" d="m547.29395 341.84253l57.385864 0l0 52.06299l-57.385864 0z" fill-rule="nonzero"></path><path fill="#515151" d="m571.58026 367.33496q0 -2.421875 0.5 -3.890625q0.5 -1.46875 1.46875 -2.265625q0.984375 -0.796875 2.46875 -0.796875q1.09375 0 1.921875 0.4375q0.828125 0.4375 1.359375 1.28125q0.546875 0.828125 0.84375 2.015625q0.3125 1.1875 0.3125 3.21875q0 2.390625 -0.5 3.859375q-0.484375 1.46875 -1.46875 2.28125q-0.96875 0.796875 -2.46875 0.796875q-1.96875 0 -3.078125 -1.40625q-1.359375 -1.703125 -1.359375 -5.53125zm1.71875 0q0 3.34375 0.78125 4.453125q0.796875 1.109375 1.9375 1.109375q1.15625 0 1.9375 -1.109375q0.78125 -1.125 0.78125 -4.453125q0 -3.359375 -0.78125 -4.46875q-0.78125 -1.109375 -1.953125 -1.109375q-1.15625 0 -1.828125 0.984375q-0.875 1.234375 -0.875 4.59375z" fill-rule="nonzero"></path><path fill="#ffffff" d="m547.29395 392.80316l57.385864 0l0 52.06299l-57.385864 0z" fill-rule="nonzero"></path><path stroke="#515151" stroke-width="1.0" stroke-linejoin="round" stroke-linecap="butt" d="m547.29395 392.80316l57.385864 0l0 52.06299l-57.385864 0z" fill-rule="nonzero"></path><path fill="#515151" d="m571.58026 418.2956q0 -2.421875 0.5 -3.890625q0.5 -1.46875 1.46875 -2.265625q0.984375 -0.796875 2.46875 -0.796875q1.09375 0 1.921875 0.4375q0.828125 0.4375 1.359375 1.28125q0.546875 0.828125 0.84375 2.015625q0.3125 1.1875 0.3125 3.21875q0 2.390625 -0.5 3.859375q-0.484375 1.46875 -1.46875 2.28125q-0.96875 0.796875 -2.46875 0.796875q-1.96875 0 -3.078125 -1.40625q-1.359375 -1.703125 -1.359375 -5.53125zm1.71875 0q0 3.34375 0.78125 4.453125q0.796875 1.109375 1.9375 1.109375q1.15625 0 1.9375 -1.109375q0.78125 -1.125 0.78125 -4.453125q0 -3.359375 -0.78125 -4.46875q-0.78125 -1.109375 -1.953125 -1.109375q-1.15625 0 -1.828125 0.984375q-0.875 1.234375 -0.875 4.59375z" fill-rule="nonzero"></path><path fill="#ffffff" d="m547.29395 444.86615l57.385864 0l0 52.06299l-57.385864 0z" fill-rule="nonzero"></path><path stroke="#515151" stroke-width="1.0" stroke-linejoin="round" stroke-linecap="butt" d="m547.29395 444.86615l57.385864 0l0 52.06299l-57.385864 0z" fill-rule="nonzero"></path><path fill="#515151" d="m571.58026 470.35858q0 -2.421875 0.5 -3.890625q0.5 -1.46875 1.46875 -2.265625q0.984375 -0.796875 2.46875 -0.796875q1.09375 0 1.921875 0.4375q0.828125 0.4375 1.359375 1.28125q0.546875 0.828125 0.84375 2.015625q0.3125 1.1875 0.3125 3.21875q0 2.390625 -0.5 3.859375q-0.484375 1.46875 -1.46875 2.28125q-0.96875 0.796875 -2.46875 0.796875q-1.96875 0 -3.078125 -1.40625q-1.359375 -1.703125 -1.359375 -5.53125zm1.71875 0q0 3.34375 0.78125 4.453125q0.796875 1.109375 1.9375 1.109375q1.15625 0 1.9375 -1.109375q0.78125 -1.125 0.78125 -4.453125q0 -3.359375 -0.78125 -4.46875q-0.78125 -1.109375 -1.953125 -1.109375q-1.15625 0 -1.828125 0.984375q-0.875 1.234375 -0.875 4.59375z" fill-rule="nonzero"></path><path fill="#515151" d="m164.2336 197.52756l10.157486 -40.629913l41.905502 0l-10.157471 40.629913z" fill-rule="nonzero"></path><path stroke="#ffffff" stroke-width="2.0" stroke-linejoin="round" stroke-linecap="butt" d="m164.2336 197.52756l10.157486 -40.629913l41.905502 0l-10.157471 40.629913z" fill-rule="nonzero"></path><path fill="#ffffff" d="m188.44508 184.44698l-1.515625 0l0 -9.671875q0 -1.203125 0.078125 -2.28125q-0.1875 0.203125 -0.4375 0.421875q-0.234375 0.203125 -2.203125 1.796875l-0.8125 -1.0625l3.578125 -2.765625l1.3125 0l0 13.5625z" fill-rule="nonzero"></path><path fill="#515151" d="m208.75908 283.9533c-9.698624 6.8928223 -23.615173 7.5987244 -34.224197 1.7359924c-10.609024 -5.862732 -15.392441 -16.902588 -11.763611 -27.149689c3.6288452 -10.247086 14.808609 -17.269272 27.49382 -17.269272z" fill-rule="nonzero"></path><path stroke="#ffffff" stroke-width="2.0" stroke-linejoin="round" stroke-linecap="butt" d="m208.75908 283.9533c-9.698624 6.8928223 -23.615173 7.5987244 -34.224197 1.7359924c-10.609024 -5.862732 -15.392441 -16.902588 -11.763611 -27.149689c3.6288452 -10.247086 14.808609 -17.269272 27.49382 -17.269272z" fill-rule="nonzero"></path><path fill="#ffffff" d="m188.81989 272.6937l-8.921875 0l0 -1.328125l3.578125 -3.59375q1.625 -1.640625 2.140625 -2.34375q0.53125 -0.71875 0.78125 -1.375q0.265625 -0.671875 0.265625 -1.4375q0 -1.09375 -0.65625 -1.71875q-0.65625 -0.640625 -1.828125 -0.640625q-0.84375 0 -1.609375 0.28125q-0.75 0.265625 -1.671875 1.0l-0.8125 -1.046875q1.875 -1.5625 4.078125 -1.5625q1.90625 0 2.984375 0.984375q1.09375 0.984375 1.09375 2.625q0 1.296875 -0.71875 2.5625q-0.71875 1.25 -2.71875 3.1875l-2.96875 2.90625l0 0.078125l6.984375 0l0 1.421875z" fill-rule="nonzero"></path><path fill="#000000" fill-opacity="0.0" d="m211.21785 177.2126l362.48822 -64.72442" fill-rule="nonzero"></path><path stroke="#009f5d" stroke-width="2.0" stroke-linejoin="round" stroke-linecap="butt" d="m211.21785 177.2126l350.67505 -62.615097" fill-rule="evenodd"></path><path fill="#009f5d" stroke="#009f5d" stroke-width="2.0" stroke-linecap="butt" d="m562.4736 117.84953l8.354187 -4.847412l-9.515564 -1.6566544z" fill-rule="evenodd"></path><path fill="#000000" fill-opacity="0.0" d="m211.21785 177.2126l294.99213 242.42519" fill-rule="nonzero"></path><path stroke="#0066cc" stroke-width="2.0" stroke-linejoin="round" stroke-linecap="butt" d="m211.21785 177.2126l285.72113 234.80626" fill-rule="evenodd"></path><path fill="#0066cc" stroke="#0066cc" stroke-width="2.0" stroke-linecap="butt" d="m494.84155 414.57108l9.109528 3.2103577l-4.9147034 -8.314789z" fill-rule="evenodd"></path><path fill="#000000" fill-opacity="0.0" d="m199.51208 262.61182l371.937 -48.850388" fill-rule="nonzero"></path><path stroke="#009f5d" stroke-width="4.0" stroke-linejoin="round" stroke-linecap="butt" d="m199.5121 262.61185l348.14136 -45.725082" fill-rule="evenodd"></path><path fill="#009f5d" stroke="#009f5d" stroke-width="4.0" stroke-linecap="butt" d="m548.51385 223.43744l17.137451 -8.914505l-18.858215 -4.1868286z" fill-rule="evenodd"></path><path fill="#000000" fill-opacity="0.0" d="m199.51208 262.61182l307.81104 -101.732285" fill-rule="nonzero"></path><path stroke="#0066cc" stroke-width="4.0" stroke-linejoin="round" stroke-linecap="butt" d="m199.5121 262.61185l285.02332 -94.20093" fill-rule="evenodd"></path><path fill="#0066cc" stroke="#0066cc" stroke-width="4.0" stroke-linecap="butt" d="m486.60876 174.68411l15.16214 -11.969543l-19.308777 -0.576828z" fill-rule="evenodd"></path><path fill="#000000" fill-opacity="0.0" d="m216.29659 359.42258l294.39374 107.46457" fill-rule="nonzero"></path><path stroke="#0066cc" stroke-width="2.0" stroke-linejoin="round" stroke-linecap="butt" d="m216.29659 359.42258l283.12128 103.3497" fill-rule="evenodd"></path><path fill="#0066cc" stroke="#0066cc" stroke-width="2.0" stroke-linecap="butt" d="m498.28506 465.87546l9.658691 0.009094238l-7.3931274 -6.215454z" fill-rule="evenodd"></path><path fill="#000000" fill-opacity="0.0" d="m216.29659 359.42258l354.04724 -142.29921" fill-rule="nonzero"></path><path stroke="#009f5d" stroke-width="2.0" stroke-linejoin="round" stroke-linecap="butt" d="m216.29659 359.42258l342.91296 -137.8241" fill-rule="evenodd"></path><path fill="#009f5d" stroke="#009f5d" stroke-width="2.0" stroke-linecap="butt" d="m560.44147 224.66364l7.189453 -6.4499054l-9.653381 0.31959534z" fill-rule="evenodd"></path><path fill="#000000" fill-opacity="0.0" d="m448.72702 32.157482l199.18112 0l0 68.06299l-199.18112 0z" fill-rule="nonzero"></path><path fill="#0066cc" d="m502.28632 72.173355l0 -8.3125q0 -1.5625 -0.71875 -2.328125q-0.71875 -0.78125 -2.234375 -0.78125q-2.03125 0 -2.96875 1.109375q-0.921875 1.09375 -0.921875 3.59375l0 6.71875l-1.953125 0l0 -18.234375l1.953125 0l0 5.515625q0 1.0 -0.09375 1.65625l0.109375 0q0.578125 -0.921875 1.640625 -1.453125q1.0625 -0.546875 2.421875 -0.546875q2.34375 0 3.515625 1.125q1.1875 1.125 1.1875 3.5625l0 8.375l-1.9375 0z" fill-rule="nonzero"></path><path fill="#0066cc" d="m511.75116 81.173355l-1.265625 0l0 -8.140625q0 -1.015625 0.0625 -1.921875q-0.171875 0.15625 -0.375 0.34375q-0.203125 0.171875 -1.859375 1.515625l-0.6875 -0.890625l3.03125 -2.328125l1.09375 0l0 11.421875z" fill-rule="nonzero"></path><path fill="#0066cc" d="m516.2746 65.59523q0 -3.109375 0.90625 -5.8125q0.90625 -2.703125 2.609375 -4.75l1.90625 0q-1.6875 2.265625 -2.546875 4.984375q-0.84375 2.703125 -0.84375 5.5625q0 2.8125 0.859375 5.5q0.875 2.671875 2.5 4.890625l-1.875 0q-1.71875 -1.984375 -2.625 -4.640625q-0.890625 -2.671875 -0.890625 -5.734375zm11.2890625 0l-4.46875 -6.265625l2.21875 0l3.390625 4.921875l3.375 -4.921875l2.1875 0l-4.46875 6.265625l4.703125 6.578125l-2.203125 0l-3.59375 -5.203125l-3.640625 5.203125l-2.203125 0l4.703125 -6.578125zm13.558594 0q0 3.078125 -0.90625 5.75q-0.90625 2.65625 -2.625 4.625l-1.875 0q1.640625 -2.203125 2.5 -4.890625q0.875 -2.6875 0.875 -5.5q0 -2.859375 -0.859375 -5.5625q-0.84375 -2.71875 -2.53125 -4.984375l1.890625 0q1.734375 2.0625 2.625 4.78125q0.90625 2.703125 0.90625 5.78125z" fill-rule="nonzero"></path><path fill="#009f5d" d="m565.4113 72.173355l0 -8.3125q0 -1.5625 -0.71875 -2.328125q-0.71875 -0.78125 -2.234375 -0.78125q-2.03125 0 -2.96875 1.109375q-0.921875 1.09375 -0.921875 3.59375l0 6.71875l-1.953125 0l0 -18.234375l1.953125 0l0 5.515625q0 1.0 -0.09375 1.65625l0.109375 0q0.578125 -0.921875 1.640625 -1.453125q1.0625 -0.546875 2.421875 -0.546875q2.34375 0 3.515625 1.125q1.1875 1.125 1.1875 3.5625l0 8.375l-1.9375 0z" fill-rule="nonzero"></path><path fill="#009f5d" d="m577.5793 81.173355l-7.515625 0l0 -1.125l3.015625 -3.015625q1.375 -1.390625 1.8125 -1.984375q0.4375 -0.59375 0.65625 -1.15625q0.21875 -0.5625 0.21875 -1.21875q0 -0.90625 -0.5625 -1.4375q-0.546875 -0.546875 -1.53125 -0.546875q-0.71875 0 -1.359375 0.234375q-0.625 0.234375 -1.40625 0.859375l-0.6875 -0.890625q1.578125 -1.3125 3.4375 -1.3125q1.609375 0 2.515625 0.828125q0.921875 0.828125 0.921875 2.21875q0 1.078125 -0.609375 2.140625q-0.609375 1.0625 -2.28125 2.6875l-2.5 2.453125l0 0.0625l5.875 0l0 1.203125z" fill-rule="nonzero"></path><path fill="#009f5d" d="m579.3996 65.59523q0 -3.109375 0.90625 -5.8125q0.90625 -2.703125 2.609375 -4.75l1.90625 0q-1.6875 2.265625 -2.546875 4.984375q-0.84375 2.703125 -0.84375 5.5625q0 2.8125 0.859375 5.5q0.875 2.671875 2.5 4.890625l-1.875 0q-1.71875 -1.984375 -2.625 -4.640625q-0.890625 -2.671875 -0.890625 -5.734375zm11.2890625 0l-4.46875 -6.265625l2.21875 0l3.390625 4.921875l3.375 -4.921875l2.1875 0l-4.46875 6.265625l4.703125 6.578125l-2.203125 0l-3.59375 -5.203125l-3.640625 5.203125l-2.203125 0l4.703125 -6.578125zm13.558594 0q0 3.078125 -0.90625 5.75q-0.90625 2.65625 -2.625 4.625l-1.875 0q1.640625 -2.203125 2.5 -4.890625q0.875 -2.6875 0.875 -5.5q0 -2.859375 -0.859375 -5.5625q-0.84375 -2.71875 -2.53125 -4.984375l1.890625 0q1.734375 2.0625 2.625 4.78125q0.90625 2.703125 0.90625 5.78125z" fill-rule="nonzero"></path><path fill="#000000" fill-opacity="0.0" d="m700.07874 325.39108l307.81104 0l0 68.06299l-307.81104 0z" fill-rule="nonzero"></path><path fill="#515151" d="m712.46936 364.01633l0 -0.640625q0 -1.375 0.421875 -2.25q0.421875 -0.890625 1.5625 -1.875q1.59375 -1.34375 2.015625 -2.015625q0.421875 -0.6875 0.421875 -1.65625q0 -1.1875 -0.78125 -1.828125q-0.765625 -0.65625 -2.203125 -0.65625q-0.921875 0 -1.8125 0.21875q-0.875 0.203125 -2.0 0.78125l-0.703125 -1.578125q2.21875 -1.15625 4.640625 -1.15625q2.234375 0 3.46875 1.109375q1.25 1.09375 1.25 3.09375q0 0.859375 -0.234375 1.515625q-0.21875 0.640625 -0.671875 1.21875q-0.4375 0.578125 -1.921875 1.875q-1.1875 1.0 -1.5625 1.671875q-0.375 0.671875 -0.375 1.78125l0 0.390625l-1.515625 0zm-0.578125 3.46875q0 -1.59375 1.40625 -1.59375q0.6875 0 1.046875 0.421875q0.375 0.40625 0.375 1.171875q0 0.75 -0.375 1.171875q-0.375 0.421875 -1.046875 0.421875q-0.609375 0 -1.015625 -0.375q-0.390625 -0.375 -0.390625 -1.21875zm26.941406 -10.890625q0 2.59375 -1.78125 4.0q-1.765625 1.40625 -5.078125 1.40625l-2.015625 0l0 6.734375l-1.984375 0l0 -17.140625l4.4375 0q6.421875 0 6.421875 5.0zm-8.875 3.6875l1.796875 0q2.65625 0 3.828125 -0.84375q1.1875 -0.859375 1.1875 -2.75q0 -1.703125 -1.109375 -2.53125q-1.109375 -0.828125 -3.46875 -0.828125l-2.234375 0l0 6.953125zm18.027344 -4.625q0.859375 0 1.53125 0.140625l-0.265625 1.796875q-0.796875 -0.171875 -1.40625 -0.171875q-1.5625 0 -2.671875 1.265625q-1.09375 1.265625 -1.09375 3.15625l0 6.890625l-1.953125 0l0 -12.84375l1.609375 0l0.21875 2.375l0.09375 0q0.71875 -1.25 1.71875 -1.921875q1.015625 -0.6875 2.21875 -0.6875zm15.03125 6.640625q0 3.140625 -1.59375 4.90625q-1.578125 1.765625 -4.359375 1.765625q-1.734375 0 -3.078125 -0.8125q-1.328125 -0.8125 -2.0625 -2.3125q-0.71875 -1.515625 -0.71875 -3.546875q0 -3.140625 1.5625 -4.890625q1.578125 -1.75 4.375 -1.75q2.6875 0 4.28125 1.796875q1.59375 1.78125 1.59375 4.84375zm-9.796875 0q0 2.46875 0.984375 3.765625q0.984375 1.28125 2.90625 1.28125q1.90625 0 2.890625 -1.28125q1.0 -1.296875 1.0 -3.765625q0 -2.453125 -1.0 -3.71875q-0.984375 -1.265625 -2.921875 -1.265625q-1.90625 0 -2.890625 1.25q-0.96875 1.25 -0.96875 3.734375zm16.011719 6.4375l-4.875 -12.84375l2.09375 0l2.765625 7.609375q0.9375 2.671875 1.09375 3.46875l0.09375 0q0.125 -0.609375 0.8125 -2.5625q0.6875 -1.953125 3.078125 -8.515625l2.09375 0l-4.875 12.84375l-2.28125 0zm17.117188 0l-0.390625 -1.828125l-0.09375 0q-0.96875 1.203125 -1.921875 1.640625q-0.953125 0.421875 -2.375 0.421875q-1.921875 0 -3.0 -0.984375q-1.078125 -0.984375 -1.078125 -2.796875q0 -3.890625 6.21875 -4.078125l2.171875 -0.078125l0 -0.796875q0 -1.515625 -0.65625 -2.234375q-0.640625 -0.71875 -2.0625 -0.71875q-1.609375 0 -3.640625 0.984375l-0.59375 -1.484375q0.953125 -0.515625 2.078125 -0.8125q1.125 -0.296875 2.265625 -0.296875q2.296875 0 3.40625 1.03125q1.109375 1.015625 1.109375 3.265625l0 8.765625l-1.4375 0zm-4.40625 -1.375q1.828125 0 2.859375 -0.984375q1.03125 -1.0 1.03125 -2.796875l0 -1.15625l-1.9375 0.078125q-2.328125 0.078125 -3.359375 0.71875q-1.015625 0.640625 -1.015625 1.984375q0 1.0625 0.640625 1.609375q0.640625 0.546875 1.78125 0.546875zm12.660156 1.375l-4.875 -12.84375l2.09375 0l2.765625 7.609375q0.9375 2.671875 1.09375 3.46875l0.09375 0q0.125 -0.609375 0.8125 -2.5625q0.6875 -1.953125 3.078125 -8.515625l2.09375 0l-4.875 12.84375l-2.28125 0zm14.6328125 0.234375q-2.84375 0 -4.5 -1.734375q-1.640625 -1.734375 -1.640625 -4.8125q0 -3.109375 1.53125 -4.9375q1.53125 -1.828125 4.109375 -1.828125q2.421875 0 3.828125 1.59375q1.40625 1.578125 1.40625 4.1875l0 1.21875l-8.859375 0q0.0625 2.265625 1.140625 3.4375q1.09375 1.171875 3.0625 1.171875q2.078125 0 4.09375 -0.859375l0 1.734375q-1.03125 0.4375 -1.953125 0.625q-0.90625 0.203125 -2.21875 0.203125zm-0.515625 -11.6875q-1.546875 0 -2.46875 1.015625q-0.921875 1.0 -1.09375 2.78125l6.71875 0q0 -1.84375 -0.828125 -2.8125q-0.8125 -0.984375 -2.328125 -0.984375zm10.511719 11.453125l-1.953125 0l0 -18.234375l1.953125 0l0 18.234375zm20.492188 0l0 -8.359375q0 -1.53125 -0.65625 -2.296875q-0.65625 -0.765625 -2.046875 -0.765625q-1.8125 0 -2.6875 1.046875q-0.859375 1.03125 -0.859375 3.203125l0 7.171875l-1.9375 0l0 -8.359375q0 -1.53125 -0.65625 -2.296875q-0.65625 -0.765625 -2.0625 -0.765625q-1.828125 0 -2.671875 1.09375q-0.84375 1.09375 -0.84375 3.59375l0 6.734375l-1.953125 0l0 -12.84375l1.578125 0l0.328125 1.75l0.09375 0q0.546875 -0.9375 1.546875 -1.453125q1.0 -0.53125 2.25 -0.53125q3.0 0 3.9375 2.171875l0.09375 0q0.5625 -1.0 1.65625 -1.578125q1.09375 -0.59375 2.484375 -0.59375q2.1875 0 3.265625 1.125q1.078125 1.109375 1.078125 3.578125l0 8.375l-1.9375 0zm11.371094 0.234375q-2.84375 0 -4.5 -1.734375q-1.640625 -1.734375 -1.640625 -4.8125q0 -3.109375 1.53125 -4.9375q1.53125 -1.828125 4.109375 -1.828125q2.421875 0 3.828125 1.59375q1.40625 1.578125 1.40625 4.1875l0 1.21875l-8.859375 0q0.0625 2.265625 1.140625 3.4375q1.09375 1.171875 3.0625 1.171875q2.078125 0 4.09375 -0.859375l0 1.734375q-1.03125 0.4375 -1.953125 0.625q-0.90625 0.203125 -2.21875 0.203125zm-0.515625 -11.6875q-1.546875 0 -2.46875 1.015625q-0.921875 1.0 -1.09375 2.78125l6.71875 0q0 -1.84375 -0.828125 -2.8125q-0.8125 -0.984375 -2.328125 -0.984375zm17.355469 11.453125l0 -8.3125q0 -1.5625 -0.71875 -2.328125q-0.71875 -0.78125 -2.234375 -0.78125q-2.015625 0 -2.953125 1.09375q-0.9375 1.078125 -0.9375 3.59375l0 6.734375l-1.953125 0l0 -12.84375l1.578125 0l0.328125 1.75l0.09375 0q0.59375 -0.9375 1.671875 -1.453125q1.078125 -0.53125 2.40625 -0.53125q2.3125 0 3.484375 1.125q1.171875 1.109375 1.171875 3.578125l0 8.375l-1.9375 0zm10.089844 -1.375q0.515625 0 0.984375 -0.078125q0.484375 -0.078125 0.765625 -0.15625l0 1.484375q-0.3125 0.15625 -0.9375 0.25q-0.609375 0.109375 -1.09375 0.109375q-3.734375 0 -3.734375 -3.921875l0 -7.640625l-1.84375 0l0 -0.9375l1.84375 -0.8125l0.828125 -2.75l1.125 0l0 2.984375l3.71875 0l0 1.515625l-3.71875 0l0 7.546875q0 1.171875 0.546875 1.796875q0.546875 0.609375 1.515625 0.609375zm9.738281 1.609375q-2.84375 0 -4.5 -1.734375q-1.640625 -1.734375 -1.640625 -4.8125q0 -3.109375 1.53125 -4.9375q1.53125 -1.828125 4.109375 -1.828125q2.421875 0 3.828125 1.59375q1.40625 1.578125 1.40625 4.1875l0 1.21875l-8.859375 0q0.0625 2.265625 1.140625 3.4375q1.09375 1.171875 3.0625 1.171875q2.078125 0 4.09375 -0.859375l0 1.734375q-1.03125 0.4375 -1.953125 0.625q-0.90625 0.203125 -2.21875 0.203125zm-0.515625 -11.6875q-1.546875 0 -2.46875 1.015625q-0.921875 1.0 -1.09375 2.78125l6.71875 0q0 -1.84375 -0.828125 -2.8125q-0.8125 -0.984375 -2.328125 -0.984375zm25.167969 11.453125l-11.265625 0l0 -1.671875l4.515625 -4.546875q2.0625 -2.078125 2.71875 -2.96875q0.65625 -0.890625 0.984375 -1.734375q0.328125 -0.84375 0.328125 -1.8125q0 -1.375 -0.84375 -2.171875q-0.828125 -0.8125 -2.296875 -0.8125q-1.0625 0 -2.03125 0.359375q-0.953125 0.34375 -2.125 1.265625l-1.03125 -1.3125q2.375 -1.96875 5.15625 -1.96875q2.421875 0 3.78125 1.234375q1.375 1.234375 1.375 3.3125q0 1.640625 -0.921875 3.234375q-0.90625 1.59375 -3.40625 4.03125l-3.75 3.65625l0 0.09375l8.8125 0l0 1.8125zm12.394531 0l-4.875 -12.84375l2.09375 0l2.765625 7.609375q0.9375 2.671875 1.09375 3.46875l0.09375 0q0.125 -0.609375 0.8125 -2.5625q0.6875 -1.953125 3.078125 -8.515625l2.09375 0l-4.875 12.84375l-2.28125 0zm14.6328125 0.234375q-2.84375 0 -4.5 -1.734375q-1.640625 -1.734375 -1.640625 -4.8125q0 -3.109375 1.53125 -4.9375q1.53125 -1.828125 4.109375 -1.828125q2.421875 0 3.828125 1.59375q1.40625 1.578125 1.40625 4.1875l0 1.21875l-8.859375 0q0.0625 2.265625 1.140625 3.4375q1.09375 1.171875 3.0625 1.171875q2.078125 0 4.09375 -0.859375l0 1.734375q-1.03125 0.4375 -1.953125 0.625q-0.90625 0.203125 -2.21875 0.203125zm-0.515625 -11.6875q-1.546875 0 -2.46875 1.015625q-0.921875 1.0 -1.09375 2.78125l6.71875 0q0 -1.84375 -0.828125 -2.8125q-0.8125 -0.984375 -2.328125 -0.984375zm16.777344 11.453125l-9.3125 0l0 -1.328125l7.0 -10.0l-6.578125 0l0 -1.515625l8.71875 0l0 1.515625l-6.921875 9.8125l7.09375 0l0 1.515625zm8.4296875 0.234375q-2.84375 0 -4.5 -1.734375q-1.640625 -1.734375 -1.640625 -4.8125q0 -3.109375 1.53125 -4.9375q1.53125 -1.828125 4.109375 -1.828125q2.421875 0 3.828125 1.59375q1.40625 1.578125 1.40625 4.1875l0 1.21875l-8.859375 0q0.0625 2.265625 1.140625 3.4375q1.09375 1.171875 3.0625 1.171875q2.078125 0 4.09375 -0.859375l0 1.734375q-1.03125 0.4375 -1.953125 0.625q-0.90625 0.203125 -2.21875 0.203125zm-0.515625 -11.6875q-1.546875 0 -2.46875 1.015625q-0.921875 1.0 -1.09375 2.78125l6.71875 0q0 -1.84375 -0.828125 -2.8125q-0.8125 -0.984375 -2.328125 -0.984375zm16.839844 7.953125q0 1.78125 -1.34375 2.765625q-1.328125 0.96875 -3.734375 0.96875q-2.5625 0 -3.984375 -0.8125l0 -1.796875q0.921875 0.46875 1.984375 0.734375q1.0625 0.265625 2.046875 0.265625q1.515625 0 2.328125 -0.484375q0.828125 -0.484375 0.828125 -1.484375q0 -0.75 -0.65625 -1.28125q-0.640625 -0.53125 -2.53125 -1.265625q-1.78125 -0.65625 -2.546875 -1.15625q-0.75 -0.5 -1.125 -1.125q-0.359375 -0.640625 -0.359375 -1.515625q0 -1.578125 1.265625 -2.484375q1.28125 -0.90625 3.515625 -0.90625q2.0625 0 4.046875 0.84375l-0.6875 1.578125q-1.9375 -0.796875 -3.5 -0.796875q-1.390625 0 -2.09375 0.4375q-0.703125 0.4375 -0.703125 1.1875q0 0.515625 0.265625 0.890625q0.265625 0.359375 0.84375 0.6875q0.59375 0.328125 2.25 0.953125q2.296875 0.828125 3.09375 1.671875q0.796875 0.84375 0.796875 2.125zm2.8867188 2.25q0 -0.78125 0.359375 -1.1875q0.359375 -0.40625 1.03125 -0.40625q0.671875 0 1.046875 0.40625q0.390625 0.40625 0.390625 1.1875q0 0.765625 -0.390625 1.1875q-0.390625 0.40625 -1.046875 0.40625q-0.609375 0 -1.0 -0.375q-0.390625 -0.375 -0.390625 -1.21875z" fill-rule="nonzero"></path><path fill="#515151" d="m659.39105 124.09239l0 0c0 2.6718369 5.414917 4.837799 12.094482 4.837799c6.6796265 0 12.094543 -2.1659622 12.094543 -4.837799l0 0c0 -2.6718445 5.414856 -4.837799 12.094482 -4.837799c6.6795654 0 12.094482 2.1659546 12.094482 4.837799l0 38.702362c0 -2.6718445 -5.414917 -4.837799 -12.094482 -4.837799c-6.6796265 0 -12.094482 2.1659546 -12.094482 4.837799c0 2.6718292 -5.414917 4.837784 -12.094543 4.837784c-6.6795654 0 -12.094482 -2.1659546 -12.094482 -4.837784z" fill-rule="nonzero"></path><path stroke="#ffffff" stroke-width="2.0" stroke-linejoin="round" stroke-linecap="butt" d="m659.39105 124.09239l0 0c0 2.6718369 5.414917 4.837799 12.094482 4.837799c6.6796265 0 12.094543 -2.1659622 12.094543 -4.837799l0 0c0 -2.6718445 5.414856 -4.837799 12.094482 -4.837799c6.6795654 0 12.094482 2.1659546 12.094482 4.837799l0 38.702362c0 -2.6718445 -5.414917 -4.837799 -12.094482 -4.837799c-6.6796265 0 -12.094482 2.1659546 -12.094482 4.837799c0 2.6718292 -5.414917 4.837784 -12.094543 4.837784c-6.6795654 0 -12.094482 -2.1659546 -12.094482 -4.837784z" fill-rule="nonzero"></path><path fill="#000000" fill-opacity="0.0" d="m705.6011 109.456696l296.28345 0l0 68.06299l-296.28345 0z" fill-rule="nonzero"></path><path fill="#515151" d="m717.9917 148.08194l0 -0.640625q0 -1.375 0.421875 -2.25q0.421875 -0.890625 1.5625 -1.875q1.59375 -1.34375 2.015625 -2.015625q0.421875 -0.6875 0.421875 -1.65625q0 -1.1875 -0.78125 -1.828125q-0.765625 -0.65625 -2.203125 -0.65625q-0.921875 0 -1.8125 0.21875q-0.875 0.203125 -2.0 0.78125l-0.703125 -1.578125q2.21875 -1.15625 4.640625 -1.15625q2.234375 0 3.46875 1.109375q1.25 1.09375 1.25 3.09375q0 0.859375 -0.234375 1.515625q-0.21875 0.640625 -0.671875 1.21875q-0.4375 0.578125 -1.921875 1.875q-1.1875 1.0 -1.5625 1.671875q-0.375 0.671875 -0.375 1.78125l0 0.390625l-1.515625 0zm-0.578125 3.46875q0 -1.59375 1.40625 -1.59375q0.6875 0 1.046875 0.421875q0.375 0.40625 0.375 1.171875q0 0.75 -0.375 1.171875q-0.375 0.421875 -1.046875 0.421875q-0.609375 0 -1.015625 -0.375q-0.390625 -0.375 -0.390625 -1.21875zm29.457031 1.25l-2.265625 0l-9.359375 -14.375l-0.09375 0q0.1875 2.53125 0.1875 4.640625l0 9.734375l-1.84375 0l0 -17.140625l2.25 0l9.34375 14.328125l0.09375 0q-0.03125 -0.3125 -0.109375 -2.03125q-0.078125 -1.71875 -0.0625 -2.453125l0 -9.84375l1.859375 0l0 17.140625zm12.328125 0l-0.390625 -1.828125l-0.09375 0q-0.96875 1.203125 -1.921875 1.640625q-0.953125 0.421875 -2.375 0.421875q-1.921875 0 -3.0 -0.984375q-1.078125 -0.984375 -1.078125 -2.796875q0 -3.890625 6.21875 -4.078125l2.171875 -0.078125l0 -0.796875q0 -1.515625 -0.65625 -2.234375q-0.640625 -0.71875 -2.0625 -0.71875q-1.609375 0 -3.640625 0.984375l-0.59375 -1.484375q0.953125 -0.515625 2.078125 -0.8125q1.125 -0.296875 2.265625 -0.296875q2.296875 0 3.40625 1.03125q1.109375 1.015625 1.109375 3.265625l0 8.765625l-1.4375 0zm-4.40625 -1.375q1.828125 0 2.859375 -0.984375q1.03125 -1.0 1.03125 -2.796875l0 -1.15625l-1.9375 0.078125q-2.328125 0.078125 -3.359375 0.71875q-1.015625 0.640625 -1.015625 1.984375q0 1.0625 0.640625 1.609375q0.640625 0.546875 1.78125 0.546875zm2.671875 -13.1875q-0.5 0 -0.984375 -0.21875q-0.484375 -0.21875 -0.953125 -0.484375q-0.453125 -0.265625 -0.890625 -0.484375q-0.421875 -0.21875 -0.8125 -0.21875q-0.59375 0 -0.890625 0.359375q-0.296875 0.34375 -0.453125 1.0625l-1.15625 0q0.15625 -1.421875 0.828125 -2.21875q0.671875 -0.796875 1.734375 -0.796875q0.546875 0 1.046875 0.21875q0.5 0.203125 0.953125 0.46875q0.46875 0.265625 0.890625 0.484375q0.421875 0.21875 0.796875 0.21875q0.578125 0 0.859375 -0.34375q0.28125 -0.34375 0.453125 -1.078125l1.15625 0q-0.15625 1.421875 -0.8125 2.234375q-0.65625 0.796875 -1.765625 0.796875zm18.269531 8.125q0 3.140625 -1.59375 4.90625q-1.578125 1.765625 -4.359375 1.765625q-1.734375 0 -3.078125 -0.8125q-1.328125 -0.8125 -2.0625 -2.3125q-0.71875 -1.515625 -0.71875 -3.546875q0 -3.140625 1.5625 -4.890625q1.578125 -1.75 4.375 -1.75q2.6875 0 4.28125 1.796875q1.59375 1.78125 1.59375 4.84375zm-9.796875 0q0 2.46875 0.984375 3.765625q0.984375 1.28125 2.90625 1.28125q1.90625 0 2.890625 -1.28125q1.0 -1.296875 1.0 -3.765625q0 -2.453125 -1.0 -3.71875q-0.984375 -1.265625 -2.921875 -1.265625q-1.90625 0 -2.890625 1.25q-0.96875 1.25 -0.96875 3.734375zm15.246094 3.640625l0.171875 0.28125q-0.3125 1.171875 -0.890625 2.71875q-0.5625 1.5625 -1.1875 2.890625l-1.46875 0q0.328125 -1.21875 0.703125 -3.015625q0.375 -1.796875 0.53125 -2.875l2.140625 0zm18.867188 2.796875l0 -8.3125q0 -1.5625 -0.71875 -2.328125q-0.71875 -0.78125 -2.234375 -0.78125q-2.015625 0 -2.953125 1.09375q-0.9375 1.078125 -0.9375 3.59375l0 6.734375l-1.953125 0l0 -12.84375l1.578125 0l0.328125 1.75l0.09375 0q0.59375 -0.9375 1.671875 -1.453125q1.078125 -0.53125 2.40625 -0.53125q2.3125 0 3.484375 1.125q1.171875 1.109375 1.171875 3.578125l0 8.375l-1.9375 0zm11.355469 0.234375q-2.84375 0 -4.5 -1.734375q-1.640625 -1.734375 -1.640625 -4.8125q0 -3.109375 1.53125 -4.9375q1.53125 -1.828125 4.109375 -1.828125q2.421875 0 3.828125 1.59375q1.40625 1.578125 1.40625 4.1875l0 1.21875l-8.859375 0q0.0625 2.265625 1.140625 3.4375q1.09375 1.171875 3.0625 1.171875q2.078125 0 4.09375 -0.859375l0 1.734375q-1.03125 0.4375 -1.953125 0.625q-0.90625 0.203125 -2.21875 0.203125zm-0.515625 -11.6875q-1.546875 0 -2.46875 1.015625q-0.921875 1.0 -1.09375 2.78125l6.71875 0q0 -1.84375 -0.828125 -2.8125q-0.8125 -0.984375 -2.328125 -0.984375zm17.355469 11.453125l0 -8.3125q0 -1.5625 -0.71875 -2.328125q-0.71875 -0.78125 -2.234375 -0.78125q-2.015625 0 -2.953125 1.09375q-0.9375 1.078125 -0.9375 3.59375l0 6.734375l-1.953125 0l0 -12.84375l1.578125 0l0.328125 1.75l0.09375 0q0.59375 -0.9375 1.671875 -1.453125q1.078125 -0.53125 2.40625 -0.53125q2.3125 0 3.484375 1.125q1.171875 1.109375 1.171875 3.578125l0 8.375l-1.9375 0zm14.730469 0l0 -8.3125q0 -1.5625 -0.71875 -2.328125q-0.71875 -0.78125 -2.234375 -0.78125q-2.03125 0 -2.96875 1.109375q-0.921875 1.09375 -0.921875 3.59375l0 6.71875l-1.953125 0l0 -18.234375l1.953125 0l0 5.515625q0 1.0 -0.09375 1.65625l0.109375 0q0.578125 -0.921875 1.640625 -1.453125q1.0625 -0.546875 2.421875 -0.546875q2.34375 0 3.515625 1.125q1.1875 1.125 1.1875 3.5625l0 8.375l-1.9375 0zm7.7617188 -12.84375l0 8.328125q0 1.578125 0.71875 2.359375q0.71875 0.765625 2.234375 0.765625q2.015625 0 2.9375 -1.09375q0.9375 -1.109375 0.9375 -3.609375l0 -6.75l1.953125 0l0 12.84375l-1.609375 0l-0.28125 -1.71875l-0.109375 0q-0.59375 0.9375 -1.65625 1.453125q-1.0625 0.5 -2.421875 0.5q-2.34375 0 -3.515625 -1.109375q-1.15625 -1.125 -1.15625 -3.5625l0 -8.40625l1.96875 0zm29.277344 12.84375l0 -8.359375q0 -1.53125 -0.65625 -2.296875q-0.65625 -0.765625 -2.046875 -0.765625q-1.8125 0 -2.6875 1.046875q-0.859375 1.03125 -0.859375 3.203125l0 7.171875l-1.9375 0l0 -8.359375q0 -1.53125 -0.65625 -2.296875q-0.65625 -0.765625 -2.0625 -0.765625q-1.828125 0 -2.671875 1.09375q-0.84375 1.09375 -0.84375 3.59375l0 6.734375l-1.953125 0l0 -12.84375l1.578125 0l0.328125 1.75l0.09375 0q0.546875 -0.9375 1.546875 -1.453125q1.0 -0.53125 2.25 -0.53125q3.0 0 3.9375 2.171875l0.09375 0q0.5625 -1.0 1.65625 -1.578125q1.09375 -0.59375 2.484375 -0.59375q2.1875 0 3.265625 1.125q1.078125 1.109375 1.078125 3.578125l0 8.375l-1.9375 0zm13.855469 0l-0.390625 -1.828125l-0.09375 0q-0.96875 1.203125 -1.921875 1.640625q-0.953125 0.421875 -2.375 0.421875q-1.921875 0 -3.0 -0.984375q-1.078125 -0.984375 -1.078125 -2.796875q0 -3.890625 6.21875 -4.078125l2.171875 -0.078125l0 -0.796875q0 -1.515625 -0.65625 -2.234375q-0.640625 -0.71875 -2.0625 -0.71875q-1.609375 0 -3.640625 0.984375l-0.59375 -1.484375q0.953125 -0.515625 2.078125 -0.8125q1.125 -0.296875 2.265625 -0.296875q2.296875 0 3.40625 1.03125q1.109375 1.015625 1.109375 3.265625l0 8.765625l-1.4375 0zm-4.40625 -1.375q1.828125 0 2.859375 -0.984375q1.03125 -1.0 1.03125 -2.796875l0 -1.15625l-1.9375 0.078125q-2.328125 0.078125 -3.359375 0.71875q-1.015625 0.640625 -1.015625 1.984375q0 1.0625 0.640625 1.609375q0.640625 0.546875 1.78125 0.546875zm18.894531 1.375l-4.875 -12.84375l2.09375 0l2.765625 7.609375q0.9375 2.671875 1.09375 3.46875l0.09375 0q0.125 -0.609375 0.8125 -2.5625q0.6875 -1.953125 3.078125 -8.515625l2.09375 0l-4.875 12.84375l-2.28125 0zm14.6328125 0.234375q-2.84375 0 -4.5 -1.734375q-1.640625 -1.734375 -1.640625 -4.8125q0 -3.109375 1.53125 -4.9375q1.53125 -1.828125 4.109375 -1.828125q2.421875 0 3.828125 1.59375q1.40625 1.578125 1.40625 4.1875l0 1.21875l-8.859375 0q0.0625 2.265625 1.140625 3.4375q1.09375 1.171875 3.0625 1.171875q2.078125 0 4.09375 -0.859375l0 1.734375q-1.03125 0.4375 -1.953125 0.625q-0.90625 0.203125 -2.21875 0.203125zm-0.515625 -11.6875q-1.546875 0 -2.46875 1.015625q-0.921875 1.0 -1.09375 2.78125l6.71875 0q0 -1.84375 -0.828125 -2.8125q-0.8125 -0.984375 -2.328125 -0.984375zm16.777344 11.453125l-9.3125 0l0 -1.328125l7.0 -10.0l-6.578125 0l0 -1.515625l8.71875 0l0 1.515625l-6.921875 9.8125l7.09375 0l0 1.515625zm2.7265625 -1.25q0 -0.78125 0.359375 -1.1875q0.359375 -0.40625 1.03125 -0.40625q0.671875 0 1.046875 0.40625q0.390625 0.40625 0.390625 1.1875q0 0.765625 -0.390625 1.1875q-0.390625 0.40625 -1.046875 0.40625q-0.609375 0 -1.0 -0.375q-0.390625 -0.375 -0.390625 -1.21875z" fill-rule="nonzero"></path><path fill="#000000" fill-opacity="0.0" d="m665.95276 348.75067l-84.37793 -137.25986" fill-rule="nonzero"></path><path stroke="#009f5d" stroke-width="2.0" stroke-linejoin="round" stroke-linecap="butt" d="m665.95276 348.75067l-78.09363 -127.03699" fill-rule="evenodd"></path><path fill="#009f5d" stroke="#009f5d" stroke-width="2.0" stroke-linecap="butt" d="m590.6734 219.98369l-7.567444 -6.00206l1.9389038 9.462067z" fill-rule="evenodd"></path><path fill="#000000" fill-opacity="0.0" d="m669.32806 356.62466l-139.52753 -192.37796" fill-rule="nonzero"></path><path stroke="#0066cc" stroke-width="2.0" stroke-linejoin="round" stroke-linecap="butt" d="m669.32806 356.62466l-132.48212 -182.66391" fill-rule="evenodd"></path><path fill="#0066cc" stroke="#0066cc" stroke-width="2.0" stroke-linecap="butt" d="m539.5201 172.02124l-8.00293 -5.4076996l2.654602 9.286728z" fill-rule="evenodd"></path><path fill="#515151" d="m706.578 377.91656c-9.698669 6.8928223 -23.615173 7.5987244 -34.224243 1.7359924c-10.609009 -5.8627625 -15.392395 -16.902588 -11.763611 -27.149689c3.6288452 -10.247101 14.808655 -17.269287 27.493835 -17.269287z" fill-rule="nonzero"></path><path stroke="#ffffff" stroke-width="2.0" stroke-linejoin="round" stroke-linecap="butt" d="m706.578 377.91656c-9.698669 6.8928223 -23.615173 7.5987244 -34.224243 1.7359924c-10.609009 -5.8627625 -15.392395 -16.902588 -11.763611 -27.149689c3.6288452 -10.247101 14.808655 -17.269287 27.493835 -17.269287z" fill-rule="nonzero"></path><path fill="#000000" fill-opacity="0.0" d="m659.39105 143.44357l-68.81885 18.551178" fill-rule="nonzero"></path><path stroke="#009f5d" stroke-width="2.0" stroke-linejoin="round" stroke-linecap="butt" d="m659.39105 143.44357l-57.232483 15.427887" fill-rule="evenodd"></path><path fill="#009f5d" stroke="#009f5d" stroke-width="2.0" stroke-linecap="butt" d="m601.29877 155.68184l-7.9035645 5.5519257l9.623169 0.827301z" fill-rule="evenodd"></path><path fill="#000000" fill-opacity="0.0" d="m659.39105 143.44357l-132.94489 261.5433" fill-rule="nonzero"></path><path stroke="#0066cc" stroke-width="2.0" stroke-linejoin="round" stroke-linecap="butt" d="m659.39105 143.44357l-127.507324 250.84595" fill-rule="evenodd"></path><path fill="#0066cc" stroke="#0066cc" stroke-width="2.0" stroke-linecap="butt" d="m528.9389 392.79263l-1.1678467 9.58783l7.057556 -6.5940247z" fill-rule="evenodd"></path><path fill="#515151" d="m190.26509 347.3281c10.078735 -28.22049 49.385834 0 0 36.283447c-49.385834 -36.283447 -10.078735 -64.50394 0 -36.283447z" fill-rule="nonzero"></path><path stroke="#ffffff" stroke-width="2.0" stroke-linejoin="round" stroke-linecap="butt" d="m190.26509 347.3281c10.078735 -28.22049 49.385834 0 0 36.283447c-49.385834 -36.283447 -10.078735 -64.50394 0 -36.283447z" fill-rule="nonzero"></path><path fill="#ffffff" d="m189.77974 364.6412l-1.515625 0l0 -9.671875q0 -1.203125 0.078125 -2.28125q-0.1875 0.203125 -0.4375 0.421875q-0.234375 0.203125 -2.203125 1.796875l-0.8125 -1.0625l3.578125 -2.765625l1.3125 0l0 13.5625z" fill-rule="nonzero"></path></g></svg>

