<?xml version="1.0" standalone="yes"?>

<svg version="1.1" viewBox="0.0 0.0 1152.0 864.0" fill="none" stroke="none" stroke-linecap="square" stroke-miterlimit="10" xmlns="http://www.w3.org/2000/svg" xmlns:xlink="http://www.w3.org/1999/xlink"><clipPath id="p.0"><path d="m0 0l1152.0 0l0 864.0l-1152.0 0l0 -864.0z" clip-rule="nonzero"></path></clipPath><g clip-path="url(#p.0)"><path fill="#000000" fill-opacity="0.0" d="m0 0l1152.0 0l0 864.0l-1152.0 0z" fill-rule="nonzero"></path><path fill="#000000" fill-opacity="0.0" d="m293.0552 92.04049l0 0c0 -30.890877 25.041992 -55.932877 55.93286 -55.932877l454.02402 0c14.834351 0 29.061096 5.89291 39.550537 16.382359c10.489441 10.489452 16.382324 24.716198 16.382324 39.550518l0 223.7248c0 30.89087 -25.041992 55.93289 -55.93286 55.93289l-454.02402 0c-30.89087 0 -55.93286 -25.042023 -55.93286 -55.93289z" fill-rule="nonzero"></path><path stroke="#515151" stroke-width="2.0" stroke-linejoin="round" stroke-linecap="butt" d="m293.0552 92.04049l0 0c0 -30.890877 25.041992 -55.932877 55.93286 -55.932877l454.02402 0c14.834351 0 29.061096 5.89291 39.550537 16.382359c10.489441 10.489452 16.382324 24.716198 16.382324 39.550518l0 223.7248c0 30.89087 -25.041992 55.93289 -55.93286 55.93289l-454.02402 0c-30.89087 0 -55.93286 -25.042023 -55.93286 -55.93289z" fill-rule="nonzero"></path><path fill="#515151" d="m496.92783 74.30229l0 8.328125q0 1.578125 0.71875 2.359375q0.71875 0.765625 2.234375 0.765625q2.015625 0 2.9375 -1.09375q0.9375 -1.109375 0.9375 -3.609375l0 -6.75l1.953125 0l0 12.84375l-1.609375 0l-0.28125 -1.71875l-0.109375 0q-0.59375 0.9375 -1.65625 1.453125q-1.0625 0.5 -2.421875 0.5q-2.34375 0 -3.515625 -1.109375q-1.15625 -1.125 -1.15625 -3.5625l0 -8.40625l1.96875 0zm21.183624 9.34375q0 1.78125 -1.34375 2.765625q-1.328125 0.96875 -3.734375 0.96875q-2.5625305 0 -3.9844055 -0.8125l0 -1.796875q0.921875 0.46875 1.984375 0.734375q1.0625305 0.265625 2.0469055 0.265625q1.515625 0 2.328125 -0.484375q0.828125 -0.484375 0.828125 -1.484375q0 -0.75 -0.65625 -1.28125q-0.640625 -0.53125 -2.53125 -1.265625q-1.7812805 -0.65625 -2.5469055 -1.15625q-0.75 -0.5 -1.125 -1.125q-0.359375 -0.640625 -0.359375 -1.515625q0 -1.578125 1.265625 -2.484375q1.28125 -0.90625 3.5156555 -0.90625q2.0625 0 4.046875 0.84375l-0.6875 1.578125q-1.9375 -0.796875 -3.5 -0.796875q-1.390625 0 -2.0937805 0.4375q-0.703125 0.4375 -0.703125 1.1875q0 0.515625 0.265625 0.890625q0.265625 0.359375 0.84375 0.6875q0.5937805 0.328125 2.2500305 0.953125q2.296875 0.828125 3.09375 1.671875q0.796875 0.84375 0.796875 2.125zm8.589844 3.734375q-2.84375 0 -4.5 -1.734375q-1.640625 -1.734375 -1.640625 -4.8125q0 -3.109375 1.53125 -4.9375q1.53125 -1.828125 4.109375 -1.828125q2.421875 0 3.828125 1.59375q1.40625 1.578125 1.40625 4.1875l0 1.21875l-8.859375 0q0.0625 2.265625 1.140625 3.4375q1.09375 1.171875 3.0625 1.171875q2.078125 0 4.09375 -0.859375l0 1.734375q-1.03125 0.4375 -1.953125 0.625q-0.90625 0.203125 -2.21875 0.203125zm-0.515625 -11.6875q-1.546875 0 -2.46875 1.015625q-0.921875 1.0 -1.09375 2.78125l6.71875 0q0 -1.84375 -0.828125 -2.8125q-0.8125 -0.984375 -2.328125 -0.984375zm14.417969 -1.625q0.859375 0 1.53125 0.140625l-0.265625 1.796875q-0.796875 -0.171875 -1.40625 -0.171875q-1.5625 0 -2.671875 1.265625q-1.09375 1.265625 -1.09375 3.15625l0 6.890625l-1.953125 0l0 -12.84375l1.609375 0l0.21875 2.375l0.09375 0q0.71875 -1.25 1.71875 -1.921875q1.015625 -0.6875 2.21875 -0.6875zm12.6875 16.765625l-10.859375 0l0 -1.53125l10.859375 0l0 1.53125zm3.9609375 -3.6875l-1.953125 0l0 -12.84375l1.953125 0l0 12.84375zm-2.109375 -16.328125q0 -0.671875 0.328125 -0.96875q0.328125 -0.3125 0.8125 -0.3125q0.46875 0 0.8125 0.3125q0.34375 0.3125 0.34375 0.96875q0 0.65625 -0.34375 0.984375q-0.34375 0.3125 -0.8125 0.3125q-0.484375 0 -0.8125 -0.3125q-0.328125 -0.328125 -0.328125 -0.984375zm14.9765625 14.609375l-0.109375 0q-1.34375 1.953125 -4.03125 1.953125q-2.515625 0 -3.921875 -1.71875q-1.40625 -1.734375 -1.40625 -4.90625q0 -3.171875 1.40625 -4.921875q1.40625 -1.765625 3.921875 -1.765625q2.609375 0 4.0 1.890625l0.15625 0l-0.078125 -0.921875l-0.046875 -0.90625l0 -5.21875l1.9375 0l0 18.234375l-1.578125 0l-0.25 -1.71875zm-3.890625 0.328125q1.984375 0 2.875 -1.078125q0.90625 -1.09375 0.90625 -3.515625l0 -0.40625q0 -2.734375 -0.90625 -3.890625q-0.90625 -1.171875 -2.90625 -1.171875q-1.703125 0 -2.625 1.328125q-0.90625 1.328125 -0.90625 3.765625q0 2.453125 0.90625 3.71875q0.90625 1.25 2.65625 1.25zm9.566406 0.140625q0 -0.78125 0.359375 -1.1875q0.359375 -0.40625 1.03125 -0.40625q0.671875 0 1.046875 0.40625q0.390625 0.40625 0.390625 1.1875q0 0.765625 -0.390625 1.1875q-0.390625 0.40625 -1.046875 0.40625q-0.609375 0 -1.0 -0.375q-0.390625 -0.375 -0.390625 -1.21875zm0 -10.34375q0 -1.578125 1.390625 -1.578125q1.4375 0 1.4375 1.578125q0 0.765625 -0.390625 1.171875q-0.390625 0.40625 -1.046875 0.40625q-0.609375 0 -1.0 -0.359375q-0.390625 -0.375 -0.390625 -1.21875zm15.417969 9.875l-0.109375 0q-1.34375 1.953125 -4.03125 1.953125q-2.515625 0 -3.921875 -1.71875q-1.40625 -1.734375 -1.40625 -4.90625q0 -3.171875 1.40625 -4.921875q1.40625 -1.765625 3.921875 -1.765625q2.609375 0 4.0 1.890625l0.15625 0l-0.078125 -0.921875l-0.046875 -0.90625l0 -5.21875l1.9375 0l0 18.234375l-1.578125 0l-0.25 -1.71875zm-3.890625 0.328125q1.984375 0 2.875 -1.078125q0.90625 -1.09375 0.90625 -3.515625l0 -0.40625q0 -2.734375 -0.90625 -3.890625q-0.90625 -1.171875 -2.90625 -1.171875q-1.703125 0 -2.625 1.328125q-0.90625 1.328125 -0.90625 3.765625q0 2.453125 0.90625 3.71875q0.90625 1.25 2.65625 1.25zm14.988281 1.625q-2.796875 0 -4.328125 -1.71875q-1.53125 -1.71875 -1.53125 -4.859375q0 -3.21875 1.546875 -4.96875q1.5625 -1.765625 4.4375 -1.765625q0.921875 0 1.84375 0.203125q0.9375 0.1875 1.453125 0.46875l-0.59375 1.640625q-0.640625 -0.25 -1.40625 -0.421875q-0.765625 -0.171875 -1.34375 -0.171875q-3.921875 0 -3.921875 5.0q0 2.359375 0.953125 3.625q0.96875 1.265625 2.84375 1.265625q1.59375 0 3.28125 -0.6875l0 1.71875q-1.28125 0.671875 -3.234375 0.671875zm17.378906 -6.671875q0 3.140625 -1.59375 4.90625q-1.578125 1.765625 -4.359375 1.765625q-1.734375 0 -3.078125 -0.8125q-1.328125 -0.8125 -2.0625 -2.3125q-0.71875 -1.515625 -0.71875 -3.546875q0 -3.140625 1.5625 -4.890625q1.578125 -1.75 4.375 -1.75q2.6875 0 4.28125 1.796875q1.59375 1.78125 1.59375 4.84375zm-9.796875 0q0 2.46875 0.984375 3.765625q0.984375 1.28125 2.90625 1.28125q1.90625 0 2.890625 -1.28125q1.0 -1.296875 1.0 -3.765625q0 -2.453125 -1.0 -3.71875q-0.984375 -1.265625 -2.921875 -1.265625q-1.90625 0 -2.890625 1.25q-0.96875 1.25 -0.96875 3.734375zm15.027344 -6.40625l0 8.328125q0 1.578125 0.71875 2.359375q0.71875 0.765625 2.234375 0.765625q2.015625 0 2.9375 -1.09375q0.9375 -1.109375 0.9375 -3.609375l0 -6.75l1.953125 0l0 12.84375l-1.609375 0l-0.28125 -1.71875l-0.109375 0q-0.59375 0.9375 -1.65625 1.453125q-1.0625 0.5 -2.421875 0.5q-2.34375 0 -3.515625 -1.109375q-1.15625 -1.125 -1.15625 -3.5625l0 -8.40625l1.96875 0zm21.699219 12.84375l0 -8.3125q0 -1.5625 -0.71875 -2.328125q-0.71875 -0.78125 -2.234375 -0.78125q-2.015625 0 -2.953125 1.09375q-0.9375 1.078125 -0.9375 3.59375l0 6.734375l-1.953125 0l0 -12.84375l1.578125 0l0.328125 1.75l0.09375 0q0.59375 -0.9375 1.671875 -1.453125q1.078125 -0.53125 2.40625 -0.53125q2.3125 0 3.484375 1.125q1.171875 1.109375 1.171875 3.578125l0 8.375l-1.9375 0zm10.089844 -1.375q0.515625 0 0.984375 -0.078125q0.484375 -0.078125 0.765625 -0.15625l0 1.484375q-0.3125 0.15625 -0.9375 0.25q-0.609375 0.109375 -1.09375 0.109375q-3.734375 0 -3.734375 -3.921875l0 -7.640625l-1.84375 0l0 -0.9375l1.84375 -0.8125l0.828125 -2.75l1.125 0l0 2.984375l3.71875 0l0 1.515625l-3.71875 0l0 7.546875q0 1.171875 0.546875 1.796875q0.546875 0.609375 1.515625 0.609375z" fill-rule="nonzero"></path><path fill="#009f5d" d="m312.3622 144.27911l0 0c0 -23.213814 18.818512 -42.032333 42.03232 -42.032333l443.21094 0c11.147644 0 21.838745 4.428398 29.721375 12.310989c7.8825684 7.8825912 12.310974 18.573685 12.310974 29.721344l0 168.1243c0 23.213837 -18.818542 42.03235 -42.03235 42.03235l-443.21094 0c-23.213806 0 -42.03232 -18.818512 -42.03232 -42.03235z" fill-rule="nonzero"></path><path stroke="#515151" stroke-width="2.0" stroke-linejoin="round" stroke-linecap="butt" d="m312.3622 144.27911l0 0c0 -23.213814 18.818512 -42.032333 42.03232 -42.032333l443.21094 0c11.147644 0 21.838745 4.428398 29.721375 12.310989c7.8825684 7.8825912 12.310974 18.573685 12.310974 29.721344l0 168.1243c0 23.213837 -18.818542 42.03235 -42.03235 42.03235l-443.21094 0c-23.213806 0 -42.03232 -18.818512 -42.03232 -42.03235z" fill-rule="nonzero"></path><path fill="#ffffff" d="m498.76953 237.65376l-1.984375 0l0 -8.0625l-9.03125 0l0 8.0625l-1.984375 0l0 -17.140625l1.984375 0l0 7.296875l9.03125 0l0 -7.296875l1.984375 0l0 17.140625zm12.316406 0l-0.390625 -1.828125l-0.09375 0q-0.96875 1.203125 -1.921875 1.640625q-0.953125 0.421875 -2.375 0.421875q-1.921875 0 -3.0 -0.984375q-1.078125 -0.984375 -1.078125 -2.796875q0 -3.890625 6.21875 -4.078125l2.171875 -0.078125l0 -0.796875q0 -1.515625 -0.65625 -2.234375q-0.640625 -0.71875 -2.0625 -0.71875q-1.609375 0 -3.640625 0.984375l-0.59375 -1.484375q0.953125 -0.515625 2.078125 -0.8125q1.125 -0.296875 2.265625 -0.296875q2.296875 0 3.40625 1.03125q1.109375 1.015625 1.109375 3.265625l0 8.765625l-1.4375 0zm-4.40625 -1.375q1.828125 0 2.859375 -0.984375q1.03125 -1.0 1.03125 -2.796875l0 -1.15625l-1.9375 0.078125q-2.328125 0.078125 -3.359375 0.71875q-1.015625 0.640625 -1.015625 1.984375q0 1.0625 0.640625 1.609375q0.640625 0.546875 1.78125 0.546875zm18.128906 -2.125q0 1.78125 -1.34375 2.765625q-1.328125 0.96875 -3.734375 0.96875q-2.5625 0 -3.984375 -0.8125l0 -1.796875q0.921875 0.46875 1.984375 0.734375q1.0625 0.265625 2.046875 0.265625q1.515625 0 2.328125 -0.484375q0.828125 -0.484375 0.828125 -1.484375q0 -0.75 -0.65625 -1.28125q-0.640625 -0.53125 -2.53125 -1.265625q-1.78125 -0.65625 -2.546875 -1.15625q-0.75 -0.5 -1.125 -1.125q-0.359375 -0.640625 -0.359375 -1.515625q0 -1.578125 1.265625 -2.484375q1.28125 -0.90625 3.515625 -0.90625q2.0625 0 4.046875 0.84375l-0.6875 1.578125q-1.9375 -0.796875 -3.5 -0.796875q-1.390625 0 -2.09375 0.4375q-0.703125 0.4375 -0.703125 1.1875q0 0.515625 0.265625 0.890625q0.265625 0.359375 0.84375 0.6875q0.59375 0.328125 2.25 0.953125q2.296875 0.828125 3.09375 1.671875q0.796875 0.84375 0.796875 2.125zm11.964844 3.5l0 -8.3125q0 -1.5625 -0.71875 -2.328125q-0.71875 -0.78125 -2.234375 -0.78125q-2.03125 0 -2.96875 1.109375q-0.921875 1.09375 -0.921875 3.59375l0 6.71875l-1.953125 0l0 -18.234375l1.953125 0l0 5.515625q0 1.0 -0.09375 1.65625l0.109375 0q0.578125 -0.921875 1.640625 -1.453125q1.0625 -0.546875 2.421875 -0.546875q2.34375 0 3.515625 1.125q1.1875 1.125 1.1875 3.5625l0 8.375l-1.9375 0zm15.902344 -4.5625q0 2.265625 -1.640625 3.53125q-1.640625 1.265625 -4.453125 1.265625q-3.046875 0 -4.6875 -0.78125l0 -1.921875q1.046875 0.4375 2.28125 0.703125q1.25 0.25 2.46875 0.25q2.0 0 3.0 -0.75q1.015625 -0.765625 1.015625 -2.109375q0 -0.890625 -0.359375 -1.453125q-0.359375 -0.578125 -1.203125 -1.046875q-0.828125 -0.484375 -2.546875 -1.09375q-2.390625 -0.859375 -3.421875 -2.03125q-1.015625 -1.171875 -1.015625 -3.0625q0 -1.96875 1.484375 -3.140625q1.484375 -1.171875 3.9375 -1.171875q2.5625 0 4.703125 0.9375l-0.625 1.734375q-2.125 -0.890625 -4.125 -0.890625q-1.578125 0 -2.46875 0.6875q-0.890625 0.671875 -0.890625 1.875q0 0.890625 0.328125 1.46875q0.328125 0.5625 1.109375 1.03125q0.78125 0.46875 2.375 1.046875q2.703125 0.96875 3.71875 2.078125q1.015625 1.09375 1.015625 2.84375zm8.625 4.796875q-2.84375 0 -4.5 -1.734375q-1.640625 -1.734375 -1.640625 -4.8125q0 -3.109375 1.53125 -4.9375q1.53125 -1.828125 4.109375 -1.828125q2.421875 0 3.828125 1.59375q1.40625 1.578125 1.40625 4.1875l0 1.21875l-8.859375 0q0.0625 2.265625 1.140625 3.4375q1.09375 1.171875 3.0625 1.171875q2.078125 0 4.09375 -0.859375l0 1.734375q-1.03125 0.4375 -1.953125 0.625q-0.90625 0.203125 -2.21875 0.203125zm-0.515625 -11.6875q-1.546875 0 -2.46875 1.015625q-0.921875 1.0 -1.09375 2.78125l6.71875 0q0 -1.84375 -0.828125 -2.8125q-0.8125 -0.984375 -2.328125 -0.984375zm12.714844 10.078125q0.515625 0 0.984375 -0.078125q0.484375 -0.078125 0.765625 -0.15625l0 1.484375q-0.3125 0.15625 -0.9375 0.25q-0.609375 0.109375 -1.09375 0.109375q-3.734375 0 -3.734375 -3.921875l0 -7.640625l-1.84375 0l0 -0.9375l1.84375 -0.8125l0.828125 -2.75l1.125 0l0 2.984375l3.71875 0l0 1.515625l-3.71875 0l0 7.546875q0 1.171875 0.546875 1.796875q0.546875 0.609375 1.515625 0.609375zm14.738281 -1.46875l-11.265625 -4.9375l0 -1.15625l11.265625 -5.609375l0 1.75l-9.171875 4.34375l9.171875 3.84375l0 1.765625zm13.269531 -1.71875q0 2.265625 -1.640625 3.53125q-1.640625 1.265625 -4.453125 1.265625q-3.046875 0 -4.6875 -0.78125l0 -1.921875q1.046875 0.4375 2.28125 0.703125q1.25 0.25 2.46875 0.25q2.0 0 3.0 -0.75q1.015625 -0.765625 1.015625 -2.109375q0 -0.890625 -0.359375 -1.453125q-0.359375 -0.578125 -1.203125 -1.046875q-0.828125 -0.484375 -2.546875 -1.09375q-2.390625 -0.859375 -3.421875 -2.03125q-1.015625 -1.171875 -1.015625 -3.0625q0 -1.96875 1.484375 -3.140625q1.484375 -1.171875 3.9375 -1.171875q2.5625 0 4.703125 0.9375l-0.625 1.734375q-2.125 -0.890625 -4.125 -0.890625q-1.578125 0 -2.46875 0.6875q-0.890625 0.671875 -0.890625 1.875q0 0.890625 0.328125 1.46875q0.328125 0.5625 1.109375 1.03125q0.78125 0.46875 2.375 1.046875q2.703125 0.96875 3.71875 2.078125q1.015625 1.09375 1.015625 2.84375zm7.359375 3.1875q0.515625 0 0.984375 -0.078125q0.484375 -0.078125 0.765625 -0.15625l0 1.484375q-0.3125 0.15625 -0.9375 0.25q-0.609375 0.109375 -1.09375 0.109375q-3.734375 0 -3.734375 -3.921875l0 -7.640625l-1.84375 0l0 -0.9375l1.84375 -0.8125l0.828125 -2.75l1.125 0l0 2.984375l3.71875 0l0 1.515625l-3.71875 0l0 7.546875q0 1.171875 0.546875 1.796875q0.546875 0.609375 1.515625 0.609375zm10.175781 -11.703125q0.859375 0 1.53125 0.140625l-0.265625 1.796875q-0.796875 -0.171875 -1.40625 -0.171875q-1.5625 0 -2.671875 1.265625q-1.09375 1.265625 -1.09375 3.15625l0 6.890625l-1.953125 0l0 -12.84375l1.609375 0l0.21875 2.375l0.09375 0q0.71875 -1.25 1.71875 -1.921875q1.015625 -0.6875 2.21875 -0.6875zm5.890625 13.078125l-1.953125 0l0 -12.84375l1.953125 0l0 12.84375zm-2.109375 -16.328125q0 -0.671875 0.328125 -0.96875q0.328125 -0.3125 0.8125 -0.3125q0.46875 0 0.8125 0.3125q0.34375 0.3125 0.34375 0.96875q0 0.65625 -0.34375 0.984375q-0.34375 0.3125 -0.8125 0.3125q-0.484375 0 -0.8125 -0.3125q-0.328125 -0.328125 -0.328125 -0.984375zm15.0234375 16.328125l0 -8.3125q0 -1.5625 -0.71875 -2.328125q-0.71875 -0.78125 -2.234375 -0.78125q-2.015625 0 -2.953125 1.09375q-0.9375 1.078125 -0.9375 3.59375l0 6.734375l-1.953125 0l0 -12.84375l1.578125 0l0.328125 1.75l0.09375 0q0.59375 -0.9375 1.671875 -1.453125q1.078125 -0.53125 2.40625 -0.53125q2.3125 0 3.484375 1.125q1.171875 1.109375 1.171875 3.578125l0 8.375l-1.9375 0zm16.449219 -12.84375l0 1.234375l-2.375 0.28125q0.328125 0.40625 0.578125 1.078125q0.265625 0.65625 0.265625 1.484375q0 1.890625 -1.296875 3.015625q-1.28125 1.125 -3.53125 1.125q-0.578125 0 -1.078125 -0.09375q-1.25 0.65625 -1.25 1.640625q0 0.53125 0.4375 0.78125q0.4375 0.25 1.484375 0.25l2.28125 0q2.078125 0 3.1875 0.890625q1.125 0.875 1.125 2.546875q0 2.140625 -1.71875 3.25q-1.703125 1.125 -4.984375 1.125q-2.515625 0 -3.890625 -0.9375q-1.359375 -0.9375 -1.359375 -2.640625q0 -1.171875 0.75 -2.03125q0.75 -0.859375 2.109375 -1.171875q-0.484375 -0.21875 -0.828125 -0.6875q-0.328125 -0.46875 -0.328125 -1.09375q0 -0.703125 0.375 -1.21875q0.375 -0.53125 1.1875 -1.03125q-1.0 -0.40625 -1.625 -1.390625q-0.625 -0.984375 -0.625 -2.25q0 -2.109375 1.265625 -3.25q1.265625 -1.140625 3.578125 -1.140625q1.015625 0 1.828125 0.234375l4.4375 0zm-10.25 15.0q0 1.046875 0.875 1.578125q0.890625 0.546875 2.53125 0.546875q2.453125 0 3.625 -0.734375q1.171875 -0.734375 1.171875 -1.984375q0 -1.046875 -0.640625 -1.453125q-0.640625 -0.40625 -2.421875 -0.40625l-2.328125 0q-1.328125 0 -2.078125 0.625q-0.734375 0.640625 -0.734375 1.828125zm1.0625 -10.890625q0 1.34375 0.75 2.046875q0.765625 0.6875 2.125 0.6875q2.859375 0 2.859375 -2.765625q0 -2.890625 -2.890625 -2.890625q-1.375 0 -2.109375 0.734375q-0.734375 0.734375 -0.734375 2.1875zm10.9765625 4.125l9.171875 -3.8125l-9.171875 -4.375l0 -1.75l11.265625 5.609375l0 1.15625l-11.265625 4.9375l0 -1.765625z" fill-rule="nonzero"></path></g></svg>

