<?xml version="1.0" standalone="yes"?>

<svg version="1.1" viewBox="0.0 0.0 1152.0 864.0" fill="none" stroke="none" stroke-linecap="square" stroke-miterlimit="10" xmlns="http://www.w3.org/2000/svg" xmlns:xlink="http://www.w3.org/1999/xlink"><clipPath id="p.0"><path d="m0 0l1152.0 0l0 864.0l-1152.0 0l0 -864.0z" clip-rule="nonzero"></path></clipPath><g clip-path="url(#p.0)"><path fill="#000000" fill-opacity="0.0" d="m0 0l1152.0 0l0 864.0l-1152.0 0z" fill-rule="nonzero"></path><path fill="#009f5d" d="m220.13823 118.95196l57.16536 0l0 55.275597l-57.16536 0z" fill-rule="nonzero"></path><path stroke="#515151" stroke-width="1.0" stroke-linejoin="round" stroke-linecap="butt" d="m220.13823 118.95196l57.16536 0l0 55.275597l-57.16536 0z" fill-rule="nonzero"></path><path fill="#ffffff" d="m256.2756 147.55069q0 5.921875 -1.8750153 8.84375q-1.859375 2.921875 -5.703125 2.921875q-3.6875 0 -5.609375 -2.984375q-1.921875 -3.0 -1.921875 -8.78125q0 -5.96875 1.859375 -8.859375q1.859375 -2.890625 5.671875 -2.890625q3.71875 0 5.640625 3.015625q1.9375153 3.015625 1.9375153 8.734375zm-12.48439 0q0 4.984375 1.171875 7.265625q1.171875 2.265625 3.734375 2.265625q2.59375 0 3.75 -2.296875q1.171875 -2.3125 1.171875 -7.234375q0 -4.921875 -1.171875 -7.203125q-1.15625 -2.296875 -3.75 -2.296875q-2.5625 0 -3.734375 2.265625q-1.171875 2.25 -1.171875 7.234375z" fill-rule="nonzero"></path><path fill="#009f5d" d="m277.31592 118.95196l57.165375 0l0 55.275597l-57.165375 0z" fill-rule="nonzero"></path><path stroke="#515151" stroke-width="1.0" stroke-linejoin="round" stroke-linecap="butt" d="m277.31592 118.95196l57.165375 0l0 55.275597l-57.165375 0z" fill-rule="nonzero"></path><path fill="#ffffff" d="m307.92203 159.00381l-2.53125 0l0 -16.28125q0 -2.03125 0.125 -3.84375q-0.328125 0.328125 -0.734375 0.6875q-0.40625 0.359375 -3.71875 3.046875l-1.375 -1.78125l6.046875 -4.671875l2.1875 0l0 22.84375z" fill-rule="nonzero"></path><path fill="#009f5d" d="m334.49362 118.95196l57.165344 0l0 55.275597l-57.165344 0z" fill-rule="nonzero"></path><path stroke="#515151" stroke-width="1.0" stroke-linejoin="round" stroke-linecap="butt" d="m334.49362 118.95196l57.165344 0l0 55.275597l-57.165344 0z" fill-rule="nonzero"></path><path fill="#ffffff" d="m365.09973 159.00381l-2.53125 0l0 -16.28125q0 -2.03125 0.125 -3.84375q-0.328125 0.328125 -0.734375 0.6875q-0.40625 0.359375 -3.71875 3.046875l-1.375 -1.78125l6.046875 -4.671875l2.1875 0l0 22.84375z" fill-rule="nonzero"></path><path fill="#0b5394" d="m391.67136 118.95196l57.165344 0l0 55.275597l-57.165344 0z" fill-rule="nonzero"></path><path stroke="#515151" stroke-width="1.0" stroke-linejoin="round" stroke-linecap="butt" d="m391.67136 118.95196l57.165344 0l0 55.275597l-57.165344 0z" fill-rule="nonzero"></path><path fill="#ffffff" d="m427.80872 147.55069q0 5.921875 -1.875 8.84375q-1.859375 2.921875 -5.703125 2.921875q-3.6875 0 -5.609375 -2.984375q-1.921875 -3.0 -1.921875 -8.78125q0 -5.96875 1.859375 -8.859375q1.859375 -2.890625 5.671875 -2.890625q3.71875 0 5.640625 3.015625q1.9375 3.015625 1.9375 8.734375zm-12.484375 0q0 4.984375 1.171875 7.265625q1.171875 2.265625 3.734375 2.265625q2.59375 0 3.75 -2.296875q1.171875 -2.3125 1.171875 -7.234375q0 -4.921875 -1.171875 -7.203125q-1.15625 -2.296875 -3.75 -2.296875q-2.5625 0 -3.734375 2.265625q-1.171875 2.25 -1.171875 7.234375z" fill-rule="nonzero"></path><path fill="#0b5394" d="m448.84903 118.95196l57.165375 0l0 55.275597l-57.165375 0z" fill-rule="nonzero"></path><path stroke="#515151" stroke-width="1.0" stroke-linejoin="round" stroke-linecap="butt" d="m448.84903 118.95196l57.165375 0l0 55.275597l-57.165375 0z" fill-rule="nonzero"></path><path fill="#ffffff" d="m484.98642 147.55069q0 5.921875 -1.875 8.84375q-1.859375 2.921875 -5.703125 2.921875q-3.6875 0 -5.609375 -2.984375q-1.921875 -3.0 -1.921875 -8.78125q0 -5.96875 1.859375 -8.859375q1.859375 -2.890625 5.671875 -2.890625q3.71875 0 5.640625 3.015625q1.9375 3.015625 1.9375 8.734375zm-12.484375 0q0 4.984375 1.171875 7.265625q1.171875 2.265625 3.734375 2.265625q2.59375 0 3.75 -2.296875q1.171875 -2.3125 1.171875 -7.234375q0 -4.921875 -1.171875 -7.203125q-1.15625 -2.296875 -3.75 -2.296875q-2.5625 0 -3.734375 2.265625q-1.171875 2.25 -1.171875 7.234375z" fill-rule="nonzero"></path><path fill="#0b5394" d="m506.0267 118.95196l57.165375 0l0 55.275597l-57.165375 0z" fill-rule="nonzero"></path><path stroke="#515151" stroke-width="1.0" stroke-linejoin="round" stroke-linecap="butt" d="m506.0267 118.95196l57.165375 0l0 55.275597l-57.165375 0z" fill-rule="nonzero"></path><path fill="#ffffff" d="m542.16406 147.55069q0 5.921875 -1.875 8.84375q-1.859375 2.921875 -5.703125 2.921875q-3.6875 0 -5.609375 -2.984375q-1.921875 -3.0 -1.921875 -8.78125q0 -5.96875 1.859375 -8.859375q1.859375 -2.890625 5.671875 -2.890625q3.71875 0 5.640625 3.015625q1.9375 3.015625 1.9375 8.734375zm-12.484375 0q0 4.984375 1.171875 7.265625q1.171875 2.265625 3.734375 2.265625q2.59375 0 3.75 -2.296875q1.171875 -2.3125 1.171875 -7.234375q0 -4.921875 -1.171875 -7.203125q-1.15625 -2.296875 -3.75 -2.296875q-2.5625 0 -3.734375 2.265625q-1.171875 2.25 -1.171875 7.234375z" fill-rule="nonzero"></path><path fill="#0b5394" d="m563.20435 118.95196l57.165344 0l0 55.275597l-57.165344 0z" fill-rule="nonzero"></path><path stroke="#515151" stroke-width="1.0" stroke-linejoin="round" stroke-linecap="butt" d="m563.20435 118.95196l57.165344 0l0 55.275597l-57.165344 0z" fill-rule="nonzero"></path><path fill="#ffffff" d="m599.34174 147.55069q0 5.921875 -1.875 8.84375q-1.859375 2.921875 -5.703125 2.921875q-3.6875 0 -5.609375 -2.984375q-1.921875 -3.0 -1.921875 -8.78125q0 -5.96875 1.859375 -8.859375q1.859375 -2.890625 5.671875 -2.890625q3.71875 0 5.640625 3.015625q1.9375 3.015625 1.9375 8.734375zm-12.484375 0q0 4.984375 1.171875 7.265625q1.171875 2.265625 3.734375 2.265625q2.59375 0 3.75 -2.296875q1.171875 -2.3125 1.171875 -7.234375q0 -4.921875 -1.171875 -7.203125q-1.15625 -2.296875 -3.75 -2.296875q-2.5625 0 -3.734375 2.265625q-1.171875 2.25 -1.171875 7.234375z" fill-rule="nonzero"></path><path fill="#0066cc" d="m620.3821 118.95196l57.165344 0l0 55.275597l-57.165344 0z" fill-rule="nonzero"></path><path stroke="#515151" stroke-width="1.0" stroke-linejoin="round" stroke-linecap="butt" d="m620.3821 118.95196l57.165344 0l0 55.275597l-57.165344 0z" fill-rule="nonzero"></path><path fill="#ffffff" d="m650.9882 159.00381l-2.53125 0l0 -16.28125q0 -2.03125 0.125 -3.84375q-0.328125 0.328125 -0.734375 0.6875q-0.40625 0.359375 -3.71875 3.046875l-1.375 -1.78125l6.046875 -4.671875l2.1875 0l0 22.84375z" fill-rule="nonzero"></path><path fill="#000000" fill-opacity="0.0" d="m234.12805 91.94936l29.669281 0l0 27.244095l-29.669281 0z" fill-rule="nonzero"></path><path fill="#515151" d="m253.55096 106.00891q0 3.515625 -1.109375 5.25q-1.109375 1.734375 -3.390625 1.734375q-2.1875 0 -3.328125 -1.78125q-1.140625 -1.78125 -1.140625 -5.203125q0 -3.546875 1.09375 -5.265625q1.109375 -1.71875 3.375 -1.71875q2.203125 0 3.34375 1.796875q1.15625 1.78125 1.15625 5.1875zm-7.421875 0q0 2.953125 0.6875 4.3125q0.703125 1.34375 2.234375 1.34375q1.53125 0 2.21875 -1.359375q0.703125 -1.375 0.703125 -4.296875q0 -2.921875 -0.703125 -4.28125q-0.6875 -1.359375 -2.21875 -1.359375q-1.53125 0 -2.234375 1.34375q-0.6875 1.328125 -0.6875 4.296875z" fill-rule="nonzero"></path><path fill="#000000" fill-opacity="0.0" d="m291.07407 91.94936l29.669281 0l0 27.244095l-29.669281 0z" fill-rule="nonzero"></path><path fill="#515151" d="m307.21573 112.805786l-1.515625 0l0 -9.671875q0 -1.203125 0.078125 -2.28125q-0.1875 0.203125 -0.4375 0.421875q-0.234375 0.203125 -2.203125 1.796875l-0.8125 -1.0625l3.578125 -2.765625l1.3125 0l0 13.5625z" fill-rule="nonzero"></path><path fill="#000000" fill-opacity="0.0" d="m348.25183 91.94406l29.669312 0l0 27.244095l-29.669312 0z" fill-rule="nonzero"></path><path fill="#515151" d="m367.59662 112.80048l-8.921875 0l0 -1.328125l3.578125 -3.59375q1.625 -1.640625 2.140625 -2.34375q0.53125 -0.71875 0.78125 -1.375q0.265625 -0.671875 0.265625 -1.4375q0 -1.09375 -0.65625 -1.71875q-0.65625 -0.640625 -1.828125 -0.640625q-0.84375 0 -1.609375 0.28125q-0.75 0.265625 -1.671875 1.0l-0.8125 -1.046875q1.875 -1.5625 4.078125 -1.5625q1.90625 0 2.984375 0.984375q1.09375 0.984375 1.09375 2.625q0 1.296875 -0.71875 2.5625q-0.71875 1.25 -2.71875 3.1875l-2.96875 2.90625l0 0.078125l6.984375 0l0 1.421875z" fill-rule="nonzero"></path><path fill="#000000" fill-opacity="0.0" d="m405.42963 91.94406l29.669281 0l0 27.244095l-29.669281 0z" fill-rule="nonzero"></path><path fill="#515151" d="m424.2588 102.42548q0 1.296875 -0.734375 2.125q-0.71875 0.828125 -2.046875 1.109375l0 0.078125q1.625 0.203125 2.40625 1.03125q0.796875 0.828125 0.796875 2.1875q0 1.9375 -1.34375 2.984375q-1.34375 1.046875 -3.828125 1.046875q-1.078125 0 -1.96875 -0.171875q-0.890625 -0.15625 -1.734375 -0.5625l0 -1.46875q0.875 0.4375 1.875 0.671875q1.0 0.21875 1.890625 0.21875q3.515625 0 3.515625 -2.75q0 -2.46875 -3.875 -2.46875l-1.34375 0l0 -1.328125l1.359375 0q1.578125 0 2.5 -0.703125q0.9375 -0.703125 0.9375 -1.9375q0 -1.0 -0.6875 -1.5625q-0.671875 -0.5625 -1.84375 -0.5625q-0.890625 0 -1.6875 0.25q-0.78125 0.234375 -1.796875 0.875l-0.765625 -1.03125q0.828125 -0.65625 1.921875 -1.03125q1.09375 -0.390625 2.296875 -0.390625q1.96875 0 3.0625 0.90625q1.09375 0.90625 1.09375 2.484375z" fill-rule="nonzero"></path><path fill="#000000" fill-opacity="0.0" d="m462.6074 91.94406l29.669312 0l0 27.244095l-29.669312 0z" fill-rule="nonzero"></path><path fill="#515151" d="m482.5928 109.67548l-2.015625 0l0 3.125l-1.46875 0l0 -3.125l-6.59375 0l0 -1.34375l6.4375 -9.171875l1.625 0l0 9.125l2.015625 0l0 1.390625zm-3.484375 -1.390625l0 -4.515625q0 -1.328125 0.09375 -3.0l-0.078125 0q-0.453125 0.890625 -0.84375 1.484375l-4.234375 6.03125l5.0625 0z" fill-rule="nonzero"></path><path fill="#000000" fill-opacity="0.0" d="m519.55347 91.94406l29.66925 0l0 27.244095l-29.66925 0z" fill-rule="nonzero"></path><path fill="#515151" d="m534.2263 104.51923q2.140625 0 3.359375 1.0625q1.234375 1.0625 1.234375 2.90625q0 2.109375 -1.34375 3.3125q-1.328125 1.1875 -3.6875 1.1875q-2.296875 0 -3.5 -0.734375l0 -1.484375q0.65625 0.421875 1.609375 0.65625q0.96875 0.234375 1.90625 0.234375q1.640625 0 2.53125 -0.765625q0.90625 -0.78125 0.90625 -2.234375q0 -2.84375 -3.46875 -2.84375q-0.890625 0 -2.359375 0.28125l-0.796875 -0.515625l0.5 -6.34375l6.75 0l0 1.421875l-5.421875 0l-0.34375 4.0625q1.0625 -0.203125 2.125 -0.203125z" fill-rule="nonzero"></path><path fill="#000000" fill-opacity="0.0" d="m576.7312 91.93875l29.669312 0l0 27.244095l-29.669312 0z" fill-rule="nonzero"></path><path fill="#515151" d="m587.31036 106.9983q0 -4.0 1.546875 -5.984375q1.5625 -1.984375 4.609375 -1.984375q1.046875 0 1.65625 0.1875l0 1.328125q-0.71875 -0.234375 -1.640625 -0.234375q-2.171875 0 -3.328125 1.359375q-1.140625 1.359375 -1.265625 4.265625l0.125 0q1.015625 -1.59375 3.21875 -1.59375q1.828125 0 2.875 1.109375q1.0625 1.09375 1.0625 3.0q0 2.109375 -1.15625 3.328125q-1.15625 1.203125 -3.125 1.203125q-2.109375 0 -3.34375 -1.578125q-1.234375 -1.59375 -1.234375 -4.40625zm4.5625 4.671875q1.3125 0 2.046875 -0.828125q0.734375 -0.828125 0.734375 -2.390625q0 -1.359375 -0.6875 -2.125q-0.671875 -0.765625 -2.015625 -0.765625q-0.84375 0 -1.546875 0.34375q-0.6875 0.34375 -1.109375 0.953125q-0.40625 0.59375 -0.40625 1.25q0 0.953125 0.375 1.78125q0.375 0.8125 1.046875 1.296875q0.6875 0.484375 1.5625 0.484375z" fill-rule="nonzero"></path><path fill="#000000" fill-opacity="0.0" d="m633.909 91.93875l29.669312 0l0 27.244095l-29.669312 0z" fill-rule="nonzero"></path><path fill="#515151" d="m646.05066 112.79517l5.625 -12.140625l-7.390625 0l0 -1.421875l9.03125 0l0 1.234375l-5.5625 12.328125l-1.703125 0z" fill-rule="nonzero"></path><path fill="#ffffff" d="m844.80707 19.141733l57.385864 0l0 52.062996l-57.385864 0z" fill-rule="nonzero"></path><path stroke="#515151" stroke-width="1.0" stroke-linejoin="round" stroke-linecap="butt" d="m844.80707 19.141733l57.385864 0l0 52.062996l-57.385864 0z" fill-rule="nonzero"></path><path fill="#515151" d="m880.71094 53.040413l0 2.703125l-15.140625 0q-0.03125 -1.015625 0.328125 -1.953125q0.578125 -1.546875 1.84375 -3.046875q1.28125 -1.5 3.6875 -3.46875q3.734375 -3.0625 5.046875 -4.84375q1.3125 -1.796875 1.3125 -3.390625q0 -1.671875 -1.203125 -2.8125q-1.1875 -1.15625 -3.109375 -1.15625q-2.03125 0 -3.25 1.21875q-1.21875 1.21875 -1.234375 3.375l-2.890625 -0.296875q0.296875 -3.234375 2.234375 -4.921875q1.9375 -1.703125 5.203125 -1.703125q3.296875 0 5.21875 1.828125q1.921875 1.828125 1.921875 4.53125q0 1.375 -0.5625 2.703125q-0.5625 1.328125 -1.875 2.796875q-1.296875 1.46875 -4.328125 4.03125q-2.53125 2.125 -3.25 2.890625q-0.71875 0.75 -1.1875 1.515625l11.234375 0z" fill-rule="nonzero"></path><path fill="#ffffff" d="m844.80707 71.20473l57.385864 0l0 52.06299l-57.385864 0z" fill-rule="nonzero"></path><path stroke="#515151" stroke-width="1.0" stroke-linejoin="round" stroke-linecap="butt" d="m844.80707 71.20473l57.385864 0l0 52.06299l-57.385864 0z" fill-rule="nonzero"></path><path fill="#515151" d="m865.9297 101.80653l2.953125 -0.25q0.328125 2.15625 1.515625 3.25q1.203125 1.078125 2.890625 1.078125q2.03125 0 3.4375 -1.53125q1.40625 -1.53125 1.40625 -4.0625q0 -2.40625 -1.359375 -3.796875q-1.34375 -1.390625 -3.53125 -1.390625q-1.359375 0 -2.453125 0.625q-1.09375 0.609375 -1.71875 1.59375l-2.640625 -0.34375l2.21875 -11.765625l11.390625 0l0 2.6875l-9.140625 0l-1.234375 6.15625q2.0625 -1.4375 4.328125 -1.4375q3.0 0 5.0625 2.078125q2.0625 2.078125 2.0625 5.34375q0 3.109375 -1.8125 5.375q-2.203125 2.78125 -6.015625 2.78125q-3.125 0 -5.109375 -1.75q-1.96875 -1.75 -2.25 -4.640625z" fill-rule="nonzero"></path><path fill="#ffffff" d="m844.80707 122.16535l57.385864 0l0 52.062996l-57.385864 0z" fill-rule="nonzero"></path><path stroke="#515151" stroke-width="1.0" stroke-linejoin="round" stroke-linecap="butt" d="m844.80707 122.16535l57.385864 0l0 52.062996l-57.385864 0z" fill-rule="nonzero"></path><path fill="#515151" d="m865.9297 147.47029q0 -4.0625 0.828125 -6.53125q0.84375 -2.484375 2.484375 -3.828125q1.65625 -1.34375 4.15625 -1.34375q1.84375 0 3.234375 0.75q1.390625 0.734375 2.296875 2.140625q0.90625 1.390625 1.421875 3.40625q0.515625 2.0 0.515625 5.40625q0 4.03125 -0.828125 6.515625q-0.828125 2.46875 -2.484375 3.828125q-1.640625 1.34375 -4.15625 1.34375q-3.3125 0 -5.203125 -2.375q-2.265625 -2.859375 -2.265625 -9.3125zm2.890625 0q0 5.640625 1.3125 7.515625q1.328125 1.859375 3.265625 1.859375q1.9375 0 3.25 -1.875q1.328125 -1.875 1.328125 -7.5q0 -5.65625 -1.328125 -7.515625q-1.3125 -1.859375 -3.28125 -1.859375q-1.9375 0 -3.09375 1.640625q-1.453125 2.09375 -1.453125 7.734375z" fill-rule="nonzero"></path><path fill="#009f5d" d="m844.80707 174.22835l57.385864 0l0 52.06299l-57.385864 0z" fill-rule="nonzero"></path><path stroke="#515151" stroke-width="1.0" stroke-linejoin="round" stroke-linecap="butt" d="m844.80707 174.22835l57.385864 0l0 52.06299l-57.385864 0z" fill-rule="nonzero"></path><path fill="#ffffff" d="m874.9453 210.83015l0 -5.484375l-9.9375 0l0 -2.578125l10.453125 -14.84375l2.296875 0l0 14.84375l3.09375 0l0 2.578125l-3.09375 0l0 5.484375l-2.8125 0zm0 -8.0625l0 -10.328125l-7.171875 10.328125l7.171875 0z" fill-rule="nonzero"></path><path fill="#ffffff" d="m844.80707 225.18898l57.385864 0l0 52.062973l-57.385864 0z" fill-rule="nonzero"></path><path stroke="#515151" stroke-width="1.0" stroke-linejoin="round" stroke-linecap="butt" d="m844.80707 225.18898l57.385864 0l0 52.062973l-57.385864 0z" fill-rule="nonzero"></path><path fill="#515151" d="m876.52344 261.79077l-2.8125 0l0 -17.92186q-1.015625 0.96875 -2.671875 1.9375q-1.640625 0.96875 -2.953125 1.453125l0 -2.71875q2.359375 -1.109375 4.125 -2.6875q1.765625 -1.578125 2.5 -3.0625l1.8125 0l0 22.999985z" fill-rule="nonzero"></path><path fill="#ffffff" d="m844.80707 277.25198l57.385864 0l0 52.06299l-57.385864 0z" fill-rule="nonzero"></path><path stroke="#515151" stroke-width="1.0" stroke-linejoin="round" stroke-linecap="butt" d="m844.80707 277.25198l57.385864 0l0 52.06299l-57.385864 0z" fill-rule="nonzero"></path><path fill="#515151" d="m865.9453 307.80692l2.8125 -0.375q0.484375 2.390625 1.640625 3.453125q1.171875 1.046875 2.84375 1.046875q1.984375 0 3.34375 -1.375q1.375 -1.375 1.375 -3.40625q0 -1.9375 -1.265625 -3.1875q-1.265625 -1.265625 -3.21875 -1.265625q-0.796875 0 -1.984375 0.3125l0.3125 -2.46875q0.28125 0.03125 0.453125 0.03125q1.796875 0 3.234375 -0.9375q1.4375 -0.9375 1.4375 -2.890625q0 -1.546875 -1.046875 -2.5625q-1.046875 -1.015625 -2.703125 -1.015625q-1.640625 0 -2.734375 1.03125q-1.09375 1.03125 -1.40625 3.09375l-2.8125 -0.5q0.515625 -2.828125 2.34375 -4.375q1.828125 -1.5625 4.546875 -1.5625q1.875 0 3.453125 0.8125q1.578125 0.796875 2.40625 2.1875q0.84375 1.390625 0.84375 2.953125q0 1.484375 -0.796875 2.703125q-0.796875 1.21875 -2.359375 1.9375q2.03125 0.46875 3.15625 1.953125q1.125 1.46875 1.125 3.6875q0 3.0 -2.1875 5.09375q-2.1875 2.078125 -5.53125 2.078125q-3.015625 0 -5.015625 -1.796875q-1.984375 -1.796875 -2.265625 -4.65625z" fill-rule="nonzero"></path><path fill="#ffffff" d="m844.80707 328.2126l57.385864 0l0 52.06302l-57.385864 0z" fill-rule="nonzero"></path><path stroke="#515151" stroke-width="1.0" stroke-linejoin="round" stroke-linecap="butt" d="m844.80707 328.2126l57.385864 0l0 52.06302l-57.385864 0z" fill-rule="nonzero"></path><path fill="#515151" d="m876.52344 364.8144l-2.8125 0l0 -17.921875q-1.015625 0.96875 -2.671875 1.9375q-1.640625 0.96875 -2.953125 1.453125l0 -2.71875q2.359375 -1.109375 4.125 -2.6875q1.765625 -1.578125 2.5 -3.0625l1.8125 0l0 23.0z" fill-rule="nonzero"></path><path fill="#ffffff" d="m844.80707 380.2756l57.385864 0l0 52.06299l-57.385864 0z" fill-rule="nonzero"></path><path stroke="#515151" stroke-width="1.0" stroke-linejoin="round" stroke-linecap="butt" d="m844.80707 380.2756l57.385864 0l0 52.06299l-57.385864 0z" fill-rule="nonzero"></path><path fill="#515151" d="m865.9453 410.83054l2.8125 -0.375q0.484375 2.390625 1.640625 3.453125q1.171875 1.046875 2.84375 1.046875q1.984375 0 3.34375 -1.375q1.375 -1.375 1.375 -3.40625q0 -1.9375 -1.265625 -3.1875q-1.265625 -1.265625 -3.21875 -1.265625q-0.796875 0 -1.984375 0.3125l0.3125 -2.46875q0.28125 0.03125 0.453125 0.03125q1.796875 0 3.234375 -0.9375q1.4375 -0.9375 1.4375 -2.890625q0 -1.546875 -1.046875 -2.5625q-1.046875 -1.015625 -2.703125 -1.015625q-1.640625 0 -2.734375 1.03125q-1.09375 1.03125 -1.40625 3.09375l-2.8125 -0.5q0.515625 -2.828125 2.34375 -4.375q1.828125 -1.5625 4.546875 -1.5625q1.875 0 3.453125 0.8125q1.578125 0.796875 2.40625 2.1875q0.84375 1.390625 0.84375 2.953125q0 1.484375 -0.796875 2.703125q-0.796875 1.21875 -2.359375 1.9375q2.03125 0.46875 3.15625 1.953125q1.125 1.46875 1.125 3.6875q0 3.0 -2.1875 5.09375q-2.1875 2.078125 -5.53125 2.078125q-3.015625 0 -5.015625 -1.796875q-1.984375 -1.796875 -2.265625 -4.65625z" fill-rule="nonzero"></path><path fill="#000000" fill-opacity="0.0" d="m902.19366 31.550415l29.66925 0l0 27.244095l-29.66925 0z" fill-rule="nonzero"></path><path fill="#515151" d="m921.6166 45.609962q0 3.515625 -1.109375 5.25q-1.109375 1.734375 -3.390625 1.734375q-2.1875 0 -3.328125 -1.78125q-1.140625 -1.78125 -1.140625 -5.203125q0 -3.546875 1.09375 -5.265625q1.109375 -1.71875 3.375 -1.71875q2.203125 0 3.34375 1.796875q1.15625 1.78125 1.15625 5.1875zm-7.421875 0q0 2.953125 0.6875 4.3125q0.703125 1.34375 2.234375 1.34375q1.53125 0 2.21875 -1.359375q0.703125 -1.375 0.703125 -4.296875q0 -2.921875 -0.703125 -4.28125q-0.6875 -1.359375 -2.21875 -1.359375q-1.53125 0 -2.234375 1.34375q-0.6875 1.328125 -0.6875 4.296875z" fill-rule="nonzero"></path><path fill="#000000" fill-opacity="0.0" d="m902.19366 83.6134l29.66925 0l0 27.244095l-29.66925 0z" fill-rule="nonzero"></path><path fill="#515151" d="m918.3353 104.469826l-1.515625 0l0 -9.671875q0 -1.203125 0.078125 -2.28125q-0.1875 0.203125 -0.4375 0.421875q-0.234375 0.203125 -2.203125 1.796875l-0.8125 -1.0625l3.578125 -2.765625l1.3125 0l0 13.5625z" fill-rule="nonzero"></path><path fill="#000000" fill-opacity="0.0" d="m902.19366 135.67639l29.66925 0l0 27.244095l-29.66925 0z" fill-rule="nonzero"></path><path fill="#515151" d="m921.53845 156.53282l-8.921875 0l0 -1.328125l3.578125 -3.59375q1.625 -1.640625 2.140625 -2.34375q0.53125 -0.71875 0.78125 -1.375q0.265625 -0.671875 0.265625 -1.4375q0 -1.09375 -0.65625 -1.71875q-0.65625 -0.640625 -1.828125 -0.640625q-0.84375 0 -1.609375 0.28125q-0.75 0.265625 -1.671875 1.0l-0.8125 -1.046875q1.875 -1.5625 4.078125 -1.5625q1.90625 0 2.984375 0.984375q1.09375 0.984375 1.09375 2.625q0 1.296875 -0.71875 2.5625q-0.71875 1.25 -2.71875 3.1875l-2.96875 2.90625l0 0.078125l6.984375 0l0 1.421875z" fill-rule="nonzero"></path><path fill="#000000" fill-opacity="0.0" d="m902.19366 187.7394l29.66925 0l0 27.244095l-29.66925 0z" fill-rule="nonzero"></path><path fill="#515151" d="m921.0228 198.22083q0 1.296875 -0.734375 2.125q-0.71875 0.828125 -2.046875 1.109375l0 0.078125q1.625 0.203125 2.40625 1.03125q0.796875 0.828125 0.796875 2.1875q0 1.9375 -1.34375 2.984375q-1.34375 1.046875 -3.828125 1.046875q-1.078125 0 -1.96875 -0.171875q-0.890625 -0.15625 -1.734375 -0.5625l0 -1.46875q0.875 0.4375 1.875 0.671875q1.0 0.21875 1.890625 0.21875q3.515625 0 3.515625 -2.75q0 -2.46875 -3.875 -2.46875l-1.34375 0l0 -1.328125l1.359375 0q1.578125 0 2.5 -0.703125q0.9375 -0.703125 0.9375 -1.9375q0 -1.0 -0.6875 -1.5625q-0.671875 -0.5625 -1.84375 -0.5625q-0.890625 0 -1.6875 0.25q-0.78125 0.234375 -1.796875 0.875l-0.765625 -1.03125q0.828125 -0.65625 1.921875 -1.03125q1.09375 -0.390625 2.296875 -0.390625q1.96875 0 3.0625 0.90625q1.09375 0.90625 1.09375 2.484375z" fill-rule="nonzero"></path><path fill="#000000" fill-opacity="0.0" d="m902.19366 233.18822l29.66925 0l0 27.244095l-29.66925 0z" fill-rule="nonzero"></path><path fill="#515151" d="m922.1791 250.91965l-2.015625 0l0 3.125l-1.46875 0l0 -3.125l-6.59375 0l0 -1.34375l6.4375 -9.171875l1.625 0l0 9.125l2.015625 0l0 1.390625zm-3.484375 -1.390625l0 -4.515625q0 -1.328125 0.09375 -3.0l-0.078125 0q-0.453125 0.890625 -0.84375 1.484375l-4.234375 6.03125l5.0625 0z" fill-rule="nonzero"></path><path fill="#000000" fill-opacity="0.0" d="m902.19366 285.25122l29.66925 0l0 27.24408l-29.66925 0z" fill-rule="nonzero"></path><path fill="#515151" d="m916.8666 297.8264q2.140625 0 3.359375 1.0625q1.234375 1.0625 1.234375 2.90625q0 2.109375 -1.34375 3.3125q-1.328125 1.1875 -3.6875 1.1875q-2.296875 0 -3.5 -0.734375l0 -1.484375q0.65625 0.421875 1.609375 0.65625q0.96875 0.234375 1.90625 0.234375q1.640625 0 2.53125 -0.765625q0.90625 -0.78125 0.90625 -2.234375q0 -2.84375 -3.46875 -2.84375q-0.890625 0 -2.359375 0.28125l-0.796875 -0.515625l0.5 -6.34375l6.75 0l0 1.421875l-5.421875 0l-0.34375 4.0625q1.0625 -0.203125 2.125 -0.203125z" fill-rule="nonzero"></path><path fill="#000000" fill-opacity="0.0" d="m902.19366 337.3142l29.66925 0l0 27.24408l-29.66925 0z" fill-rule="nonzero"></path><path fill="#515151" d="m912.7728 352.37375q0 -4.0 1.546875 -5.984375q1.5625 -1.984375 4.609375 -1.984375q1.046875 0 1.65625 0.1875l0 1.328125q-0.71875 -0.234375 -1.640625 -0.234375q-2.171875 0 -3.328125 1.359375q-1.140625 1.359375 -1.265625 4.265625l0.125 0q1.015625 -1.59375 3.21875 -1.59375q1.828125 0 2.875 1.109375q1.0625 1.09375 1.0625 3.0q0 2.109375 -1.15625 3.328125q-1.15625 1.203125 -3.125 1.203125q-2.109375 0 -3.34375 -1.578125q-1.234375 -1.59375 -1.234375 -4.40625zm4.5625 4.671875q1.3125 0 2.046875 -0.828125q0.734375 -0.828125 0.734375 -2.390625q0 -1.359375 -0.6875 -2.125q-0.671875 -0.765625 -2.015625 -0.765625q-0.84375 0 -1.546875 0.34375q-0.6875 0.34375 -1.109375 0.953125q-0.40625 0.59375 -0.40625 1.25q0 0.953125 0.375 1.78125q0.375 0.8125 1.046875 1.296875q0.6875 0.484375 1.5625 0.484375z" fill-rule="nonzero"></path><path fill="#000000" fill-opacity="0.0" d="m902.19366 389.37717l29.66925 0l0 27.24411l-29.66925 0z" fill-rule="nonzero"></path><path fill="#515151" d="m914.3353 410.23358l5.625 -12.140625l-7.390625 0l0 -1.421875l9.03125 0l0 1.234375l-5.5625 12.328125l-1.703125 0z" fill-rule="nonzero"></path><path fill="#009f5d" d="m220.13823 284.74197l57.16536 0l0 55.275604l-57.16536 0z" fill-rule="nonzero"></path><path stroke="#515151" stroke-width="1.0" stroke-linejoin="round" stroke-linecap="butt" d="m220.13823 284.74197l57.16536 0l0 55.275604l-57.16536 0z" fill-rule="nonzero"></path><path fill="#ffffff" d="m256.2756 313.34073q0 5.921875 -1.8750153 8.84375q-1.859375 2.921875 -5.703125 2.921875q-3.6875 0 -5.609375 -2.984375q-1.921875 -3.0 -1.921875 -8.78125q0 -5.96875 1.859375 -8.859375q1.859375 -2.890625 5.671875 -2.890625q3.71875 0 5.640625 3.015625q1.9375153 3.015625 1.9375153 8.734375zm-12.48439 0q0 4.984375 1.171875 7.265625q1.171875 2.265625 3.734375 2.265625q2.59375 0 3.75 -2.296875q1.171875 -2.3125 1.171875 -7.234375q0 -4.921875 -1.171875 -7.203125q-1.15625 -2.296875 -3.75 -2.296875q-2.5625 0 -3.734375 2.265625q-1.171875 2.25 -1.171875 7.234375z" fill-rule="nonzero"></path><path fill="#009f5d" d="m277.31592 284.74197l57.165375 0l0 55.275604l-57.165375 0z" fill-rule="nonzero"></path><path stroke="#515151" stroke-width="1.0" stroke-linejoin="round" stroke-linecap="butt" d="m277.31592 284.74197l57.165375 0l0 55.275604l-57.165375 0z" fill-rule="nonzero"></path><path fill="#ffffff" d="m307.92203 324.79385l-2.53125 0l0 -16.28125q0 -2.03125 0.125 -3.84375q-0.328125 0.328125 -0.734375 0.6875q-0.40625 0.359375 -3.71875 3.046875l-1.375 -1.78125l6.046875 -4.671875l2.1875 0l0 22.84375z" fill-rule="nonzero"></path><path fill="#009f5d" d="m334.49362 284.74197l57.165344 0l0 55.275604l-57.165344 0z" fill-rule="nonzero"></path><path stroke="#515151" stroke-width="1.0" stroke-linejoin="round" stroke-linecap="butt" d="m334.49362 284.74197l57.165344 0l0 55.275604l-57.165344 0z" fill-rule="nonzero"></path><path fill="#ffffff" d="m365.09973 324.79385l-2.53125 0l0 -16.28125q0 -2.03125 0.125 -3.84375q-0.328125 0.328125 -0.734375 0.6875q-0.40625 0.359375 -3.71875 3.046875l-1.375 -1.78125l6.046875 -4.671875l2.1875 0l0 22.84375z" fill-rule="nonzero"></path><path fill="#0b5394" d="m391.67136 284.74197l57.165344 0l0 55.275604l-57.165344 0z" fill-rule="nonzero"></path><path stroke="#515151" stroke-width="1.0" stroke-linejoin="round" stroke-linecap="butt" d="m391.67136 284.74197l57.165344 0l0 55.275604l-57.165344 0z" fill-rule="nonzero"></path><path fill="#ffffff" d="m427.80872 313.34073q0 5.921875 -1.875 8.84375q-1.859375 2.921875 -5.703125 2.921875q-3.6875 0 -5.609375 -2.984375q-1.921875 -3.0 -1.921875 -8.78125q0 -5.96875 1.859375 -8.859375q1.859375 -2.890625 5.671875 -2.890625q3.71875 0 5.640625 3.015625q1.9375 3.015625 1.9375 8.734375zm-12.484375 0q0 4.984375 1.171875 7.265625q1.171875 2.265625 3.734375 2.265625q2.59375 0 3.75 -2.296875q1.171875 -2.3125 1.171875 -7.234375q0 -4.921875 -1.171875 -7.203125q-1.15625 -2.296875 -3.75 -2.296875q-2.5625 0 -3.734375 2.265625q-1.171875 2.25 -1.171875 7.234375z" fill-rule="nonzero"></path><path fill="#0066cc" d="m448.84903 284.74197l57.165375 0l0 55.275604l-57.165375 0z" fill-rule="nonzero"></path><path stroke="#515151" stroke-width="1.0" stroke-linejoin="round" stroke-linecap="butt" d="m448.84903 284.74197l57.165375 0l0 55.275604l-57.165375 0z" fill-rule="nonzero"></path><path fill="#ffffff" d="m479.45517 324.79385l-2.53125 0l0 -16.28125q0 -2.03125 0.125 -3.84375q-0.328125 0.328125 -0.734375 0.6875q-0.40625 0.359375 -3.71875 3.046875l-1.375 -1.78125l6.046875 -4.671875l2.1875 0l0 22.84375z" fill-rule="nonzero"></path><path fill="#0066cc" d="m506.0267 284.74197l57.165375 0l0 55.275604l-57.165375 0z" fill-rule="nonzero"></path><path stroke="#515151" stroke-width="1.0" stroke-linejoin="round" stroke-linecap="butt" d="m506.0267 284.74197l57.165375 0l0 55.275604l-57.165375 0z" fill-rule="nonzero"></path><path fill="#ffffff" d="m536.6328 324.79385l-2.53125 0l0 -16.28125q0 -2.03125 0.125 -3.84375q-0.328125 0.328125 -0.734375 0.6875q-0.40625 0.359375 -3.71875 3.046875l-1.375 -1.78125l6.046875 -4.671875l2.1875 0l0 22.84375z" fill-rule="nonzero"></path><path fill="#0066cc" d="m563.20435 284.74197l57.165344 0l0 55.275604l-57.165344 0z" fill-rule="nonzero"></path><path stroke="#515151" stroke-width="1.0" stroke-linejoin="round" stroke-linecap="butt" d="m563.20435 284.74197l57.165344 0l0 55.275604l-57.165344 0z" fill-rule="nonzero"></path><path fill="#ffffff" d="m593.8105 324.79385l-2.53125 0l0 -16.28125q0 -2.03125 0.125 -3.84375q-0.328125 0.328125 -0.734375 0.6875q-0.40625 0.359375 -3.71875 3.046875l-1.375 -1.78125l6.046875 -4.671875l2.1875 0l0 22.84375z" fill-rule="nonzero"></path><path fill="#0066cc" d="m620.3821 284.74197l57.165344 0l0 55.275604l-57.165344 0z" fill-rule="nonzero"></path><path stroke="#515151" stroke-width="1.0" stroke-linejoin="round" stroke-linecap="butt" d="m620.3821 284.74197l57.165344 0l0 55.275604l-57.165344 0z" fill-rule="nonzero"></path><path fill="#ffffff" d="m650.9882 324.79385l-2.53125 0l0 -16.28125q0 -2.03125 0.125 -3.84375q-0.328125 0.328125 -0.734375 0.6875q-0.40625 0.359375 -3.71875 3.046875l-1.375 -1.78125l6.046875 -4.671875l2.1875 0l0 22.84375z" fill-rule="nonzero"></path><path fill="#000000" fill-opacity="0.0" d="m234.12805 257.7394l29.669281 0l0 27.24408l-29.669281 0z" fill-rule="nonzero"></path><path fill="#515151" d="m253.55096 271.79895q0 3.515625 -1.109375 5.25q-1.109375 1.734375 -3.390625 1.734375q-2.1875 0 -3.328125 -1.78125q-1.140625 -1.78125 -1.140625 -5.203125q0 -3.546875 1.09375 -5.265625q1.109375 -1.71875 3.375 -1.71875q2.203125 0 3.34375 1.796875q1.15625 1.78125 1.15625 5.1875zm-7.421875 0q0 2.953125 0.6875 4.3125q0.703125 1.34375 2.234375 1.34375q1.53125 0 2.21875 -1.359375q0.703125 -1.375 0.703125 -4.296875q0 -2.921875 -0.703125 -4.28125q-0.6875 -1.359375 -2.21875 -1.359375q-1.53125 0 -2.234375 1.34375q-0.6875 1.328125 -0.6875 4.296875z" fill-rule="nonzero"></path><path fill="#000000" fill-opacity="0.0" d="m291.07407 257.7394l29.669281 0l0 27.24408l-29.669281 0z" fill-rule="nonzero"></path><path fill="#515151" d="m307.21573 278.59583l-1.515625 0l0 -9.671875q0 -1.203125 0.078125 -2.28125q-0.1875 0.203125 -0.4375 0.421875q-0.234375 0.203125 -2.203125 1.796875l-0.8125 -1.0625l3.578125 -2.765625l1.3125 0l0 13.5625z" fill-rule="nonzero"></path><path fill="#000000" fill-opacity="0.0" d="m348.25183 257.7341l29.669312 0l0 27.24408l-29.669312 0z" fill-rule="nonzero"></path><path fill="#515151" d="m367.59662 278.5905l-8.921875 0l0 -1.328125l3.578125 -3.59375q1.625 -1.640625 2.140625 -2.34375q0.53125 -0.71875 0.78125 -1.375q0.265625 -0.671875 0.265625 -1.4375q0 -1.09375 -0.65625 -1.71875q-0.65625 -0.640625 -1.828125 -0.640625q-0.84375 0 -1.609375 0.28125q-0.75 0.265625 -1.671875 1.0l-0.8125 -1.046875q1.875 -1.5625 4.078125 -1.5625q1.90625 0 2.984375 0.984375q1.09375 0.984375 1.09375 2.625q0 1.296875 -0.71875 2.5625q-0.71875 1.25 -2.71875 3.1875l-2.96875 2.90625l0 0.078125l6.984375 0l0 1.421875z" fill-rule="nonzero"></path><path fill="#000000" fill-opacity="0.0" d="m405.42963 257.7341l29.669281 0l0 27.24408l-29.669281 0z" fill-rule="nonzero"></path><path fill="#515151" d="m424.2588 268.2155q0 1.296875 -0.734375 2.125q-0.71875 0.828125 -2.046875 1.109375l0 0.078125q1.625 0.203125 2.40625 1.03125q0.796875 0.828125 0.796875 2.1875q0 1.9375 -1.34375 2.984375q-1.34375 1.046875 -3.828125 1.046875q-1.078125 0 -1.96875 -0.171875q-0.890625 -0.15625 -1.734375 -0.5625l0 -1.46875q0.875 0.4375 1.875 0.671875q1.0 0.21875 1.890625 0.21875q3.515625 0 3.515625 -2.75q0 -2.46875 -3.875 -2.46875l-1.34375 0l0 -1.328125l1.359375 0q1.578125 0 2.5 -0.703125q0.9375 -0.703125 0.9375 -1.9375q0 -1.0 -0.6875 -1.5625q-0.671875 -0.5625 -1.84375 -0.5625q-0.890625 0 -1.6875 0.25q-0.78125 0.234375 -1.796875 0.875l-0.765625 -1.03125q0.828125 -0.65625 1.921875 -1.03125q1.09375 -0.390625 2.296875 -0.390625q1.96875 0 3.0625 0.90625q1.09375 0.90625 1.09375 2.484375z" fill-rule="nonzero"></path><path fill="#000000" fill-opacity="0.0" d="m462.6074 257.7341l29.669312 0l0 27.24408l-29.669312 0z" fill-rule="nonzero"></path><path fill="#515151" d="m482.5928 275.4655l-2.015625 0l0 3.125l-1.46875 0l0 -3.125l-6.59375 0l0 -1.34375l6.4375 -9.171875l1.625 0l0 9.125l2.015625 0l0 1.390625zm-3.484375 -1.390625l0 -4.515625q0 -1.328125 0.09375 -3.0l-0.078125 0q-0.453125 0.890625 -0.84375 1.484375l-4.234375 6.03125l5.0625 0z" fill-rule="nonzero"></path><path fill="#000000" fill-opacity="0.0" d="m519.55347 257.7341l29.66925 0l0 27.24408l-29.66925 0z" fill-rule="nonzero"></path><path fill="#515151" d="m534.2263 270.30927q2.140625 0 3.359375 1.0625q1.234375 1.0625 1.234375 2.90625q0 2.109375 -1.34375 3.3125q-1.328125 1.1875 -3.6875 1.1875q-2.296875 0 -3.5 -0.734375l0 -1.484375q0.65625 0.421875 1.609375 0.65625q0.96875 0.234375 1.90625 0.234375q1.640625 0 2.53125 -0.765625q0.90625 -0.78125 0.90625 -2.234375q0 -2.84375 -3.46875 -2.84375q-0.890625 0 -2.359375 0.28125l-0.796875 -0.515625l0.5 -6.34375l6.75 0l0 1.421875l-5.421875 0l-0.34375 4.0625q1.0625 -0.203125 2.125 -0.203125z" fill-rule="nonzero"></path><path fill="#000000" fill-opacity="0.0" d="m576.7312 257.7288l29.669312 0l0 27.24408l-29.669312 0z" fill-rule="nonzero"></path><path fill="#515151" d="m587.31036 272.78833q0 -4.0 1.546875 -5.984375q1.5625 -1.984375 4.609375 -1.984375q1.046875 0 1.65625 0.1875l0 1.328125q-0.71875 -0.234375 -1.640625 -0.234375q-2.171875 0 -3.328125 1.359375q-1.140625 1.359375 -1.265625 4.265625l0.125 0q1.015625 -1.59375 3.21875 -1.59375q1.828125 0 2.875 1.109375q1.0625 1.09375 1.0625 3.0q0 2.109375 -1.15625 3.328125q-1.15625 1.203125 -3.125 1.203125q-2.109375 0 -3.34375 -1.578125q-1.234375 -1.59375 -1.234375 -4.40625zm4.5625 4.671875q1.3125 0 2.046875 -0.828125q0.734375 -0.828125 0.734375 -2.390625q0 -1.359375 -0.6875 -2.125q-0.671875 -0.765625 -2.015625 -0.765625q-0.84375 0 -1.546875 0.34375q-0.6875 0.34375 -1.109375 0.953125q-0.40625 0.59375 -0.40625 1.25q0 0.953125 0.375 1.78125q0.375 0.8125 1.046875 1.296875q0.6875 0.484375 1.5625 0.484375z" fill-rule="nonzero"></path><path fill="#000000" fill-opacity="0.0" d="m633.909 257.7288l29.669312 0l0 27.24408l-29.669312 0z" fill-rule="nonzero"></path><path fill="#515151" d="m646.05066 278.5852l5.625 -12.140625l-7.390625 0l0 -1.421875l9.03125 0l0 1.234375l-5.5625 12.328125l-1.703125 0z" fill-rule="nonzero"></path><path fill="#000000" fill-opacity="0.0" d="m677.5474 146.58975l167.25964 53.67009" fill-rule="nonzero"></path><path stroke="#515151" stroke-width="4.0" stroke-linejoin="round" stroke-linecap="butt" d="m677.5474 146.58975l144.40729 46.33725" fill-rule="evenodd"></path><path fill="#515151" stroke="#515151" stroke-width="4.0" stroke-linecap="butt" d="m819.9361 199.218l19.302979 -0.744812l-15.265686 -11.837173z" fill-rule="evenodd"></path><path fill="#000000" fill-opacity="0.0" d="m677.5474 312.3798l167.25964 -112.11995" fill-rule="nonzero"></path><path stroke="#515151" stroke-width="4.0" stroke-linejoin="round" stroke-linecap="butt" d="m677.5474 312.3798l147.32428 -98.75656" fill-rule="evenodd"></path><path fill="#515151" stroke="#515151" stroke-width="4.0" stroke-linecap="butt" d="m828.5505 219.11122l11.399353 -15.595383l-18.756897 4.6194z" fill-rule="evenodd"></path></g></svg>

