<?xml version="1.0" standalone="yes"?>

<svg version="1.1" viewBox="0.0 0.0 1152.0 864.0" fill="none" stroke="none" stroke-linecap="square" stroke-miterlimit="10" xmlns="http://www.w3.org/2000/svg" xmlns:xlink="http://www.w3.org/1999/xlink"><clipPath id="p.0"><path d="m0 0l1152.0 0l0 864.0l-1152.0 0l0 -864.0z" clip-rule="nonzero"></path></clipPath><g clip-path="url(#p.0)"><path fill="#000000" fill-opacity="0.0" d="m0 0l1152.0 0l0 864.0l-1152.0 0z" fill-rule="nonzero"></path><path fill="#009f5d" d="m236.72482 40.072716l84.81891 0l0 82.01575l-84.81891 0z" fill-rule="nonzero"></path><path stroke="#515151" stroke-width="1.0" stroke-linejoin="round" stroke-linecap="butt" d="m236.72482 40.072716l84.81891 0l0 82.01575l-84.81891 0z" fill-rule="nonzero"></path><path fill="#ffffff" d="m281.1577 93.49465l-2.53125 0l0 -16.28125q0 -2.03125 0.125 -3.84375q-0.328125 0.328125 -0.734375 0.6875q-0.40625 0.359375 -3.71875 3.046875l-1.375 -1.78125l6.046875 -4.671875l2.1875 0l0 22.84375z" fill-rule="nonzero"></path><path fill="#009f5d" d="m321.5436 40.072716l84.81891 0l0 82.01575l-84.81891 0z" fill-rule="nonzero"></path><path stroke="#515151" stroke-width="1.0" stroke-linejoin="round" stroke-linecap="butt" d="m321.5436 40.072716l84.81891 0l0 82.01575l-84.81891 0z" fill-rule="nonzero"></path><path fill="#ffffff" d="m371.50775 82.04153q0 5.921875 -1.875 8.84375q-1.859375 2.921875 -5.703125 2.921875q-3.6875 0 -5.609375 -2.984375q-1.921875 -3.0 -1.921875 -8.78125q0 -5.96875 1.859375 -8.859375q1.859375 -2.890625 5.671875 -2.890625q3.71875 0 5.640625 3.015625q1.9375 3.015625 1.9375 8.734375zm-12.484375 0q0 4.984375 1.171875 7.265625q1.171875 2.265625 3.734375 2.265625q2.59375 0 3.75 -2.296875q1.171875 -2.3125 1.171875 -7.234375q0 -4.921875 -1.171875 -7.203125q-1.15625 -2.296875 -3.75 -2.296875q-2.5625 0 -3.734375 2.265625q-1.171875 2.25 -1.171875 7.234375z" fill-rule="nonzero"></path><path fill="#009f5d" d="m406.36237 40.072716l84.81891 0l0 82.01575l-84.81891 0z" fill-rule="nonzero"></path><path stroke="#515151" stroke-width="1.0" stroke-linejoin="round" stroke-linecap="butt" d="m406.36237 40.072716l84.81891 0l0 82.01575l-84.81891 0z" fill-rule="nonzero"></path><path fill="#ffffff" d="m450.79526 93.49465l-2.53125 0l0 -16.28125q0 -2.03125 0.125 -3.84375q-0.328125 0.328125 -0.734375 0.6875q-0.40625 0.359375 -3.71875 3.046875l-1.375 -1.78125l6.046875 -4.671875l2.1875 0l0 22.84375z" fill-rule="nonzero"></path><path fill="#0b5394" d="m491.18115 40.072716l84.81891 0l0 82.01575l-84.81891 0z" fill-rule="nonzero"></path><path stroke="#515151" stroke-width="1.0" stroke-linejoin="round" stroke-linecap="butt" d="m491.18115 40.072716l84.81891 0l0 82.01575l-84.81891 0z" fill-rule="nonzero"></path><path fill="#ffffff" d="m541.14526 82.04153q0 5.921875 -1.875 8.84375q-1.859375 2.921875 -5.703125 2.921875q-3.6875 0 -5.609375 -2.984375q-1.921875 -3.0 -1.921875 -8.78125q0 -5.96875 1.859375 -8.859375q1.859375 -2.890625 5.671875 -2.890625q3.71875 0 5.640625 3.015625q1.9375 3.015625 1.9375 8.734375zm-12.484375 0q0 4.984375 1.171875 7.265625q1.171875 2.265625 3.734375 2.265625q2.59375 0 3.75 -2.296875q1.171875 -2.3125 1.171875 -7.234375q0 -4.921875 -1.171875 -7.203125q-1.15625 -2.296875 -3.75 -2.296875q-2.5625 0 -3.734375 2.265625q-1.171875 2.25 -1.171875 7.234375z" fill-rule="nonzero"></path><path fill="#0b5394" d="m575.99994 40.072716l84.81885 0l0 82.01575l-84.81885 0z" fill-rule="nonzero"></path><path stroke="#515151" stroke-width="1.0" stroke-linejoin="round" stroke-linecap="butt" d="m575.99994 40.072716l84.81885 0l0 82.01575l-84.81885 0z" fill-rule="nonzero"></path><path fill="#ffffff" d="m625.96405 82.04153q0 5.921875 -1.875 8.84375q-1.859375 2.921875 -5.703125 2.921875q-3.6875 0 -5.609375 -2.984375q-1.921875 -3.0 -1.921875 -8.78125q0 -5.96875 1.859375 -8.859375q1.859375 -2.890625 5.671875 -2.890625q3.71875 0 5.640625 3.015625q1.9375 3.015625 1.9375 8.734375zm-12.484375 0q0 4.984375 1.171875 7.265625q1.171875 2.265625 3.734375 2.265625q2.59375 0 3.75 -2.296875q1.171875 -2.3125 1.171875 -7.234375q0 -4.921875 -1.171875 -7.203125q-1.15625 -2.296875 -3.75 -2.296875q-2.5625 0 -3.734375 2.265625q-1.171875 2.25 -1.171875 7.234375z" fill-rule="nonzero"></path><path fill="#0b5394" d="m660.81866 40.072716l84.81885 0l0 82.01575l-84.81885 0z" fill-rule="nonzero"></path><path stroke="#515151" stroke-width="1.0" stroke-linejoin="round" stroke-linecap="butt" d="m660.81866 40.072716l84.81885 0l0 82.01575l-84.81885 0z" fill-rule="nonzero"></path><path fill="#ffffff" d="m710.7828 82.04153q0 5.921875 -1.875 8.84375q-1.859375 2.921875 -5.703125 2.921875q-3.6875 0 -5.609375 -2.984375q-1.921875 -3.0 -1.921875 -8.78125q0 -5.96875 1.859375 -8.859375q1.859375 -2.890625 5.671875 -2.890625q3.71875 0 5.640625 3.015625q1.9375 3.015625 1.9375 8.734375zm-12.484375 0q0 4.984375 1.171875 7.265625q1.171875 2.265625 3.734375 2.265625q2.59375 0 3.75 -2.296875q1.171875 -2.3125 1.171875 -7.234375q0 -4.921875 -1.171875 -7.203125q-1.15625 -2.296875 -3.75 -2.296875q-2.5625 0 -3.734375 2.265625q-1.171875 2.25 -1.171875 7.234375z" fill-rule="nonzero"></path><path fill="#0066cc" d="m745.6374 40.072716l84.81891 0l0 82.01575l-84.81891 0z" fill-rule="nonzero"></path><path stroke="#515151" stroke-width="1.0" stroke-linejoin="round" stroke-linecap="butt" d="m745.6374 40.072716l84.81891 0l0 82.01575l-84.81891 0z" fill-rule="nonzero"></path><path fill="#ffffff" d="m790.0703 93.49465l-2.53125 0l0 -16.28125q0 -2.03125 0.125 -3.84375q-0.328125 0.328125 -0.734375 0.6875q-0.40625 0.359375 -3.71875 3.046875l-1.375 -1.78125l6.046875 -4.671875l2.1875 0l0 22.84375z" fill-rule="nonzero"></path><path fill="#0066cc" d="m830.4562 40.072716l84.81891 0l0 82.01575l-84.81891 0z" fill-rule="nonzero"></path><path stroke="#515151" stroke-width="1.0" stroke-linejoin="round" stroke-linecap="butt" d="m830.4562 40.072716l84.81891 0l0 82.01575l-84.81891 0z" fill-rule="nonzero"></path><path fill="#ffffff" d="m874.88904 93.49465l-2.53125 0l0 -16.28125q0 -2.03125 0.125 -3.84375q-0.328125 0.328125 -0.734375 0.6875q-0.40625 0.359375 -3.71875 3.046875l-1.375 -1.78125l6.046875 -4.671875l2.1875 0l0 22.84375z" fill-rule="nonzero"></path><path fill="#000000" fill-opacity="0.0" d="m257.4777 0.015748031l44.0 0l0 40.40945l-44.0 0z" fill-rule="nonzero"></path><path fill="#515151" d="m284.06595 20.657972q0 3.515625 -1.109375 5.25q-1.109375 1.734375 -3.390625 1.734375q-2.1875 0 -3.328125 -1.78125q-1.140625 -1.78125 -1.140625 -5.203125q0 -3.546875 1.09375 -5.265626q1.109375 -1.71875 3.375 -1.71875q2.203125 0 3.34375 1.796875q1.15625 1.781251 1.15625 5.187501zm-7.421875 0q0 2.953125 0.6875 4.3125q0.703125 1.34375 2.234375 1.34375q1.53125 0 2.21875 -1.359375q0.703125 -1.375 0.703125 -4.296875q0 -2.921875 -0.703125 -4.28125q-0.6875 -1.359376 -2.21875 -1.359376q-1.53125 0 -2.234375 1.343751q-0.6875 1.328125 -0.6875 4.296875z" fill-rule="nonzero"></path><path fill="#000000" fill-opacity="0.0" d="m341.95276 0.015748031l44.0 0l0 40.40945l-44.0 0z" fill-rule="nonzero"></path><path fill="#515151" d="m365.25977 27.454847l-1.515625 0l0 -9.671875q0 -1.203125 0.078125 -2.281251q-0.1875 0.203125 -0.4375 0.421875q-0.234375 0.20312595 -2.203125 1.796876l-0.8125 -1.0625l3.578125 -2.765626l1.3125 0l0 13.562501z" fill-rule="nonzero"></path><path fill="#000000" fill-opacity="0.0" d="m426.77167 0.007874016l44.0 0l0 40.40945l-44.0 0z" fill-rule="nonzero"></path><path fill="#515151" d="m453.2818 27.446972l-8.921875 0l0 -1.328125l3.578125 -3.59375q1.625 -1.640625 2.140625 -2.34375q0.53125 -0.71875 0.78125 -1.375q0.265625 -0.671875 0.265625 -1.4375q0 -1.09375 -0.65625 -1.718749q-0.65625 -0.640625 -1.828125 -0.640625q-0.84375 0 -1.609375 0.28125q-0.75 0.265625 -1.671875 0.99999905l-0.8125 -1.046874q1.875 -1.5625 4.078125 -1.5625q1.90625 0 2.984375 0.984375q1.09375 0.984375 1.09375 2.624999q0 1.296875 -0.71875 2.5625q-0.71875 1.25 -2.71875 3.1875l-2.96875 2.90625l0 0.078125l6.984375 0l0 1.421875z" fill-rule="nonzero"></path><path fill="#000000" fill-opacity="0.0" d="m511.59055 0.007874016l44.00003 0l0 40.40945l-44.00003 0z" fill-rule="nonzero"></path><path fill="#515151" d="m537.5851 17.071972q0 1.296875 -0.734375 2.125q-0.71875 0.828125 -2.046875 1.109375l0 0.078125q1.625 0.203125 2.40625 1.03125q0.796875 0.828125 0.796875 2.1875q0 1.9375 -1.34375 2.984375q-1.34375 1.046875 -3.828125 1.046875q-1.078125 0 -1.96875 -0.171875q-0.890625 -0.15625 -1.734375 -0.5625l0 -1.46875q0.875 0.4375 1.875 0.671875q1.0 0.21875 1.890625 0.21875q3.515625 0 3.515625 -2.75q0 -2.46875 -3.875 -2.46875l-1.34375 0l0 -1.328125l1.359375 0q1.578125 0 2.5 -0.703125q0.9375 -0.703125 0.9375 -1.9375q0 -1.0 -0.6875 -1.562499q-0.671875 -0.5625 -1.84375 -0.5625q-0.890625 0 -1.6875 0.25q-0.78125 0.234375 -1.796875 0.87499905l-0.765625 -1.031249q0.828125 -0.65625 1.921875 -1.03125q1.09375 -0.390625 2.296875 -0.390625q1.96875 0 3.0625 0.90625q1.09375 0.90625 1.09375 2.484374z" fill-rule="nonzero"></path><path fill="#000000" fill-opacity="0.0" d="m596.4094 0.007874016l44.0 0l0 40.40945l-44.0 0z" fill-rule="nonzero"></path><path fill="#515151" d="m623.56024 24.321972l-2.015625 0l0 3.125l-1.46875 0l0 -3.125l-6.59375 0l0 -1.34375l6.4375 -9.171874l1.625 0l0 9.124999l2.015625 0l0 1.390625zm-3.484375 -1.390625l0 -4.515625q0 -1.328125 0.09375 -2.999999l-0.078125 0q-0.453125 0.89062405 -0.84375 1.484374l-4.234375 6.03125l5.0625 0z" fill-rule="nonzero"></path><path fill="#000000" fill-opacity="0.0" d="m680.8845 0.007874016l44.0 0l0 40.40945l-44.0 0z" fill-rule="nonzero"></path><path fill="#515151" d="m702.7228 19.165722q2.140625 0 3.359375 1.0625q1.234375 1.0625 1.234375 2.90625q0 2.109375 -1.34375 3.3125q-1.328125 1.1875 -3.6875 1.1875q-2.296875 0 -3.5 -0.734375l0 -1.484375q0.65625 0.421875 1.609375 0.65625q0.96875 0.234375 1.90625 0.234375q1.640625 0 2.53125 -0.765625q0.90625 -0.78125 0.90625 -2.234375q0 -2.84375 -3.46875 -2.84375q-0.890625 0 -2.359375 0.28125l-0.796875 -0.515625l0.5 -6.343749l6.75 0l0 1.421875l-5.421875 0l-0.34375 4.062499q1.0625 -0.203125 2.125 -0.203125z" fill-rule="nonzero"></path><path fill="#000000" fill-opacity="0.0" d="m765.7034 0l44.0 0l0 40.40945l-44.0 0z" fill-rule="nonzero"></path><path fill="#515151" d="m783.44794 21.642223q0 -4.0 1.546875 -5.984375q1.5625 -1.984375 4.609375 -1.984375q1.046875 0 1.65625 0.1875l0 1.328125q-0.71875 -0.234375 -1.640625 -0.234375q-2.171875 0 -3.328125 1.359375q-1.140625 1.359375 -1.265625 4.265625l0.125 0q1.015625 -1.59375 3.21875 -1.59375q1.828125 0 2.875 1.109375q1.0625 1.09375 1.0625 3.0q0 2.109375 -1.15625 3.328125q-1.15625 1.203125 -3.125 1.203125q-2.109375 0 -3.34375 -1.578125q-1.234375 -1.59375 -1.234375 -4.40625zm4.5625 4.671875q1.3125 0 2.046875 -0.828125q0.734375 -0.828125 0.734375 -2.390625q0 -1.359375 -0.6875 -2.125q-0.671875 -0.765625 -2.015625 -0.765625q-0.84375 0 -1.546875 0.34375q-0.6875 0.34375 -1.109375 0.953125q-0.40625 0.59375 -0.40625 1.25q0 0.953125 0.375 1.78125q0.375 0.8125 1.046875 1.296875q0.6875 0.484375 1.5625 0.484375z" fill-rule="nonzero"></path><path fill="#000000" fill-opacity="0.0" d="m850.52234 0l44.0 0l0 40.40945l-44.0 0z" fill-rule="nonzero"></path><path fill="#515151" d="m869.82935 27.439098l5.625 -12.140625l-7.390625 0l0 -1.421875l9.03125 0l0 1.234375l-5.5625 12.328125l-1.703125 0z" fill-rule="nonzero"></path><path fill="#000000" fill-opacity="0.0" d="m287.937 163.19948l576.126 0l0 129.60631l-576.126 0z" fill-rule="nonzero"></path><path fill="#515151" d="m471.96094 200.32448q0 3.015625 -2.1875 4.703125q-2.1875 1.6875 -5.9375 1.6875q-4.0625 0 -6.25 -1.046875l0 -2.5625q1.40625 0.59375 3.0625 0.9375q1.65625 0.34375 3.28125 0.34375q2.65625 0 4.0 -1.0q1.34375 -1.015625 1.34375 -2.8125q0 -1.1875 -0.484375 -1.9375q-0.46875 -0.765625 -1.59375 -1.40625q-1.109375 -0.640625 -3.390625 -1.453125q-3.1875 -1.140625 -4.5625 -2.703125q-1.359375 -1.5625 -1.359375 -4.078125q0 -2.640625 1.984375 -4.203125q1.984375 -1.5625 5.25 -1.5625q3.40625 0 6.265625 1.25l-0.828125 2.3125q-2.828125 -1.1875 -5.5 -1.1875q-2.109375 0 -3.296875 0.90625q-1.1875 0.90625 -1.1875 2.515625q0 1.1875 0.4375 1.953125q0.4375 0.75 1.46875 1.390625q1.046875 0.625 3.1875 1.390625q3.59375 1.28125 4.9375 2.75q1.359375 1.46875 1.359375 3.8125zm6.71875 -11.046875l0 11.109375q0 2.09375 0.953125 3.125q0.953125 1.03125 2.984375 1.03125q2.6875 0 3.921875 -1.46875q1.25 -1.46875 1.25 -4.796875l0 -9.0l2.59375 0l0 17.125l-2.140625 0l-0.375 -2.296875l-0.140625 0q-0.796875 1.265625 -2.21875 1.9375q-1.40625 0.671875 -3.21875 0.671875q-3.125 0 -4.6875 -1.484375q-1.546875 -1.484375 -1.546875 -4.75l0 -11.203125l2.625 0zm25.171875 -0.28125q3.375 0 5.234375 2.3125q1.875 2.296875 1.875 6.515625q0 4.21875 -1.890625 6.5625q-1.875 2.328125 -5.21875 2.328125q-1.671875 0 -3.0625 -0.609375q-1.375 -0.625 -2.3125 -1.90625l-0.1875 0l-0.546875 2.203125l-1.859375 0l0 -24.3125l2.59375 0l0 5.90625q0 1.984375 -0.125 3.5625l0.125 0q1.8125 -2.5625 5.375 -2.5625zm-0.375 2.171875q-2.65625 0 -3.828125 1.53125q-1.171875 1.515625 -1.171875 5.125q0 3.609375 1.203125 5.171875q1.203125 1.546875 3.859375 1.546875q2.390625 0 3.5625 -1.734375q1.171875 -1.75 1.171875 -5.015625q0 -3.34375 -1.171875 -4.984375q-1.171875 -1.640625 -3.625 -1.640625zm19.734375 0.125l-4.359375 0l0 15.109375l-2.59375 0l0 -15.109375l-3.0625 0l0 -1.171875l3.0625 -0.9375l0 -0.953125q0 -6.3125 5.515625 -6.3125q1.359375 0 3.1875 0.546875l-0.671875 2.078125q-1.5 -0.484375 -2.5625 -0.484375q-1.46875 0 -2.171875 0.984375q-0.703125 0.96875 -0.703125 3.125l0 1.109375l4.359375 0l0 2.015625zm5.71875 15.109375l-2.59375 0l0 -24.3125l2.59375 0l0 24.3125zm7.9375 -17.125l0 11.109375q0 2.09375 0.953125 3.125q0.953125 1.03125 2.984375 1.03125q2.6875 0 3.921875 -1.46875q1.25 -1.46875 1.25 -4.796875l0 -9.0l2.59375 0l0 17.125l-2.140625 0l-0.375 -2.296875l-0.140625 0q-0.796875 1.265625 -2.21875 1.9375q-1.40625 0.671875 -3.21875 0.671875q-3.125 0 -4.6875 -1.484375q-1.546875 -1.484375 -1.546875 -4.75l0 -11.203125l2.625 0zm21.328125 8.359375l-5.953125 -8.359375l2.953125 0l4.515625 6.5625l4.5 -6.5625l2.921875 0l-5.953125 8.359375l6.265625 8.765625l-2.9375 0l-4.796875 -6.9375l-4.84375 6.9375l-2.9375 0l6.265625 -8.765625zm27.421875 0.1875q0 4.1875 -2.109375 6.546875q-2.109375 2.34375 -5.828125 2.34375q-2.296875 0 -4.078125 -1.078125q-1.78125 -1.078125 -2.75 -3.09375q-0.96875 -2.015625 -0.96875 -4.71875q0 -4.1875 2.09375 -6.515625q2.09375 -2.34375 5.8125 -2.34375q3.59375 0 5.703125 2.390625q2.125 2.390625 2.125 6.46875zm-13.046875 0q0 3.28125 1.3125 5.0q1.3125 1.71875 3.859375 1.71875q2.546875 0 3.859375 -1.703125q1.328125 -1.71875 1.328125 -5.015625q0 -3.265625 -1.328125 -4.953125q-1.3125 -1.703125 -3.890625 -1.703125q-2.546875 0 -3.84375 1.671875q-1.296875 1.671875 -1.296875 4.984375z" fill-rule="nonzero"></path><path fill="#515151" d="m608.9453 206.4026l-4.828125 0l0 -13.21875l0.046875 -2.171875l0.078125 -2.375q-1.203125 1.203125 -1.671875 1.578125l-2.625 2.109375l-2.328125 -2.90625l7.359375 -5.859375l3.96875 0l0 22.84375zm22.171875 -11.421875q0 5.984375 -1.96875 8.859375q-1.953125 2.875 -6.03125 2.875q-3.953125 0 -5.96875 -2.96875q-2.0 -2.96875 -2.0 -8.765625q0 -6.046875 1.953125 -8.90625q1.953125 -2.875 6.015625 -2.875q3.953125 0 5.96875 3.0q2.03125 3.0 2.03125 8.78125zm-11.171875 0q0 4.203125 0.71875 6.03125q0.734375 1.8125 2.453125 1.8125q1.6875 0 2.4375 -1.84375q0.75 -1.84375 0.75 -6.0q0 -4.203125 -0.765625 -6.03125q-0.75 -1.84375 -2.421875 -1.84375q-1.703125 0 -2.4375 1.84375q-0.734375 1.828125 -0.734375 6.03125zm25.53125 11.421875l-4.828125 0l0 -13.21875l0.046875 -2.171875l0.078125 -2.375q-1.203125 1.203125 -1.671875 1.578125l-2.625 2.109375l-2.328125 -2.90625l7.359375 -5.859375l3.96875 0l0 22.84375z" fill-rule="nonzero"></path><path fill="#515151" d="m660.1172 197.63698q0 -4.140625 1.203125 -7.75q1.21875 -3.609375 3.5 -6.328125l2.53125 0q-2.25 3.015625 -3.390625 6.625q-1.125 3.609375 -1.125 7.421875q0 3.75 1.15625 7.328125q1.15625 3.578125 3.328125 6.53125l-2.5 0q-2.296875 -2.65625 -3.5 -6.203125q-1.203125 -3.546875 -1.203125 -7.625zm16.890625 -5.1875q3.609375 0 5.671875 1.796875q2.078125 1.78125 2.078125 4.890625q0 3.546875 -2.265625 5.5625q-2.25 2.015625 -6.21875 2.015625q-3.859375 0 -5.890625 -1.234375l0 -2.5q1.09375 0.703125 2.71875 1.109375q1.625 0.390625 3.203125 0.390625q2.75 0 4.265625 -1.296875q1.53125 -1.296875 1.53125 -3.75q0 -4.78125 -5.859375 -4.78125q-1.484375 0 -3.96875 0.453125l-1.34375 -0.859375l0.859375 -10.6875l11.359375 0l0 2.390625l-9.140625 0l-0.578125 6.859375q1.796875 -0.359375 3.578125 -0.359375zm17.78125 5.1875q0 4.109375 -1.21875 7.65625q-1.203125 3.546875 -3.484375 6.171875l-2.5 0q2.171875 -2.9375 3.328125 -6.515625q1.15625 -3.59375 1.15625 -7.34375q0 -3.8125 -1.140625 -7.421875q-1.125 -3.609375 -3.375 -6.625l2.53125 0q2.296875 2.734375 3.5 6.359375q1.203125 3.609375 1.203125 7.71875z" fill-rule="nonzero"></path><path fill="#515151" d="m332.21875 227.13698l2.859375 0l-8.234375 22.84375l-2.625 0l-8.1875 -22.84375l2.8125 0l5.25 14.78125q0.90625 2.546875 1.4375 4.953125q0.5625 -2.53125 1.46875 -5.046875l5.21875 -14.6875zm16.140625 22.84375l-0.515625 -2.4375l-0.125 0q-1.28125 1.609375 -2.5625 2.1875q-1.265625 0.5625 -3.171875 0.5625q-2.546875 0 -4.0 -1.3125q-1.4375 -1.3125 -1.4375 -3.734375q0 -5.1875 8.296875 -5.4375l2.90625 -0.09375l0 -1.0625q0 -2.015625 -0.875 -2.96875q-0.859375 -0.96875 -2.765625 -0.96875q-2.140625 0 -4.84375 1.3125l-0.796875 -1.984375q1.265625 -0.6875 2.765625 -1.078125q1.515625 -0.390625 3.03125 -0.390625q3.0625 0 4.53125 1.359375q1.484375 1.359375 1.484375 4.359375l0 11.6875l-1.921875 0zm-5.859375 -1.828125q2.421875 0 3.796875 -1.328125q1.390625 -1.328125 1.390625 -3.71875l0 -1.546875l-2.59375 0.109375q-3.09375 0.109375 -4.46875 0.96875q-1.359375 0.84375 -1.359375 2.640625q0 1.40625 0.84375 2.140625q0.859375 0.734375 2.390625 0.734375zm15.71875 1.828125l-2.59375 0l0 -24.3125l2.59375 0l0 24.3125zm20.28125 -8.578125q0 4.1875 -2.109375 6.546875q-2.109375 2.34375 -5.828125 2.34375q-2.296875 0 -4.078125 -1.078125q-1.78125 -1.078125 -2.75 -3.09375q-0.96875 -2.015625 -0.96875 -4.71875q0 -4.1875 2.09375 -6.515625q2.09375 -2.34375 5.8125 -2.34375q3.59375 0 5.703125 2.390625q2.125 2.390625 2.125 6.46875zm-13.046875 0q0 3.28125 1.3125 5.0q1.3125 1.71875 3.859375 1.71875q2.546875 0 3.859375 -1.703125q1.328125 -1.71875 1.328125 -5.015625q0 -3.265625 -1.328125 -4.953125q-1.3125 -1.703125 -3.890625 -1.703125q-2.546875 0 -3.84375 1.671875q-1.296875 1.671875 -1.296875 4.984375zm25.40625 -8.859375q1.140625 0 2.046875 0.1875l-0.359375 2.40625q-1.0625 -0.234375 -1.875 -0.234375q-2.078125 0 -3.5625 1.6875q-1.46875 1.6875 -1.46875 4.203125l0 9.1875l-2.59375 0l0 -17.125l2.140625 0l0.296875 3.171875l0.125 0q0.953125 -1.671875 2.296875 -2.578125q1.34375 -0.90625 2.953125 -0.90625zm20.40625 17.75q-3.71875 0 -5.765625 -2.28125q-2.03125 -2.296875 -2.03125 -6.484375q0 -4.296875 2.0625 -6.640625q2.078125 -2.34375 5.90625 -2.34375q1.234375 0 2.46875 0.265625q1.234375 0.265625 1.9375 0.625l-0.796875 2.203125q-0.859375 -0.34375 -1.875 -0.5625q-1.015625 -0.234375 -1.796875 -0.234375q-5.21875 0 -5.21875 6.65625q0 3.15625 1.265625 4.84375q1.28125 1.6875 3.78125 1.6875q2.140625 0 4.390625 -0.921875l0 2.296875q-1.71875 0.890625 -4.328125 0.890625zm18.921875 -0.3125l-0.515625 -2.4375l-0.125 0q-1.28125 1.609375 -2.5625 2.1875q-1.265625 0.5625 -3.171875 0.5625q-2.546875 0 -4.0 -1.3125q-1.4375 -1.3125 -1.4375 -3.734375q0 -5.1875 8.296875 -5.4375l2.90625 -0.09375l0 -1.0625q0 -2.015625 -0.875 -2.96875q-0.859375 -0.96875 -2.765625 -0.96875q-2.140625 0 -4.84375 1.3125l-0.796875 -1.984375q1.265625 -0.6875 2.765625 -1.078125q1.515625 -0.390625 3.03125 -0.390625q3.0625 0 4.53125 1.359375q1.484375 1.359375 1.484375 4.359375l0 11.6875l-1.921875 0zm-5.859375 -1.828125q2.421875 0 3.796875 -1.328125q1.390625 -1.328125 1.390625 -3.71875l0 -1.546875l-2.59375 0.109375q-3.09375 0.109375 -4.46875 0.96875q-1.359375 0.84375 -1.359375 2.640625q0 1.40625 0.84375 2.140625q0.859375 0.734375 2.390625 0.734375zm24.84375 1.828125l0 -11.078125q0 -2.09375 -0.953125 -3.125q-0.953125 -1.03125 -2.984375 -1.03125q-2.6875 0 -3.9375 1.453125q-1.25 1.453125 -1.25 4.796875l0 8.984375l-2.59375 0l0 -17.125l2.109375 0l0.421875 2.34375l0.125 0q0.796875 -1.265625 2.234375 -1.953125q1.4375 -0.703125 3.203125 -0.703125q3.09375 0 4.65625 1.5q1.5625 1.484375 1.5625 4.765625l0 11.171875l-2.59375 0zm19.578125 -2.296875l-0.140625 0q-1.796875 2.609375 -5.375 2.609375q-3.359375 0 -5.234375 -2.296875q-1.859375 -2.296875 -1.859375 -6.53125q0 -4.234375 1.875 -6.578125q1.875 -2.34375 5.21875 -2.34375q3.484375 0 5.34375 2.53125l0.203125 0l-0.109375 -1.234375l-0.0625 -1.203125l0 -6.96875l2.59375 0l0 24.3125l-2.109375 0l-0.34375 -2.296875zm-5.1875 0.4375q2.65625 0 3.84375 -1.4375q1.203125 -1.453125 1.203125 -4.671875l0 -0.546875q0 -3.640625 -1.21875 -5.1875q-1.203125 -1.5625 -3.859375 -1.5625q-2.28125 0 -3.5 1.78125q-1.203125 1.765625 -1.203125 5.0q0 3.28125 1.203125 4.953125q1.203125 1.671875 3.53125 1.671875zm15.734375 1.859375l-2.59375 0l0 -17.125l2.59375 0l0 17.125zm-2.8125 -21.765625q0 -0.890625 0.4375 -1.296875q0.4375 -0.421875 1.09375 -0.421875q0.625 0 1.078125 0.421875q0.453125 0.421875 0.453125 1.296875q0 0.875 -0.453125 1.3125q-0.453125 0.421875 -1.078125 0.421875q-0.65625 0 -1.09375 -0.421875q-0.4375 -0.4375 -0.4375 -1.3125zm19.96875 19.46875l-0.140625 0q-1.796875 2.609375 -5.375 2.609375q-3.359375 0 -5.234375 -2.296875q-1.859375 -2.296875 -1.859375 -6.53125q0 -4.234375 1.875 -6.578125q1.875 -2.34375 5.21875 -2.34375q3.484375 0 5.34375 2.53125l0.203125 0l-0.109375 -1.234375l-0.0625 -1.203125l0 -6.96875l2.59375 0l0 24.3125l-2.109375 0l-0.34375 -2.296875zm-5.1875 0.4375q2.65625 0 3.84375 -1.4375q1.203125 -1.453125 1.203125 -4.671875l0 -0.546875q0 -3.640625 -1.21875 -5.1875q-1.203125 -1.5625 -3.859375 -1.5625q-2.28125 0 -3.5 1.78125q-1.203125 1.765625 -1.203125 5.0q0 3.28125 1.203125 4.953125q1.203125 1.671875 3.53125 1.671875zm23.671875 1.859375l-0.515625 -2.4375l-0.125 0q-1.28125 1.609375 -2.5625 2.1875q-1.265625 0.5625 -3.171875 0.5625q-2.546875 0 -4.0 -1.3125q-1.4375 -1.3125 -1.4375 -3.734375q0 -5.1875 8.296875 -5.4375l2.90625 -0.09375l0 -1.0625q0 -2.015625 -0.875 -2.96875q-0.859375 -0.96875 -2.765625 -0.96875q-2.140625 0 -4.84375 1.3125l-0.796875 -1.984375q1.265625 -0.6875 2.765625 -1.078125q1.515625 -0.390625 3.03125 -0.390625q3.0625 0 4.53125 1.359375q1.484375 1.359375 1.484375 4.359375l0 11.6875l-1.921875 0zm-5.859375 -1.828125q2.421875 0 3.796875 -1.328125q1.390625 -1.328125 1.390625 -3.71875l0 -1.546875l-2.59375 0.109375q-3.09375 0.109375 -4.46875 0.96875q-1.359375 0.84375 -1.359375 2.640625q0 1.40625 0.84375 2.140625q0.859375 0.734375 2.390625 0.734375zm18.65625 0q0.6875 0 1.328125 -0.09375q0.640625 -0.109375 1.015625 -0.21875l0 1.984375q-0.421875 0.203125 -1.25 0.328125q-0.8125 0.140625 -1.46875 0.140625q-4.96875 0 -4.96875 -5.234375l0 -10.1875l-2.453125 0l0 -1.25l2.453125 -1.078125l1.09375 -3.65625l1.5 0l0 3.96875l4.96875 0l0 2.015625l-4.96875 0l0 10.078125q0 1.546875 0.734375 2.375q0.734375 0.828125 2.015625 0.828125zm20.546875 -6.75q0 4.1875 -2.109375 6.546875q-2.109375 2.34375 -5.828125 2.34375q-2.296875 0 -4.078125 -1.078125q-1.78125 -1.078125 -2.75 -3.09375q-0.96875 -2.015625 -0.96875 -4.71875q0 -4.1875 2.09375 -6.515625q2.09375 -2.34375 5.8125 -2.34375q3.59375 0 5.703125 2.390625q2.125 2.390625 2.125 6.46875zm-13.046875 0q0 3.28125 1.3125 5.0q1.3125 1.71875 3.859375 1.71875q2.546875 0 3.859375 -1.703125q1.328125 -1.71875 1.328125 -5.015625q0 -3.265625 -1.328125 -4.953125q-1.3125 -1.703125 -3.890625 -1.703125q-2.546875 0 -3.84375 1.671875q-1.296875 1.671875 -1.296875 4.984375zm17.21875 6.921875q0 -1.046875 0.46875 -1.578125q0.484375 -0.546875 1.375 -0.546875q0.90625 0 1.40625 0.546875q0.515625 0.53125 0.515625 1.578125q0 1.015625 -0.515625 1.5625q-0.515625 0.546875 -1.40625 0.546875q-0.796875 0 -1.328125 -0.484375q-0.515625 -0.5 -0.515625 -1.625zm0 -13.796875q0 -2.109375 1.84375 -2.109375q1.921875 0 1.921875 2.109375q0 1.015625 -0.515625 1.5625q-0.515625 0.546875 -1.40625 0.546875q-0.796875 0 -1.328125 -0.484375q-0.515625 -0.5 -0.515625 -1.625z" fill-rule="nonzero"></path><path fill="#515151" d="m583.2656 232.24635q0 2.140625 -1.296875 3.640625q-1.296875 1.5 -3.640625 2.0625l0 0.09375q2.765625 0.34375 4.1875 1.6875q1.421875 1.328125 1.421875 3.59375q0 3.296875 -2.390625 5.140625q-2.390625 1.828125 -6.828125 1.828125q-3.71875 0 -6.59375 -1.234375l0 -4.109375q1.328125 0.671875 2.921875 1.09375q1.59375 0.421875 3.15625 0.421875q2.390625 0 3.53125 -0.8125q1.140625 -0.8125 1.140625 -2.609375q0 -1.609375 -1.3125 -2.28125q-1.3125 -0.671875 -4.1875 -0.671875l-1.734375 0l0 -3.703125l1.765625 0q2.65625 0 3.875 -0.6875q1.234375 -0.703125 1.234375 -2.390625q0 -2.59375 -3.25 -2.59375q-1.125 0 -2.296875 0.375q-1.15625 0.375 -2.578125 1.296875l-2.234375 -3.328125q3.125 -2.25 7.453125 -2.25q3.546875 0 5.59375 1.4375q2.0625 1.4375 2.0625 4.0z" fill-rule="nonzero"></path><path fill="#515151" d="m594.7656 241.2151q0 -4.140625 1.203125 -7.75q1.21875 -3.609375 3.5 -6.328125l2.53125 0q-2.25 3.015625 -3.390625 6.625q-1.125 3.609375 -1.125 7.421875q0 3.75 1.15625 7.328125q1.15625 3.578125 3.328125 6.53125l-2.5 0q-2.296875 -2.65625 -3.5 -6.203125q-1.203125 -3.546875 -1.203125 -7.625zm18.90625 9.078125q-1.671875 0 -3.0625 -0.609375q-1.375 -0.625 -2.3125 -1.90625l-0.1875 0q0.1875 1.5 0.1875 2.84375l0 7.0468597l-2.59375 0l0 -24.812485l2.109375 0l0.359375 2.34375l0.125 0q1.0 -1.40625 2.328125 -2.03125q1.328125 -0.625 3.046875 -0.625q3.40625 0 5.25 2.328125q1.859375 2.328125 1.859375 6.53125q0 4.21875 -1.890625 6.5625q-1.875 2.328125 -5.21875 2.328125zm-0.375 -15.546875q-2.625 0 -3.796875 1.453125q-1.171875 1.453125 -1.203125 4.625l0 0.578125q0 3.609375 1.203125 5.171875q1.203125 1.546875 3.859375 1.546875q2.21875 0 3.46875 -1.796875q1.265625 -1.796875 1.265625 -4.953125q0 -3.203125 -1.265625 -4.90625q-1.25 -1.71875 -3.53125 -1.71875zm26.796875 6.65625q0 4.1875 -2.109375 6.546875q-2.109375 2.34375 -5.828125 2.34375q-2.296875 0 -4.078125 -1.078125q-1.78125 -1.078125 -2.75 -3.09375q-0.96875 -2.015625 -0.96875 -4.71875q0 -4.1875 2.09375 -6.515625q2.09375 -2.34375 5.8125 -2.34375q3.59375 0 5.703125 2.390625q2.125 2.390625 2.125 6.46875zm-13.046875 0q0 3.28125 1.3125 5.0q1.3125 1.71875 3.859375 1.71875q2.546875 0 3.859375 -1.703125q1.328125 -1.71875 1.328125 -5.015625q0 -3.265625 -1.328125 -4.953125q-1.3125 -1.703125 -3.890625 -1.703125q-2.546875 0 -3.84375 1.671875q-1.296875 1.671875 -1.296875 4.984375zm20.1875 8.578125l-2.59375 0l0 -17.125l2.59375 0l0 17.125zm-2.8125 -21.765625q0 -0.890625 0.4375 -1.296875q0.4375 -0.421875 1.09375 -0.421875q0.625 0 1.078125 0.421875q0.453125 0.421875 0.453125 1.296875q0 0.875 -0.453125 1.3125q-0.453125 0.421875 -1.078125 0.421875q-0.65625 0 -1.09375 -0.421875q-0.4375 -0.4375 -0.4375 -1.3125zm19.359375 17.09375q0 2.390625 -1.78125 3.6875q-1.78125 1.296875 -5.0 1.296875q-3.40625 0 -5.3125 -1.078125l0 -2.40625q1.234375 0.625 2.640625 0.984375q1.421875 0.359375 2.734375 0.359375q2.03125 0 3.125 -0.640625q1.09375 -0.65625 1.09375 -1.984375q0 -1.0 -0.875 -1.703125q-0.859375 -0.71875 -3.375 -1.6875q-2.390625 -0.890625 -3.40625 -1.546875q-1.0 -0.671875 -1.5 -1.515625q-0.484375 -0.84375 -0.484375 -2.015625q0 -2.09375 1.703125 -3.296875q1.703125 -1.21875 4.671875 -1.21875q2.765625 0 5.40625 1.125l-0.921875 2.109375q-2.578125 -1.0625 -4.671875 -1.0625q-1.84375 0 -2.78125 0.578125q-0.9375 0.578125 -0.9375 1.59375q0 0.6875 0.34375 1.171875q0.359375 0.484375 1.140625 0.921875q0.78125 0.4375 3.0 1.265625q3.046875 1.109375 4.109375 2.234375q1.078125 1.125 1.078125 2.828125zm24.25 4.671875l0 -11.078125q0 -2.09375 -0.953125 -3.125q-0.953125 -1.03125 -2.984375 -1.03125q-2.703125 0 -3.953125 1.46875q-1.234375 1.46875 -1.234375 4.8125l0 8.953125l-2.59375 0l0 -24.3125l2.59375 0l0 7.359375q0 1.328125 -0.125 2.203125l0.15625 0q0.765625 -1.234375 2.171875 -1.9375q1.421875 -0.71875 3.234375 -0.71875q3.140625 0 4.703125 1.5q1.578125 1.484375 1.578125 4.734375l0 11.171875l-2.59375 0zm18.453125 0l-0.515625 -2.4375l-0.125 0q-1.28125 1.609375 -2.5625 2.1875q-1.265625 0.5625 -3.171875 0.5625q-2.546875 0 -4.0 -1.3125q-1.4375 -1.3125 -1.4375 -3.734375q0 -5.1875 8.296875 -5.4375l2.90625 -0.09375l0 -1.0625q0 -2.015625 -0.875 -2.96875q-0.859375 -0.96875 -2.765625 -0.96875q-2.140625 0 -4.84375 1.3125l-0.796875 -1.984375q1.265625 -0.6875 2.765625 -1.078125q1.515625 -0.390625 3.03125 -0.390625q3.0625 0 4.53125 1.359375q1.484375 1.359375 1.484375 4.359375l0 11.6875l-1.921875 0zm-5.859375 -1.828125q2.421875 0 3.796875 -1.328125q1.390625 -1.328125 1.390625 -3.71875l0 -1.546875l-2.59375 0.109375q-3.09375 0.109375 -4.46875 0.96875q-1.359375 0.84375 -1.359375 2.640625q0 1.40625 0.84375 2.140625q0.859375 0.734375 2.390625 0.734375zm-0.28125 -17.953125q0.75 -0.96875 1.609375 -2.34375q0.875 -1.375 1.375 -2.390625l3.15625 0l0 0.328125q-0.6875 1.015625 -2.046875 2.5q-1.359375 1.484375 -2.359375 2.296875l-1.734375 0l0 -0.390625zm34.6875 2.3125q0 2.1875 -1.234375 3.578125q-1.21875 1.390625 -3.46875 1.859375l0 0.125q2.75 0.34375 4.078125 1.75q1.328125 1.40625 1.328125 3.6875q0 3.265625 -2.265625 5.03125q-2.265625 1.75 -6.4375 1.75q-1.8125 0 -3.328125 -0.28125q-1.5 -0.265625 -2.921875 -0.953125l0 -2.46875q1.484375 0.734375 3.15625 1.125q1.6875 0.375 3.1875 0.375q5.921875 0 5.921875 -4.640625q0 -4.15625 -6.53125 -4.15625l-2.25 0l0 -2.234375l2.28125 0q2.671875 0 4.234375 -1.171875q1.5625 -1.1875 1.5625 -3.28125q0 -1.671875 -1.15625 -2.625q-1.140625 -0.953125 -3.109375 -0.953125q-1.5 0 -2.828125 0.40625q-1.328125 0.40625 -3.03125 1.5l-1.3125 -1.75q1.40625 -1.109375 3.234375 -1.734375q1.84375 -0.640625 3.875 -0.640625q3.328125 0 5.171875 1.53125q1.84375 1.515625 1.84375 4.171875zm24.59375 17.46875l-12.421875 0l0 -1.765625l9.34375 -13.34375l-8.765625 0l0 -2.015625l11.609375 0l0 2.015625l-9.21875 13.09375l9.453125 0l0 2.015625zm11.25 0.3125q-3.796875 0 -6.0 -2.3125q-2.1875 -2.3125 -2.1875 -6.421875q0 -4.140625 2.03125 -6.578125q2.046875 -2.4375 5.484375 -2.4375q3.21875 0 5.09375 2.125q1.875 2.109375 1.875 5.578125l0 1.640625l-11.796875 0q0.078125 3.015625 1.515625 4.578125q1.453125 1.5625 4.078125 1.5625q2.765625 0 5.46875 -1.15625l0 2.3125q-1.375 0.59375 -2.609375 0.84375q-1.21875 0.265625 -2.953125 0.265625zm-0.703125 -15.578125q-2.0625 0 -3.296875 1.34375q-1.21875 1.34375 -1.4375 3.71875l8.953125 0q0 -2.453125 -1.09375 -3.75q-1.09375 -1.3125 -3.125 -1.3125zm19.234375 -2.171875q1.140625 0 2.046875 0.1875l-0.359375 2.40625q-1.0625 -0.234375 -1.875 -0.234375q-2.078125 0 -3.5625 1.6875q-1.46875 1.6875 -1.46875 4.203125l0 9.1875l-2.59375 0l0 -17.125l2.140625 0l0.296875 3.171875l0.125 0q0.953125 -1.671875 2.296875 -2.578125q1.34375 -0.90625 2.953125 -0.90625zm20.03125 8.859375q0 4.1875 -2.109375 6.546875q-2.109375 2.34375 -5.828125 2.34375q-2.296875 0 -4.078125 -1.078125q-1.78125 -1.078125 -2.75 -3.09375q-0.96875 -2.015625 -0.96875 -4.71875q0 -4.1875 2.09375 -6.515625q2.09375 -2.34375 5.8125 -2.34375q3.59375 0 5.703125 2.390625q2.125 2.390625 2.125 6.46875zm-13.046875 0q0 3.28125 1.3125 5.0q1.3125 1.71875 3.859375 1.71875q2.546875 0 3.859375 -1.703125q1.328125 -1.71875 1.328125 -5.015625q0 -3.265625 -1.328125 -4.953125q-1.3125 -1.703125 -3.890625 -1.703125q-2.546875 0 -3.84375 1.671875q-1.296875 1.671875 -1.296875 4.984375zm28.640625 3.90625q0 2.390625 -1.78125 3.6875q-1.78125 1.296875 -5.0 1.296875q-3.40625 0 -5.3125 -1.078125l0 -2.40625q1.234375 0.625 2.640625 0.984375q1.421875 0.359375 2.734375 0.359375q2.03125 0 3.125 -0.640625q1.09375 -0.65625 1.09375 -1.984375q0 -1.0 -0.875 -1.703125q-0.859375 -0.71875 -3.375 -1.6875q-2.390625 -0.890625 -3.40625 -1.546875q-1.0 -0.671875 -1.5 -1.515625q-0.484375 -0.84375 -0.484375 -2.015625q0 -2.09375 1.703125 -3.296875q1.703125 -1.21875 4.671875 -1.21875q2.765625 0 5.40625 1.125l-0.921875 2.109375q-2.578125 -1.0625 -4.671875 -1.0625q-1.84375 0 -2.78125 0.578125q-0.9375 0.578125 -0.9375 1.59375q0 0.6875 0.34375 1.171875q0.359375 0.484375 1.140625 0.921875q0.78125 0.4375 3.0 1.265625q3.046875 1.109375 4.109375 2.234375q1.078125 1.125 1.078125 2.828125zm9.65625 -4.09375q0 4.109375 -1.21875 7.65625q-1.203125 3.546875 -3.484375 6.171875l-2.5 0q2.171875 -2.9375 3.328125 -6.515625q1.15625 -3.59375 1.15625 -7.34375q0 -3.8125 -1.140625 -7.421875q-1.125 -3.609375 -3.375 -6.625l2.53125 0q2.296875 2.734375 3.5 6.359375q1.203125 3.609375 1.203125 7.71875z" fill-rule="nonzero"></path></g></svg>

