<?xml version="1.0" standalone="yes"?>

<svg version="1.1" viewBox="0.0 0.0 1152.0 864.0" fill="none" stroke="none" stroke-linecap="square" stroke-miterlimit="10" xmlns="http://www.w3.org/2000/svg" xmlns:xlink="http://www.w3.org/1999/xlink"><clipPath id="p.0"><path d="m0 0l1152.0 0l0 864.0l-1152.0 0l0 -864.0z" clip-rule="nonzero"></path></clipPath><g clip-path="url(#p.0)"><path fill="#000000" fill-opacity="0.0" d="m0 0l1152.0 0l0 864.0l-1152.0 0z" fill-rule="nonzero"></path><path fill="#000000" fill-opacity="0.0" d="m314.61417 67.9457l0 0c0 -22.657173 18.36728 -41.024445 41.024445 -41.024445l440.72278 0c10.880371 0 21.315063 4.3222065 29.008667 12.015783c7.6935425 7.693573 12.015747 18.1283 12.015747 29.00866l0 164.09283c0 22.65718 -18.367249 41.024445 -41.024414 41.024445l-440.72278 0c-22.657166 0 -41.024445 -18.367264 -41.024445 -41.024445z" fill-rule="nonzero"></path><path stroke="#515151" stroke-width="2.0" stroke-linejoin="round" stroke-linecap="butt" d="m314.61417 67.9457l0 0c0 -22.657173 18.36728 -41.024445 41.024445 -41.024445l440.72278 0c10.880371 0 21.315063 4.3222065 29.008667 12.015783c7.6935425 7.693573 12.015747 18.1283 12.015747 29.00866l0 164.09283c0 22.65718 -18.367249 41.024445 -41.024414 41.024445l-440.72278 0c-22.657166 0 -41.024445 -18.367264 -41.024445 -41.024445z" fill-rule="nonzero"></path><path fill="#515151" d="m429.5293 69.65566l-2.546875 0l0 3.9375l-1.859375 0l0 -3.9375l-8.34375 0l0 -1.703125l8.140625 -11.593754l2.0625 0l0 11.531254l2.546875 0l0 1.765625zm-4.40625 -1.765625l0 -5.703129q0 -1.671875 0.109375 -3.78125l-0.09375 0q-0.5625 1.125 -1.046875 1.859375l-5.359375 7.625004l6.390625 0zm17.316406 5.703125l-11.265625 0l0 -1.671875l4.515625 -4.546875q2.0625 -2.078125 2.71875 -2.96875q0.65625 -0.8906288 0.984375 -1.7343788q0.328125 -0.84375 0.328125 -1.8125q0 -1.375 -0.84375 -2.171875q-0.828125 -0.8125 -2.296875 -0.8125q-1.0625 0 -2.03125 0.359375q-0.953125 0.34375 -2.125 1.265625l-1.03125 -1.3125q2.375 -1.96875 5.15625 -1.96875q2.421875 0 3.78125 1.234375q1.375 1.234375 1.375 3.3125q0 1.640625 -0.921875 3.234375q-0.90625 1.5937538 -3.40625 4.031254l-3.75 3.65625l0 0.09375l8.8125 0l0 1.8125zm15.222656 -18.234379l-0.5 4.625l4.65625 -1.296875l0.3125 2.125l-4.46875 0.375l2.90625 3.8125038l-2.015625 1.109375l-2.0625 -4.250004l-1.875 4.250004l-2.0625 -1.109375l2.828125 -3.8125038l-4.40625 -0.375l0.328125 -2.125l4.59375 1.296875l-0.515625 -4.625l2.28125 0zm19.820312 18.468754q-1.265625 0 -2.296875 -0.453125q-1.03125 -0.46875 -1.734375 -1.4375l-0.140625 0q0.140625 1.125 0.140625 2.140625l0 5.28125l-1.953125 0l0 -18.609379l1.578125 0l0.28125 1.75l0.09375 0q0.75 -1.046875 1.734375 -1.515625q1.0 -0.46875 2.296875 -0.46875q2.546875 0 3.9375 1.75q1.390625 1.734375 1.390625 4.890629q0 3.171875 -1.421875 4.921875q-1.40625 1.75 -3.90625 1.75zm-0.28125 -11.656254q-1.96875 0 -2.859375 1.09375q-0.875 1.0781288 -0.890625 3.4531288l0 0.4375q0 2.703125 0.890625 3.875q0.90625 1.171875 2.90625 1.171875q1.65625 0 2.59375 -1.34375q0.953125 -1.359375 0.953125 -3.71875q0 -2.40625 -0.953125 -3.6875038q-0.9375 -1.28125 -2.640625 -1.28125zm14.863281 -1.65625q0.859375 0 1.53125 0.140625l-0.265625 1.796875q-0.796875 -0.171875 -1.40625 -0.171875q-1.5625 0 -2.671875 1.265625q-1.09375 1.2656288 -1.09375 3.1562538l0 6.890625l-1.953125 0l0 -12.843754l1.609375 0l0.21875 2.375l0.09375 0q0.71875 -1.25 1.71875 -1.921875q1.015625 -0.6875 2.21875 -0.6875zm5.890625 13.078129l-1.953125 0l0 -12.843754l1.953125 0l0 12.843754zm-2.109375 -16.328129q0 -0.671875 0.328125 -0.96875q0.328125 -0.3125 0.8125 -0.3125q0.46875 0 0.8125 0.3125q0.34375 0.3125 0.34375 0.96875q0 0.65625 -0.34375 0.984375q-0.34375 0.3125 -0.8125 0.3125q-0.484375 0 -0.8125 -0.3125q-0.328125 -0.328125 -0.328125 -0.984375zm11.3671875 16.562504q-2.796875 0 -4.328125 -1.71875q-1.53125 -1.71875 -1.53125 -4.859375q0 -3.21875 1.546875 -4.968754q1.5625 -1.765625 4.4375 -1.765625q0.921875 0 1.84375 0.203125q0.9375 0.1875 1.453125 0.46875l-0.59375 1.640625q-0.640625 -0.25 -1.40625 -0.421875q-0.765625 -0.171875 -1.34375 -0.171875q-3.921875 0 -3.921875 5.000004q0 2.359375 0.953125 3.625q0.96875 1.265625 2.84375 1.265625q1.59375 0 3.28125 -0.6875l0 1.71875q-1.28125 0.671875 -3.234375 0.671875zm11.707031 0q-2.84375 0 -4.5 -1.734375q-1.640625 -1.734375 -1.640625 -4.8125q0 -3.109375 1.53125 -4.937504q1.53125 -1.828125 4.109375 -1.828125q2.421875 0 3.828125 1.59375q1.40625 1.578125 1.40625 4.187504l0 1.21875l-8.859375 0q0.0625 2.265625 1.140625 3.4375q1.09375 1.171875 3.0625 1.171875q2.078125 0 4.09375 -0.859375l0 1.734375q-1.03125 0.4375 -1.953125 0.625q-0.90625 0.203125 -2.21875 0.203125zm-0.515625 -11.687504q-1.546875 0 -2.46875 1.015625q-0.921875 1.0000038 -1.09375 2.7812538l6.71875 0q0 -1.84375 -0.828125 -2.8125038q-0.8125 -0.984375 -2.328125 -0.984375zm17.996094 0.921875l-0.78125 3.9843788l3.328125 0l0 1.5l-3.609375 0l-0.984375 5.046875l-1.59375 0l0.984375 -5.046875l-3.5625 0l-0.953125 5.046875l-1.59375 0l0.9375 -5.046875l-3.078125 0l0 -1.5l3.375 0l0.796875 -3.9843788l-3.25 0l0 -1.5l3.5 0l0.96875 -5.109375l1.625 0l-0.96875 5.109375l3.578125 0l0.984375 -5.109375l1.578125 0l-0.984375 5.109375l3.09375 0l0 1.5l-3.390625 0zm-5.9375 3.9843788l3.5625 0l0.765625 -3.9843788l-3.546875 0l-0.78125 3.9843788zm19.910156 6.546875l-0.390625 -1.828125l-0.09375 0q-0.96875 1.203125 -1.921875 1.640625q-0.953125 0.421875 -2.375 0.421875q-1.921875 0 -3.0 -0.984375q-1.078125 -0.984375 -1.078125 -2.796875q0 -3.890625 6.21875 -4.078125l2.171875 -0.078125l0 -0.796875q0 -1.5156288 -0.65625 -2.2343788q-0.640625 -0.71875 -2.0625 -0.71875q-1.609375 0 -3.640625 0.984375l-0.59375 -1.484375q0.953125 -0.515625 2.078125 -0.8125q1.125 -0.296875 2.265625 -0.296875q2.296875 0 3.40625 1.03125q1.109375 1.015625 1.109375 3.2656288l0 8.765625l-1.4375 0zm-4.40625 -1.375q1.828125 0 2.859375 -0.984375q1.03125 -1.0 1.03125 -2.796875l0 -1.15625l-1.9375 0.078125q-2.328125 0.078125 -3.359375 0.71875q-1.015625 0.640625 -1.015625 1.984375q0 1.0625 0.640625 1.609375q0.640625 0.546875 1.78125 0.546875zm12.660156 1.375l-4.875 -12.843754l2.09375 0l2.765625 7.609379q0.9375 2.671875 1.09375 3.46875l0.09375 0q0.125 -0.609375 0.8125 -2.5625q0.6875 -1.953125 3.078125 -8.515629l2.09375 0l-4.875 12.843754l-2.28125 0zm19.726562 -12.843754l0 1.234375l-2.375 0.28125q0.328125 0.40625 0.578125 1.078125q0.265625 0.65625 0.265625 1.4843788q0 1.890625 -1.296875 3.015625q-1.28125 1.125 -3.53125 1.125q-0.578125 0 -1.078125 -0.09375q-1.25 0.65625 -1.25 1.640625q0 0.53125 0.4375 0.78125q0.4375 0.25 1.484375 0.25l2.28125 0q2.078125 0 3.1875 0.890625q1.125 0.875 1.125 2.546875q0 2.140625 -1.71875 3.25q-1.703125 1.125 -4.984375 1.125q-2.515625 0 -3.890625 -0.9375q-1.359375 -0.9375 -1.359375 -2.640625q0 -1.171875 0.75 -2.03125q0.75 -0.859375 2.109375 -1.171875q-0.484375 -0.21875 -0.828125 -0.6875q-0.328125 -0.46875 -0.328125 -1.09375q0 -0.703125 0.375 -1.21875q0.375 -0.53125 1.1875 -1.03125q-1.0 -0.40625 -1.625 -1.390625q-0.625 -0.984375 -0.625 -2.25q0 -2.1093788 1.265625 -3.2500038q1.265625 -1.140625 3.578125 -1.140625q1.015625 0 1.828125 0.234375l4.4375 0zm-10.25 15.000004q0 1.046875 0.875 1.578125q0.890625 0.546875 2.53125 0.546875q2.453125 0 3.625 -0.734375q1.171875 -0.734375 1.171875 -1.984375q0 -1.046875 -0.640625 -1.453125q-0.640625 -0.40625 -2.421875 -0.40625l-2.328125 0q-1.328125 0 -2.078125 0.625q-0.734375 0.640625 -0.734375 1.828125zm1.0625 -10.890625q0 1.34375 0.75 2.046875q0.765625 0.6875 2.125 0.6875q2.859375 0 2.859375 -2.765625q0 -2.8906288 -2.890625 -2.8906288q-1.375 0 -2.109375 0.734375q-0.734375 0.734375 -0.734375 2.1875038zm23.695312 -9.500004l-0.5 4.625l4.65625 -1.296875l0.3125 2.125l-4.46875 0.375l2.90625 3.8125038l-2.015625 1.109375l-2.0625 -4.250004l-1.875 4.250004l-2.0625 -1.109375l2.828125 -3.8125038l-4.40625 -0.375l0.328125 -2.125l4.59375 1.296875l-0.515625 -4.625l2.28125 0zm19.820312 18.468754q-1.265625 0 -2.296875 -0.453125q-1.03125 -0.46875 -1.734375 -1.4375l-0.140625 0q0.140625 1.125 0.140625 2.140625l0 5.28125l-1.953125 0l0 -18.609379l1.578125 0l0.28125 1.75l0.09375 0q0.75 -1.046875 1.734375 -1.515625q1.0 -0.46875 2.296875 -0.46875q2.546875 0 3.9375 1.75q1.390625 1.734375 1.390625 4.890629q0 3.171875 -1.421875 4.921875q-1.40625 1.75 -3.90625 1.75zm-0.28125 -11.656254q-1.96875 0 -2.859375 1.09375q-0.875 1.0781288 -0.890625 3.4531288l0 0.4375q0 2.703125 0.890625 3.875q0.90625 1.171875 2.90625 1.171875q1.65625 0 2.59375 -1.34375q0.953125 -1.359375 0.953125 -3.71875q0 -2.40625 -0.953125 -3.6875038q-0.9375 -1.28125 -2.640625 -1.28125zm14.863281 -1.65625q0.859375 0 1.53125 0.140625l-0.265625 1.796875q-0.796875 -0.171875 -1.40625 -0.171875q-1.5625 0 -2.671875 1.265625q-1.09375 1.2656288 -1.09375 3.1562538l0 6.890625l-1.953125 0l0 -12.843754l1.609375 0l0.21875 2.375l0.09375 0q0.71875 -1.25 1.71875 -1.921875q1.015625 -0.6875 2.21875 -0.6875zm5.890625 13.078129l-1.953125 0l0 -12.843754l1.953125 0l0 12.843754zm-2.109375 -16.328129q0 -0.671875 0.328125 -0.96875q0.328125 -0.3125 0.8125 -0.3125q0.46875 0 0.8125 0.3125q0.34375 0.3125 0.34375 0.96875q0 0.65625 -0.34375 0.984375q-0.34375 0.3125 -0.8125 0.3125q-0.484375 0 -0.8125 -0.3125q-0.328125 -0.328125 -0.328125 -0.984375zm11.3671875 16.562504q-2.796875 0 -4.328125 -1.71875q-1.53125 -1.71875 -1.53125 -4.859375q0 -3.21875 1.546875 -4.968754q1.5625 -1.765625 4.4375 -1.765625q0.921875 0 1.84375 0.203125q0.9375 0.1875 1.453125 0.46875l-0.59375 1.640625q-0.640625 -0.25 -1.40625 -0.421875q-0.765625 -0.171875 -1.34375 -0.171875q-3.921875 0 -3.921875 5.000004q0 2.359375 0.953125 3.625q0.96875 1.265625 2.84375 1.265625q1.59375 0 3.28125 -0.6875l0 1.71875q-1.28125 0.671875 -3.234375 0.671875zm11.707031 0q-2.84375 0 -4.5 -1.734375q-1.640625 -1.734375 -1.640625 -4.8125q0 -3.109375 1.53125 -4.937504q1.53125 -1.828125 4.109375 -1.828125q2.421875 0 3.828125 1.59375q1.40625 1.578125 1.40625 4.187504l0 1.21875l-8.859375 0q0.0625 2.265625 1.140625 3.4375q1.09375 1.171875 3.0625 1.171875q2.078125 0 4.09375 -0.859375l0 1.734375q-1.03125 0.4375 -1.953125 0.625q-0.90625 0.203125 -2.21875 0.203125zm-0.515625 -11.687504q-1.546875 0 -2.46875 1.015625q-0.921875 1.0000038 -1.09375 2.7812538l6.71875 0q0 -1.84375 -0.828125 -2.8125038q-0.8125 -0.984375 -2.328125 -0.984375zm17.996094 0.921875l-0.78125 3.9843788l3.328125 0l0 1.5l-3.609375 0l-0.984375 5.046875l-1.59375 0l0.984375 -5.046875l-3.5625 0l-0.953125 5.046875l-1.59375 0l0.9375 -5.046875l-3.078125 0l0 -1.5l3.375 0l0.796875 -3.9843788l-3.25 0l0 -1.5l3.5 0l0.96875 -5.109375l1.625 0l-0.96875 5.109375l3.578125 0l0.984375 -5.109375l1.578125 0l-0.984375 5.109375l3.09375 0l0 1.5l-3.390625 0zm-5.9375 3.9843788l3.5625 0l0.765625 -3.9843788l-3.546875 0l-0.78125 3.9843788zm20.285156 3.046875q0 1.78125 -1.34375 2.765625q-1.328125 0.96875 -3.734375 0.96875q-2.5625 0 -3.984375 -0.8125l0 -1.796875q0.921875 0.46875 1.984375 0.734375q1.0625 0.265625 2.046875 0.265625q1.515625 0 2.328125 -0.484375q0.828125 -0.484375 0.828125 -1.484375q0 -0.75 -0.65625 -1.28125q-0.640625 -0.53125 -2.53125 -1.265625q-1.78125 -0.65625 -2.546875 -1.15625q-0.75 -0.5 -1.125 -1.125q-0.359375 -0.640625 -0.359375 -1.5156288q0 -1.578125 1.265625 -2.484375q1.28125 -0.90625 3.515625 -0.90625q2.0625 0 4.046875 0.84375l-0.6875 1.578125q-1.9375 -0.796875 -3.5 -0.796875q-1.390625 0 -2.09375 0.4375q-0.703125 0.4375 -0.703125 1.1875q0 0.5156288 0.265625 0.8906288q0.265625 0.359375 0.84375 0.6875q0.59375 0.328125 2.25 0.953125q2.296875 0.828125 3.09375 1.671875q0.796875 0.84375 0.796875 2.125zm7.3242188 2.125q0.515625 0 0.984375 -0.078125q0.484375 -0.078125 0.765625 -0.15625l0 1.484375q-0.3125 0.15625 -0.9375 0.25q-0.609375 0.109375 -1.09375 0.109375q-3.734375 0 -3.734375 -3.921875l0 -7.640629l-1.84375 0l0 -0.9375l1.84375 -0.8125l0.828125 -2.75l1.125 0l0 2.984375l3.71875 0l0 1.515625l-3.71875 0l0 7.546879q0 1.171875 0.546875 1.796875q0.546875 0.609375 1.515625 0.609375zm13.066406 -0.34375l-0.109375 0q-1.34375 1.953125 -4.03125 1.953125q-2.515625 0 -3.921875 -1.71875q-1.40625 -1.734375 -1.40625 -4.90625q0 -3.171875 1.40625 -4.921879q1.40625 -1.765625 3.921875 -1.765625q2.609375 0 4.0 1.890625l0.15625 0l-0.078125 -0.921875l-0.046875 -0.90625l0 -5.21875l1.9375 0l0 18.234379l-1.578125 0l-0.25 -1.71875zm-3.890625 0.328125q1.984375 0 2.875 -1.078125q0.90625 -1.09375 0.90625 -3.515625l0 -0.40625q0 -2.734375 -0.90625 -3.8906288q-0.90625 -1.171875 -2.90625 -1.171875q-1.703125 0 -2.625 1.328125q-0.90625 1.3281288 -0.90625 3.7656288q0 2.453125 0.90625 3.71875q0.90625 1.25 2.65625 1.25zm15.269531 1.625q-2.84375 0 -4.5 -1.734375q-1.640625 -1.734375 -1.640625 -4.8125q0 -3.109375 1.53125 -4.937504q1.53125 -1.828125 4.109375 -1.828125q2.421875 0 3.828125 1.59375q1.40625 1.578125 1.40625 4.187504l0 1.21875l-8.859375 0q0.0625 2.265625 1.140625 3.4375q1.09375 1.171875 3.0625 1.171875q2.078125 0 4.09375 -0.859375l0 1.734375q-1.03125 0.4375 -1.953125 0.625q-0.90625 0.203125 -2.21875 0.203125zm-0.515625 -11.687504q-1.546875 0 -2.46875 1.015625q-0.921875 1.0000038 -1.09375 2.7812538l6.71875 0q0 -1.84375 -0.828125 -2.8125038q-0.8125 -0.984375 -2.328125 -0.984375zm11.371094 11.453129l-4.875 -12.843754l2.09375 0l2.765625 7.609379q0.9375 2.671875 1.09375 3.46875l0.09375 0q0.125 -0.609375 0.8125 -2.5625q0.6875 -1.953125 3.078125 -8.515629l2.09375 0l-4.875 12.843754l-2.28125 0z" fill-rule="nonzero"></path><path fill="#000000" fill-opacity="0.0" d="m419.91888 120.007164l0 0c0 -13.959602 11.316498 -25.2761 25.276093 -25.2761l144.09348 0c6.7036743 0 13.132751 2.6630096 17.872925 7.4031982c4.7401733 4.7401886 7.4031982 11.169266 7.4031982 17.872902l0 101.10136c0 13.959595 -11.316528 25.276093 -25.276123 25.276093l-144.09348 0l0 0c-13.959595 0 -25.276093 -11.316498 -25.276093 -25.276093z" fill-rule="nonzero"></path><path stroke="#515151" stroke-width="2.0" stroke-linejoin="round" stroke-linecap="butt" d="m419.91888 120.007164l0 0c0 -13.959602 11.316498 -25.2761 25.276093 -25.2761l144.09348 0c6.7036743 0 13.132751 2.6630096 17.872925 7.4031982c4.7401733 4.7401886 7.4031982 11.169266 7.4031982 17.872902l0 101.10136c0 13.959595 -11.316528 25.276093 -25.276123 25.276093l-144.09348 0l0 0c-13.959595 0 -25.276093 -11.316498 -25.276093 -25.276093z" fill-rule="nonzero"></path><path fill="#515151" d="m470.54446 137.02481q-1.265625 0 -2.296875 -0.453125q-1.03125 -0.46875 -1.734375 -1.4375l-0.140625 0q0.140625 1.125 0.140625 2.140625l0 5.28125l-1.953125 0l0 -18.609383l1.578125 0l0.28125 1.75l0.09375 0q0.75 -1.046875 1.734375 -1.515625q1.0 -0.46875 2.296875 -0.46875q2.546875 0 3.9375 1.75q1.390625 1.734375 1.390625 4.8906326q0 3.171875 -1.421875 4.921875q-1.40625 1.75 -3.90625 1.75zm-0.28125 -11.656258q-1.96875 0 -2.859375 1.09375q-0.875 1.078125 -0.890625 3.4531326l0 0.4375q0 2.703125 0.890625 3.875q0.90625 1.171875 2.90625 1.171875q1.65625 0 2.59375 -1.34375q0.953125 -1.359375 0.953125 -3.71875q0 -2.4062576 -0.953125 -3.6875076q-0.9375 -1.28125 -2.640625 -1.28125zm14.863281 -1.65625q0.859375 0 1.53125 0.140625l-0.265625 1.796875q-0.796875 -0.171875 -1.40625 -0.171875q-1.5625 0 -2.671875 1.265625q-1.09375 1.2656326 -1.09375 3.1562576l0 6.890625l-1.953125 0l0 -12.843758l1.609375 0l0.21875 2.375l0.09375 0q0.71875 -1.25 1.71875 -1.921875q1.015625 -0.6875 2.21875 -0.6875zm5.890625 13.078133l-1.953125 0l0 -12.843758l1.953125 0l0 12.843758zm-2.109375 -16.328133q0 -0.671875 0.328125 -0.96875q0.328125 -0.3125 0.8125 -0.3125q0.46875 0 0.8125 0.3125q0.34375 0.3125 0.34375 0.96875q0 0.65625 -0.34375 0.984375q-0.34375 0.3125 -0.8125 0.3125q-0.484375 0 -0.8125 -0.3125q-0.328125 -0.328125 -0.328125 -0.984375zm11.3671875 16.562508q-2.796875 0 -4.328125 -1.71875q-1.53125 -1.71875 -1.53125 -4.859375q0 -3.2187576 1.546875 -4.9687576q1.5625 -1.765625 4.4375 -1.765625q0.921875 0 1.84375 0.203125q0.9375 0.1875 1.453125 0.46875l-0.59375 1.640625q-0.640625 -0.25 -1.40625 -0.421875q-0.765625 -0.171875 -1.34375 -0.171875q-3.921875 0 -3.921875 5.0000076q0 2.359375 0.953125 3.625q0.96875 1.265625 2.84375 1.265625q1.59375 0 3.28125 -0.6875l0 1.71875q-1.28125 0.671875 -3.234375 0.671875zm11.707031 0q-2.84375 0 -4.5 -1.734375q-1.640625 -1.734375 -1.640625 -4.8125q0 -3.1093826 1.53125 -4.9375076q1.53125 -1.828125 4.109375 -1.828125q2.4218445 0 3.8280945 1.59375q1.40625 1.578125 1.40625 4.1875076l0 1.21875l-8.8593445 0q0.0625 2.265625 1.140625 3.4375q1.09375 1.171875 3.0624695 1.171875q2.078125 0 4.09375 -0.859375l0 1.734375q-1.03125 0.4375 -1.953125 0.625q-0.90625 0.203125 -2.2187195 0.203125zm-0.515625 -11.687508q-1.546875 0 -2.46875 1.015625q-0.921875 1.0 -1.09375 2.7812576l6.7187195 0q0 -1.8437576 -0.828125 -2.8125076q-0.8125 -0.984375 -2.3280945 -0.984375zm17.996063 0.921875l-0.78125 3.9843826l3.328125 0l0 1.5l-3.609375 0l-0.984375 5.046875l-1.59375 0l0.984375 -5.046875l-3.5625 0l-0.953125 5.046875l-1.59375 0l0.9375 -5.046875l-3.078125 0l0 -1.5l3.375 0l0.796875 -3.9843826l-3.25 0l0 -1.5l3.5 0l0.96875 -5.109375l1.625 0l-0.96875 5.109375l3.578125 0l0.984375 -5.109375l1.578125 0l-0.984375 5.109375l3.09375 0l0 1.5l-3.390625 0zm-5.9375 3.9843826l3.5625 0l0.765625 -3.9843826l-3.546875 0l-0.78125 3.9843826zm19.910156 6.546875l-0.390625 -1.828125l-0.09375 0q-0.96875 1.203125 -1.921875 1.640625q-0.953125 0.421875 -2.375 0.421875q-1.921875 0 -3.0 -0.984375q-1.078125 -0.984375 -1.078125 -2.796875q0 -3.890625 6.21875 -4.078125l2.171875 -0.078125l0 -0.796875q0 -1.5156326 -0.65625 -2.2343826q-0.640625 -0.71875 -2.0625 -0.71875q-1.609375 0 -3.640625 0.984375l-0.59375 -1.484375q0.953125 -0.515625 2.078125 -0.8125q1.125 -0.296875 2.265625 -0.296875q2.296875 0 3.40625 1.03125q1.109375 1.015625 1.109375 3.2656326l0 8.765625l-1.4375 0zm-4.40625 -1.375q1.828125 0 2.859375 -0.984375q1.03125 -1.0 1.03125 -2.796875l0 -1.15625l-1.9375 0.078125q-2.328125 0.078125 -3.359375 0.71875q-1.015625 0.640625 -1.015625 1.984375q0 1.0625 0.640625 1.609375q0.640625 0.546875 1.78125 0.546875zm12.660156 1.375l-4.875 -12.843758l2.09375 0l2.765625 7.6093826q0.9375 2.671875 1.09375 3.46875l0.09375 0q0.125 -0.609375 0.8125 -2.5625q0.6875 -1.953125 3.078125 -8.515633l2.09375 0l-4.875 12.843758l-2.28125 0zm19.726562 -12.843758l0 1.234375l-2.375 0.28125q0.328125 0.40625 0.578125 1.078125q0.265625 0.65625 0.265625 1.4843826q0 1.890625 -1.296875 3.015625q-1.28125 1.125 -3.53125 1.125q-0.578125 0 -1.078125 -0.09375q-1.25 0.65625 -1.25 1.640625q0 0.53125 0.4375 0.78125q0.4375 0.25 1.484375 0.25l2.28125 0q2.078125 0 3.1875 0.890625q1.125 0.875 1.125 2.546875q0 2.140625 -1.71875 3.25q-1.703125 1.125 -4.984375 1.125q-2.515625 0 -3.890625 -0.9375q-1.359375 -0.9375 -1.359375 -2.640625q0 -1.171875 0.75 -2.03125q0.75 -0.859375 2.109375 -1.171875q-0.484375 -0.21875 -0.828125 -0.6875q-0.328125 -0.46875 -0.328125 -1.09375q0 -0.703125 0.375 -1.21875q0.375 -0.53125 1.1875 -1.03125q-1.0 -0.40625 -1.625 -1.390625q-0.625 -0.984375 -0.625 -2.25q0 -2.1093826 1.265625 -3.2500076q1.265625 -1.140625 3.578125 -1.140625q1.015625 0 1.828125 0.234375l4.4375 0zm-10.25 15.000008q0 1.046875 0.875 1.578125q0.890625 0.546875 2.53125 0.546875q2.453125 0 3.625 -0.734375q1.171875 -0.734375 1.171875 -1.984375q0 -1.046875 -0.640625 -1.453125q-0.640625 -0.40625 -2.421875 -0.40625l-2.328125 0q-1.328125 0 -2.078125 0.625q-0.734375 0.640625 -0.734375 1.828125zm1.0625 -10.890625q0 1.34375 0.75 2.046875q0.765625 0.6875 2.125 0.6875q2.859375 0 2.859375 -2.765625q0 -2.8906326 -2.890625 -2.8906326q-1.375 0 -2.109375 0.734375q-0.734375 0.734375 -0.734375 2.1875076z" fill-rule="nonzero"></path><path fill="#009f5d" d="m440.22748 170.27788l0 0c0 -6.439102 5.2199097 -11.659027 11.659027 -11.659027l46.634705 0l0 0c3.092163 0 6.057678 1.228363 8.244171 3.414856c2.186493 2.1864777 3.414856 5.152008 3.414856 8.244171l0 46.634705c0 6.439102 -5.21994 11.659027 -11.659027 11.659027l-46.634705 0c-6.4391174 0 -11.659027 -5.219925 -11.659027 -11.659027z" fill-rule="nonzero"></path><path stroke="#515151" stroke-width="2.0" stroke-linejoin="round" stroke-linecap="butt" d="m440.22748 170.27788l0 0c0 -6.439102 5.2199097 -11.659027 11.659027 -11.659027l46.634705 0l0 0c3.092163 0 6.057678 1.228363 8.244171 3.414856c2.186493 2.1864777 3.414856 5.152008 3.414856 8.244171l0 46.634705c0 6.439102 -5.21994 11.659027 -11.659027 11.659027l-46.634705 0c-6.4391174 0 -11.659027 -5.219925 -11.659027 -11.659027z" fill-rule="nonzero"></path><path fill="#ffffff" d="m469.16284 193.00148l-4.46875 -6.265625l2.21875 0l3.390625 4.921875l3.375 -4.921875l2.1875 0l-4.46875 6.265625l4.703125 6.578125l-2.203125 0l-3.59375 -5.203125l-3.640625 5.203125l-2.203125 0l4.703125 -6.578125z" fill-rule="nonzero"></path><path fill="#ffffff" d="m482.78394 182.43898l-12.421875 0l0 -0.984375l12.421875 0l0 0.984375z" fill-rule="nonzero"></path><path fill="#ffffff" d="m483.8152 208.5796l0 -5.546875q0 -1.046875 -0.484375 -1.5625q-0.46875 -0.515625 -1.484375 -0.515625q-1.34375 0 -1.96875 0.734375q-0.625 0.71875 -0.625 2.390625l0 4.5l-1.296875 0l0 -8.5625l1.0625 0l0.203125 1.171875l0.0625 0q0.40625 -0.640625 1.125 -0.984375q0.71875 -0.34375 1.59375 -0.34375q1.546875 0 2.328125 0.75q0.78125 0.734375 0.78125 2.375l0 5.59375l-1.296875 0z" fill-rule="nonzero"></path><path fill="#009f5d" d="m522.8117 170.27788l0 0c0 -6.439102 5.2199707 -11.659027 11.659058 -11.659027l46.634705 0l0 0c3.092163 0 6.057678 1.228363 8.244141 3.414856c2.1865234 2.1864777 3.414856 5.152008 3.414856 8.244171l0 46.634705c0 6.439102 -5.2199097 11.659027 -11.658997 11.659027l-46.634705 0c-6.439087 0 -11.659058 -5.219925 -11.659058 -11.659027z" fill-rule="nonzero"></path><path stroke="#515151" stroke-width="2.0" stroke-linejoin="round" stroke-linecap="butt" d="m522.8117 170.27788l0 0c0 -6.439102 5.2199707 -11.659027 11.659058 -11.659027l46.634705 0l0 0c3.092163 0 6.057678 1.228363 8.244141 3.414856c2.1865234 2.1864777 3.414856 5.152008 3.414856 8.244171l0 46.634705c0 6.439102 -5.2199097 11.659027 -11.658997 11.659027l-46.634705 0c-6.439087 0 -11.659058 -5.219925 -11.659058 -11.659027z" fill-rule="nonzero"></path><path fill="#ffffff" d="m561.2822 202.90773l0 -8.3125q0 -1.5625 -0.71875 -2.328125q-0.71875 -0.78125 -2.234375 -0.78125q-2.015625 0 -2.953125 1.09375q-0.9375 1.078125 -0.9375 3.59375l0 6.734375l-1.953125 0l0 -12.84375l1.578125 0l0.328125 1.75l0.09375 0q0.59375 -0.9375 1.671875 -1.453125q1.078125 -0.53125 2.40625 -0.53125q2.3125 0 3.484375 1.125q1.171875 1.109375 1.171875 3.578125l0 8.375l-1.9375 0z" fill-rule="nonzero"></path><path fill="#000000" fill-opacity="0.0" d="m629.60754 120.007164l0 0c0 -13.959602 11.316528 -25.2761 25.276123 -25.2761l144.09344 0c6.7036743 0 13.132751 2.6630096 17.872925 7.4031982c4.7401733 4.7401886 7.4031982 11.169266 7.4031982 17.872902l0 101.10136c0 13.959595 -11.316467 25.276093 -25.276123 25.276093l-144.09344 0l0 0c-13.959595 0 -25.276123 -11.316498 -25.276123 -25.276093z" fill-rule="nonzero"></path><path stroke="#515151" stroke-width="2.0" stroke-linejoin="round" stroke-linecap="butt" d="m629.60754 120.007164l0 0c0 -13.959602 11.316528 -25.2761 25.276123 -25.2761l144.09344 0c6.7036743 0 13.132751 2.6630096 17.872925 7.4031982c4.7401733 4.7401886 7.4031982 11.169266 7.4031982 17.872902l0 101.10136c0 13.959595 -11.316467 25.276093 -25.276123 25.276093l-144.09344 0l0 0c-13.959595 0 -25.276123 -11.316498 -25.276123 -25.276093z" fill-rule="nonzero"></path><path fill="#515151" d="m669.4343 137.02481q-1.265625 0 -2.296875 -0.453125q-1.03125 -0.46875 -1.734375 -1.4375l-0.140625 0q0.140625 1.125 0.140625 2.140625l0 5.28125l-1.953125 0l0 -18.609383l1.578125 0l0.28125 1.75l0.09375 0q0.75 -1.046875 1.734375 -1.515625q1.0 -0.46875 2.296875 -0.46875q2.546875 0 3.9375 1.75q1.390625 1.734375 1.390625 4.8906326q0 3.171875 -1.421875 4.921875q-1.40625 1.75 -3.90625 1.75zm-0.28125 -11.656258q-1.96875 0 -2.859375 1.09375q-0.875 1.078125 -0.890625 3.4531326l0 0.4375q0 2.703125 0.890625 3.875q0.90625 1.171875 2.90625 1.171875q1.65625 0 2.59375 -1.34375q0.953125 -1.359375 0.953125 -3.71875q0 -2.4062576 -0.953125 -3.6875076q-0.9375 -1.28125 -2.640625 -1.28125zm14.863281 -1.65625q0.859375 0 1.53125 0.140625l-0.265625 1.796875q-0.796875 -0.171875 -1.40625 -0.171875q-1.5625 0 -2.671875 1.265625q-1.09375 1.2656326 -1.09375 3.1562576l0 6.890625l-1.953125 0l0 -12.843758l1.609375 0l0.21875 2.375l0.09375 0q0.71875 -1.25 1.71875 -1.921875q1.015625 -0.6875 2.21875 -0.6875zm5.890625 13.078133l-1.953125 0l0 -12.843758l1.953125 0l0 12.843758zm-2.109375 -16.328133q0 -0.671875 0.328125 -0.96875q0.328125 -0.3125 0.8125 -0.3125q0.46875 0 0.8125 0.3125q0.34375 0.3125 0.34375 0.96875q0 0.65625 -0.34375 0.984375q-0.34375 0.3125 -0.8125 0.3125q-0.484375 0 -0.8125 -0.3125q-0.328125 -0.328125 -0.328125 -0.984375zm11.3671875 16.562508q-2.796875 0 -4.328125 -1.71875q-1.53125 -1.71875 -1.53125 -4.859375q0 -3.2187576 1.546875 -4.9687576q1.5625 -1.765625 4.4375 -1.765625q0.921875 0 1.84375 0.203125q0.9375 0.1875 1.453125 0.46875l-0.59375 1.640625q-0.640625 -0.25 -1.40625 -0.421875q-0.765625 -0.171875 -1.34375 -0.171875q-3.921875 0 -3.921875 5.0000076q0 2.359375 0.953125 3.625q0.96875 1.265625 2.84375 1.265625q1.59375 0 3.28125 -0.6875l0 1.71875q-1.28125 0.671875 -3.234375 0.671875zm11.707031 0q-2.84375 0 -4.5 -1.734375q-1.640625 -1.734375 -1.640625 -4.8125q0 -3.1093826 1.53125 -4.9375076q1.53125 -1.828125 4.109375 -1.828125q2.421875 0 3.828125 1.59375q1.40625 1.578125 1.40625 4.1875076l0 1.21875l-8.859375 0q0.0625 2.265625 1.140625 3.4375q1.09375 1.171875 3.0625 1.171875q2.078125 0 4.09375 -0.859375l0 1.734375q-1.03125 0.4375 -1.953125 0.625q-0.90625 0.203125 -2.21875 0.203125zm-0.515625 -11.687508q-1.546875 0 -2.46875 1.015625q-0.921875 1.0 -1.09375 2.7812576l6.71875 0q0 -1.8437576 -0.828125 -2.8125076q-0.8125 -0.984375 -2.328125 -0.984375zm17.996094 0.921875l-0.78125 3.9843826l3.328125 0l0 1.5l-3.609375 0l-0.984375 5.046875l-1.59375 0l0.984375 -5.046875l-3.5625 0l-0.953125 5.046875l-1.59375 0l0.9375 -5.046875l-3.078125 0l0 -1.5l3.375 0l0.796875 -3.9843826l-3.25 0l0 -1.5l3.5 0l0.96875 -5.109375l1.625 0l-0.96875 5.109375l3.578125 0l0.984375 -5.109375l1.578125 0l-0.984375 5.109375l3.09375 0l0 1.5l-3.390625 0zm-5.9375 3.9843826l3.5625 0l0.765625 -3.9843826l-3.546875 0l-0.78125 3.9843826zm20.285156 3.046875q0 1.78125 -1.34375 2.765625q-1.328125 0.96875 -3.734375 0.96875q-2.5625 0 -3.984375 -0.8125l0 -1.796875q0.921875 0.46875 1.984375 0.734375q1.0625 0.265625 2.046875 0.265625q1.515625 0 2.328125 -0.484375q0.828125 -0.484375 0.828125 -1.484375q0 -0.75 -0.65625 -1.28125q-0.640625 -0.53125 -2.53125 -1.265625q-1.78125 -0.65625 -2.546875 -1.15625q-0.75 -0.5 -1.125 -1.125q-0.359375 -0.6406326 -0.359375 -1.5156326q0 -1.578125 1.265625 -2.484375q1.28125 -0.90625 3.515625 -0.90625q2.0625 0 4.046875 0.84375l-0.6875 1.578125q-1.9375 -0.796875 -3.5 -0.796875q-1.390625 0 -2.09375 0.4375q-0.703125 0.4375 -0.703125 1.1875q0 0.515625 0.265625 0.890625q0.265625 0.35938263 0.84375 0.6875076q0.59375 0.328125 2.25 0.953125q2.296875 0.828125 3.09375 1.671875q0.796875 0.84375 0.796875 2.125zm7.3242188 2.125q0.515625 0 0.984375 -0.078125q0.484375 -0.078125 0.765625 -0.15625l0 1.484375q-0.3125 0.15625 -0.9375 0.25q-0.609375 0.109375 -1.09375 0.109375q-3.734375 0 -3.734375 -3.921875l0 -7.6406326l-1.84375 0l0 -0.9375l1.84375 -0.8125l0.828125 -2.75l1.125 0l0 2.984375l3.71875 0l0 1.515625l-3.71875 0l0 7.5468826q0 1.171875 0.546875 1.796875q0.546875 0.609375 1.515625 0.609375zm13.066406 -0.34375l-0.109375 0q-1.34375 1.953125 -4.03125 1.953125q-2.515625 0 -3.921875 -1.71875q-1.40625 -1.734375 -1.40625 -4.90625q0 -3.1718826 1.40625 -4.9218826q1.40625 -1.765625 3.921875 -1.765625q2.609375 0 4.0 1.890625l0.15625 0l-0.078125 -0.921875l-0.046875 -0.90625l0 -5.21875l1.9375 0l0 18.234383l-1.578125 0l-0.25 -1.71875zm-3.890625 0.328125q1.984375 0 2.875 -1.078125q0.90625 -1.09375 0.90625 -3.515625l0 -0.40625q0 -2.7343826 -0.90625 -3.8906326q-0.90625 -1.171875 -2.90625 -1.171875q-1.703125 0 -2.625 1.328125q-0.90625 1.328125 -0.90625 3.7656326q0 2.453125 0.90625 3.71875q0.90625 1.25 2.65625 1.25zm15.26947 1.625q-2.84375 0 -4.5 -1.734375q-1.640625 -1.734375 -1.640625 -4.8125q0 -3.1093826 1.53125 -4.9375076q1.53125 -1.828125 4.109375 -1.828125q2.421875 0 3.828125 1.59375q1.40625 1.578125 1.40625 4.1875076l0 1.21875l-8.859375 0q0.0625 2.265625 1.140625 3.4375q1.09375 1.171875 3.0625 1.171875q2.078125 0 4.09375 -0.859375l0 1.734375q-1.03125 0.4375 -1.953125 0.625q-0.90625 0.203125 -2.21875 0.203125zm-0.515625 -11.687508q-1.546875 0 -2.46875 1.015625q-0.921875 1.0 -1.09375 2.7812576l6.71875 0q0 -1.8437576 -0.828125 -2.8125076q-0.8125 -0.984375 -2.328125 -0.984375zm11.371094 11.453133l-4.875 -12.843758l2.09375 0l2.765625 7.6093826q0.9375 2.671875 1.09375 3.46875l0.09375 0q0.125 -0.609375 0.8125 -2.5625q0.6875 -1.953125 3.078125 -8.515633l2.09375 0l-4.875 12.843758l-2.28125 0z" fill-rule="nonzero"></path><path fill="#0066cc" d="m649.91614 170.27788l0 0c0 -6.439102 5.2199097 -11.659027 11.659058 -11.659027l46.634644 0l0 0c3.0922241 0 6.0577393 1.228363 8.244202 3.414856c2.1865234 2.1864777 3.414856 5.152008 3.414856 8.244171l0 46.634705c0 6.439102 -5.2199097 11.659027 -11.659058 11.659027l-46.634644 0c-6.439148 0 -11.659058 -5.219925 -11.659058 -11.659027z" fill-rule="nonzero"></path><path stroke="#515151" stroke-width="2.0" stroke-linejoin="round" stroke-linecap="butt" d="m649.91614 170.27788l0 0c0 -6.439102 5.2199097 -11.659027 11.659058 -11.659027l46.634644 0l0 0c3.0922241 0 6.0577393 1.228363 8.244202 3.414856c2.1865234 2.1864777 3.414856 5.152008 3.414856 8.244171l0 46.634705c0 6.439102 -5.2199097 11.659027 -11.659058 11.659027l-46.634644 0c-6.439148 0 -11.659058 -5.219925 -11.659058 -11.659027z" fill-rule="nonzero"></path><path fill="#ffffff" d="m672.5507 199.5796l-5.8125 -15.1875l-0.09375 0q0.171875 1.796875 0.171875 4.28125l0 10.90625l-1.84375 0l0 -17.140625l3.0 0l5.421875 14.140625l0.09375 0l5.46875 -14.140625l2.984375 0l0 17.140625l-2.0 0l0 -11.046875q0 -1.890625 0.171875 -4.125l-0.09375 0l-5.859375 15.171875l-1.609375 0z" fill-rule="nonzero"></path><path fill="#ffffff" d="m692.57806 208.5796l-7.515625 0l0 -1.125l3.015625 -3.015625q1.375 -1.390625 1.8125 -1.984375q0.4375 -0.59375 0.65625 -1.15625q0.21875 -0.5625 0.21875 -1.21875q0 -0.90625 -0.5625 -1.4375q-0.546875 -0.546875 -1.53125 -0.546875q-0.71875 0 -1.359375 0.234375q-0.625 0.234375 -1.40625 0.859375l-0.6875 -0.890625q1.578125 -1.3125 3.4375 -1.3125q1.609375 0 2.515625 0.828125q0.921875 0.828125 0.921875 2.21875q0 1.078125 -0.609375 2.140625q-0.609375 1.0625 -2.28125 2.6875l-2.5 2.453125l0 0.0625l5.875 0l0 1.203125zm3.5859375 -1.859375l0.125 0.171875q-0.203125 0.78125 -0.59375 1.8125q-0.375 1.046875 -0.796875 1.9375l-0.96875 0q0.203125 -0.8125 0.453125 -2.015625q0.265625 -1.1875 0.359375 -1.90625l1.421875 0zm8.421875 1.859375l0 -5.546875q0 -1.046875 -0.484375 -1.5625q-0.46875 -0.515625 -1.484375 -0.515625q-1.34375 0 -1.96875 0.734375q-0.625 0.71875 -0.625 2.390625l0 4.5l-1.296875 0l0 -8.5625l1.0625 0l0.203125 1.171875l0.0625 0q0.40625 -0.640625 1.125 -0.984375q0.71875 -0.34375 1.59375 -0.34375q1.546875 0 2.328125 0.75q0.78125 0.734375 0.78125 2.375l0 5.59375l-1.296875 0z" fill-rule="nonzero"></path><path fill="#0066cc" d="m732.5004 170.27788l0 0c0 -6.439102 5.2199097 -11.659027 11.658997 -11.659027l46.634705 0l0 0c3.092163 0 6.057678 1.228363 8.244202 3.414856c2.1864624 2.1864777 3.414795 5.152008 3.414795 8.244171l0 46.634705c0 6.439102 -5.2199097 11.659027 -11.658997 11.659027l-46.634705 0c-6.439087 0 -11.658997 -5.219925 -11.658997 -11.659027z" fill-rule="nonzero"></path><path stroke="#515151" stroke-width="2.0" stroke-linejoin="round" stroke-linecap="butt" d="m732.5004 170.27788l0 0c0 -6.439102 5.2199097 -11.659027 11.658997 -11.659027l46.634705 0l0 0c3.092163 0 6.057678 1.228363 8.244202 3.414856c2.1864624 2.1864777 3.414795 5.152008 3.414795 8.244171l0 46.634705c0 6.439102 -5.2199097 11.659027 -11.658997 11.659027l-46.634705 0c-6.439087 0 -11.658997 -5.219925 -11.658997 -11.659027z" fill-rule="nonzero"></path><path fill="#ffffff" d="m770.97095 202.90773l0 -8.3125q0 -1.5625 -0.71875 -2.328125q-0.71875 -0.78125 -2.234375 -0.78125q-2.015625 0 -2.953125 1.09375q-0.9375 1.078125 -0.9375 3.59375l0 6.734375l-1.953125 0l0 -12.84375l1.578125 0l0.328125 1.75l0.09375 0q0.59375 -0.9375 1.671875 -1.453125q1.078125 -0.53125 2.40625 -0.53125q2.3125 0 3.484375 1.125q1.171875 1.109375 1.171875 3.578125l0 8.375l-1.9375 0z" fill-rule="nonzero"></path><path fill="#000000" fill-opacity="0.0" d="m334.92126 106.39131l0 0c0 -6.439102 5.21994 -11.659027 11.659027 -11.659027l46.634705 0l0 0c3.092163 0 6.0577087 1.2283554 8.244171 3.4148483c2.186493 2.186493 3.414856 5.152008 3.414856 8.244179l0 128.3355c0 6.439102 -5.2199097 11.659027 -11.659027 11.659027l-46.634705 0c-6.439087 0 -11.659027 -5.219925 -11.659027 -11.659027z" fill-rule="nonzero"></path><path stroke="#515151" stroke-width="2.0" stroke-linejoin="round" stroke-linecap="butt" d="m334.92126 106.39131l0 0c0 -6.439102 5.21994 -11.659027 11.659027 -11.659027l46.634705 0l0 0c3.092163 0 6.0577087 1.2283554 8.244171 3.4148483c2.186493 2.186493 3.414856 5.152008 3.414856 8.244179l0 128.3355c0 6.439102 -5.2199097 11.659027 -11.659027 11.659027l-46.634705 0c-6.439087 0 -11.659027 -5.219925 -11.659027 -11.659027z" fill-rule="nonzero"></path><path fill="#515151" d="m369.425 128.86584l-2.546875 0l0 3.9375l-1.859375 0l0 -3.9375l-8.34375 0l0 -1.703125l8.140625 -11.59375l2.0625 0l0 11.53125l2.546875 0l0 1.765625zm-4.40625 -1.765625l0 -5.703125q0 -1.671875 0.109375 -3.78125l-0.09375 0q-0.5625 1.125 -1.046875 1.859375l-5.359375 7.625l6.390625 0zm17.316406 5.703125l-11.265625 0l0 -1.671875l4.515625 -4.546875q2.0625 -2.078125 2.71875 -2.96875q0.65625 -0.890625 0.984375 -1.734375q0.328125 -0.84375 0.328125 -1.8125q0 -1.375 -0.84375 -2.171875q-0.828125 -0.8125 -2.296875 -0.8125q-1.0625 0 -2.03125 0.359375q-0.953125 0.34375 -2.125 1.265625l-1.03125 -1.3125q2.375 -1.96875 5.15625 -1.96875q2.421875 0 3.78125 1.234375q1.375 1.234375 1.375 3.3125q0 1.640625 -0.921875 3.234375q-0.90625 1.59375 -3.40625 4.03125l-3.75 3.65625l0 0.09375l8.8125 0l0 1.8125z" fill-rule="nonzero"></path></g></svg>

