<?xml version="1.0" standalone="yes"?>

<svg version="1.1" viewBox="0.0 0.0 1152.0 864.0" fill="none" stroke="none" stroke-linecap="square" stroke-miterlimit="10" xmlns="http://www.w3.org/2000/svg" xmlns:xlink="http://www.w3.org/1999/xlink"><clipPath id="p.0"><path d="m0 0l1152.0 0l0 864.0l-1152.0 0l0 -864.0z" clip-rule="nonzero"></path></clipPath><g clip-path="url(#p.0)"><path fill="#000000" fill-opacity="0.0" d="m0 0l1152.0 0l0 864.0l-1152.0 0z" fill-rule="nonzero"></path><path fill="#0000cc" fill-opacity="0.502" d="m343.37796 163.13124l0 0c0 -78.9115 63.970398 -142.8819 142.8819 -142.8819l0 0c37.894623 0 74.23721 15.053585 101.032745 41.849136c26.795532 26.795555 41.84912 63.138123 41.84912 101.03276l0 0c0 78.91148 -63.970398 142.88188 -142.88187 142.88188l0 0c-78.9115 0 -142.8819 -63.970398 -142.8819 -142.88188z" fill-rule="nonzero"></path><path stroke="#515151" stroke-width="2.0" stroke-linejoin="round" stroke-linecap="butt" d="m343.37796 163.13124l0 0c0 -78.9115 63.970398 -142.8819 142.8819 -142.8819l0 0c37.894623 0 74.23721 15.053585 101.032745 41.849136c26.795532 26.795555 41.84912 63.138123 41.84912 101.03276l0 0c0 78.91148 -63.970398 142.88188 -142.88187 142.88188l0 0c-78.9115 0 -142.8819 -63.970398 -142.8819 -142.88188z" fill-rule="nonzero"></path><path fill="#ffffff" d="m429.22708 187.95937l-5.6875 -14.53125l-18.3125 0l-5.625 14.53125l-5.375 0l18.0625 -45.875l4.46875 0l17.96875 45.875l-5.5 0zm-7.34375 -19.3125l-5.3125 -14.15625q-1.03125 -2.6875 -2.125 -6.59375q-0.6875 3.0 -1.96875 6.59375l-5.375 14.15625l14.78125 0z" fill-rule="nonzero"></path><path fill="#cc0000" fill-opacity="0.5038" d="m524.50134 163.13124l0 0c0 -78.9115 63.970398 -142.8819 142.88184 -142.8819l0 0c37.894653 0 74.23724 15.053585 101.032776 41.849136c26.795532 26.795555 41.84912 63.138123 41.84912 101.03276l0 0c0 78.91148 -63.970398 142.88188 -142.8819 142.88188l0 0c-78.91144 0 -142.88184 -63.970398 -142.88184 -142.88188z" fill-rule="nonzero"></path><path stroke="#515151" stroke-width="2.0" stroke-linejoin="round" stroke-linecap="butt" d="m524.50134 163.13124l0 0c0 -78.9115 63.970398 -142.8819 142.88184 -142.8819l0 0c37.894653 0 74.23724 15.053585 101.032776 41.849136c26.795532 26.795555 41.84912 63.138123 41.84912 101.03276l0 0c0 78.91148 -63.970398 142.88188 -142.8819 142.88188l0 0c-78.91144 0 -142.88184 -63.970398 -142.88184 -142.88188z" fill-rule="nonzero"></path><path fill="#ffffff" d="m724.22845 131.5453l12.90625 0q9.09375 0 13.15625 2.71875q4.0625 2.71875 4.0625 8.59375q0 4.0625 -2.265625 6.703125q-2.265625 2.640625 -6.609375 3.421875l0 0.3125q10.40625 1.78125 10.40625 10.9375q0 6.125 -4.140625 9.5625q-4.140625 3.4375 -11.578125 3.4375l-15.9375 0l0 -45.6875zm5.3125 19.5625l8.75 0q5.625 0 8.09375 -1.765625q2.46875 -1.765625 2.46875 -5.953125q0 -3.84375 -2.75 -5.546875q-2.75 -1.703125 -8.75 -1.703125l-7.8125 0l0 14.96875zm0 4.5l0 17.09375l9.53125 0q5.53125 0 8.328125 -2.140625q2.796875 -2.140625 2.796875 -6.703125q0 -4.25 -2.859375 -6.25q-2.859375 -2.0 -8.703125 -2.0l-9.09375 0z" fill-rule="nonzero"></path><path fill="#000000" fill-opacity="0.0" d="m531.8583 142.87927l88.28345 0l0 40.503937l-88.28345 0z" fill-rule="nonzero"></path><path fill="#ffffff" d="m558.85547 172.44374l-2.125 -5.453125l-6.875 0l-2.109375 5.453125l-2.015625 0l6.78125 -17.203125l1.671875 0l6.734375 17.203125l-2.0625 0zm-2.75 -7.25l-2.0 -5.296875q-0.375 -1.015625 -0.796875 -2.484375q-0.25 1.125 -0.734375 2.484375l-2.015625 5.296875l5.546875 0z" fill-rule="nonzero"></path><path fill="#ffffff" d="m570.6992 172.44374l-1.296875 0l0 -6.5625q0 -2.90625 0.078125 -3.6875q0.140625 -1.390625 0.515625 -2.28125q0.375 -0.890625 1.1875 -1.75q0.828125 -0.859375 2.03125 -1.390625q1.21875 -0.546875 2.578125 -0.546875q1.3125 0 2.5 0.515625q1.203125 0.515625 2.078125 1.40625q0.875 0.875 1.25 1.875q0.375 1.0 0.5 2.484375q0.046875 0.578125 0.046875 3.375l0 6.5625l-1.28125 0l0 -6.640625q0 -2.546875 -0.0625 -3.28125q-0.140625 -1.3125 -0.4375 -2.078125q-0.296875 -0.765625 -0.9375 -1.4375q-0.640625 -0.671875 -1.625 -1.109375q-0.984375 -0.4375 -2.046875 -0.4375q-0.859375 0 -1.6875 0.3125q-0.8125 0.296875 -1.390625 0.734375q-0.578125 0.4375 -0.9375 0.90625q-0.359375 0.453125 -0.515625 0.859375q-0.296875 0.703125 -0.421875 1.71875q-0.125 1.015625 -0.125 3.8125l0 6.640625z" fill-rule="nonzero"></path><path fill="#ffffff" d="m593.0781 155.30312l4.84375 0q3.40625 0 4.921875 1.03125q1.53125 1.015625 1.53125 3.21875q0 1.515625 -0.859375 2.515625q-0.84375 0.984375 -2.46875 1.28125l0 0.109375q3.90625 0.671875 3.90625 4.109375q0 2.296875 -1.5625 3.59375q-1.546875 1.28125 -4.34375 1.28125l-5.96875 0l0 -17.140625zm1.984375 7.34375l3.28125 0q2.109375 0 3.03125 -0.65625q0.9375 -0.671875 0.9375 -2.234375q0 -1.453125 -1.03125 -2.078125q-1.03125 -0.640625 -3.28125 -0.640625l-2.9375 0l0 5.609375zm0 1.6875l0 6.40625l3.578125 0q2.078125 0 3.125 -0.796875q1.046875 -0.8125 1.046875 -2.515625q0 -1.59375 -1.078125 -2.34375q-1.0625 -0.75 -3.25 -0.75l-3.421875 0z" fill-rule="nonzero"></path><path fill="#000000" fill-opacity="0.0" d="m333.02362 335.50656l485.95276 0l0 40.503937l-485.95276 0z" fill-rule="nonzero"></path><path fill="#515151" d="m359.1797 343.8601l2.203125 0l0 32.0625l-2.203125 0l0 -32.0625zm27.40625 24.3125l-2.84375 -7.265625l-9.15625 0l-2.8125 7.265625l-2.6875 0l9.03125 -22.9375l2.234375 0l8.984375 22.9375l-2.75 0zm-3.671875 -9.65625l-2.65625 -7.078125q-0.515625 -1.34375 -1.0625 -3.296875q-0.34375 1.5 -0.984375 3.296875l-2.6875 7.078125l7.390625 0z" fill-rule="nonzero"></path><path fill="#515151" d="m402.3672 368.1726l-1.71875 0l0 -8.75q0 -3.875 0.09375 -4.90625q0.1875 -1.859375 0.6875 -3.046875q0.5 -1.1875 1.59375 -2.328125q1.09375 -1.15625 2.703125 -1.875q1.625 -0.71875 3.4375 -0.71875q1.75 0 3.34375 0.6875q1.59375 0.6875 2.765625 1.875q1.171875 1.171875 1.671875 2.5q0.5 1.328125 0.65625 3.3125q0.0625 0.78125 0.0625 4.5l0 8.75l-1.703125 0l0 -8.84375q0 -3.40625 -0.09375 -4.390625q-0.171875 -1.734375 -0.578125 -2.75q-0.390625 -1.03125 -1.25 -1.921875q-0.84375 -0.90625 -2.171875 -1.484375q-1.3125 -0.578125 -2.71875 -0.578125q-1.15625 0 -2.25 0.40625q-1.078125 0.390625 -1.859375 0.984375q-0.765625 0.578125 -1.25 1.203125q-0.46875 0.609375 -0.6875 1.15625q-0.390625 0.9375 -0.5625 2.296875q-0.171875 1.34375 -0.171875 5.078125l0 8.84375z" fill-rule="nonzero"></path><path fill="#515151" d="m432.21094 345.32886l6.453125 0q4.546875 0 6.578125 1.359375q2.03125 1.359375 2.03125 4.296875q0 2.03125 -1.140625 3.359375q-1.125 1.3125 -3.296875 1.703125l0 0.15625q5.203125 0.890625 5.203125 5.46875q0 3.0625 -2.078125 4.78125q-2.0625 1.71875 -5.78125 1.71875l-7.96875 0l0 -22.84375zm2.65625 9.78125l4.375 0q2.8125 0 4.046875 -0.875q1.234375 -0.890625 1.234375 -2.984375q0 -1.921875 -1.375 -2.765625q-1.375 -0.859375 -4.375 -0.859375l-3.90625 0l0 7.484375zm0 2.25l0 8.546875l4.765625 0q2.765625 0 4.15625 -1.0625q1.40625 -1.078125 1.40625 -3.359375q0 -2.125 -1.4375 -3.125q-1.421875 -1.0 -4.34375 -1.0l-4.546875 0zm22.65625 -13.5l2.203125 0l0 32.0625l-2.203125 0l0 -32.0625zm20.078125 10.90625l0 -2.140625l14.53125 0l0 2.140625l-14.53125 0zm0 6.390625l0 -2.140625l14.53125 0l0 2.140625l-14.53125 0zm32.46875 -17.296875l2.203125 0l0 32.0625l-2.203125 0l0 -32.0625zm27.40625 24.3125l-2.84375 -7.265625l-9.15625 0l-2.8125 7.265625l-2.6875 0l9.03125 -22.9375l2.234375 0l8.984375 22.9375l-2.75 0zm-3.671875 -9.65625l-2.65625 -7.078125q-0.515625 -1.34375 -1.0625 -3.296875q-0.34375 1.5 -0.984375 3.296875l-2.6875 7.078125l7.390625 0zm14.140625 -14.65625l2.203125 0l0 32.0625l-2.203125 0l0 -32.0625zm28.421875 11.953125l6.4375 0l0 2.15625l-6.4375 0l0 6.65625l-2.171875 0l0 -6.65625l-6.40625 0l0 -2.15625l6.40625 0l0 -6.6875l2.171875 0l0 6.6875zm24.125 -11.953125l2.203125 0l0 32.0625l-2.203125 0l0 -32.0625zm13.046875 1.46875l6.453125 0q4.546875 0 6.578125 1.359375q2.03125 1.359375 2.03125 4.296875q0 2.03125 -1.140625 3.359375q-1.125 1.3125 -3.296875 1.703125l0 0.15625q5.203125 0.890625 5.203125 5.46875q0 3.0625 -2.078125 4.78125q-2.0625 1.71875 -5.78125 1.71875l-7.96875 0l0 -22.84375zm2.65625 9.78125l4.375 0q2.8125 0 4.046875 -0.875q1.234375 -0.890625 1.234375 -2.984375q0 -1.921875 -1.375 -2.765625q-1.375 -0.859375 -4.375 -0.859375l-3.90625 0l0 7.484375zm0 2.25l0 8.546875l4.765625 0q2.765625 0 4.15625 -1.0625q1.40625 -1.078125 1.40625 -3.359375q0 -2.125 -1.4375 -3.125q-1.421875 -1.0 -4.34375 -1.0l-4.546875 0zm22.65625 -13.5l2.203125 0l0 32.0625l-2.203125 0l0 -32.0625zm19.53125 16.921875l0 -2.375l7.671875 0l0 2.375l-7.671875 0zm25.015625 -16.921875l2.203125 0l0 32.0625l-2.203125 0l0 -32.0625zm27.40625 24.3125l-2.84375 -7.265625l-9.15625 0l-2.8125 7.265625l-2.6875 0l9.03125 -22.9375l2.234375 0l8.984375 22.9375l-2.75 0zm-3.671875 -9.65625l-2.65625 -7.078125q-0.515625 -1.34375 -1.0625 -3.296875q-0.34375 1.5 -0.984375 3.296875l-2.6875 7.078125l7.390625 0z" fill-rule="nonzero"></path><path fill="#515151" d="m744.8672 346.0476l1.125 0l0 13.125q0 3.75 -2.25 6.0q-2.25 2.25 -6.0 2.25q-3.625 0 -5.875 -2.25q-2.25 -2.25 -2.25 -6.0l0 -13.125l1.125 0l0 13.125q0 3.25 1.875 5.125q1.875 1.875 5.125 1.875q3.375 0 5.25 -1.875q1.875 -1.875 1.875 -5.125l0 -13.125z" fill-rule="nonzero"></path><path fill="#515151" d="m765.3203 345.32886l6.453125 0q4.546875 0 6.578125 1.359375q2.03125 1.359375 2.03125 4.296875q0 2.03125 -1.140625 3.359375q-1.125 1.3125 -3.296875 1.703125l0 0.15625q5.203125 0.890625 5.203125 5.46875q0 3.0625 -2.078125 4.78125q-2.0625 1.71875 -5.78125 1.71875l-7.96875 0l0 -22.84375zm2.65625 9.78125l4.375 0q2.8125 0 4.046875 -0.875q1.234375 -0.890625 1.234375 -2.984375q0 -1.921875 -1.375 -2.765625q-1.375 -0.859375 -4.375 -0.859375l-3.90625 0l0 7.484375zm0 2.25l0 8.546875l4.765625 0q2.765625 0 4.15625 -1.0625q1.40625 -1.078125 1.40625 -3.359375q0 -2.125 -1.4375 -3.125q-1.421875 -1.0 -4.34375 -1.0l-4.546875 0zm22.65625 -13.5l2.203125 0l0 32.0625l-2.203125 0l0 -32.0625z" fill-rule="nonzero"></path></g></svg>

